<svg xmlns="http://www.w3.org/2000/svg" width="67.473" height="80.987" viewBox="0 0 67.473 80.987"><defs><style>.a{fill:#4caf50;}.b{fill:#fafafa;}</style></defs><g transform="translate(-42.727)"><g transform="translate(42.727 0)"><path class="a" d="M47.787,170.787a5.06,5.06,0,0,0-5.06,5.06v23.615a5.06,5.06,0,1,0,10.121,0V175.847A5.06,5.06,0,0,0,47.787,170.787Z" transform="translate(-42.727 -143.779)"/><path class="a" d="M410.453,170.787a5.061,5.061,0,0,0-5.06,5.06v23.615a5.06,5.06,0,1,0,10.121,0V175.847A5.06,5.06,0,0,0,410.453,170.787Z" transform="translate(-348.041 -143.779)"/><path class="a" d="M166.857,170.787h-37.11a1.687,1.687,0,0,0-1.687,1.687v26.989a8.434,8.434,0,0,0,6.747,8.265V219.7a5.06,5.06,0,0,0,10.121,0V207.9h6.747V219.7a5.06,5.06,0,0,0,10.121,0V207.728a8.434,8.434,0,0,0,6.747-8.265V172.474A1.687,1.687,0,0,0,166.857,170.787Z" transform="translate(-114.565 -143.779)"/><path class="a" d="M160.564,7.009,164.676,2.9A1.687,1.687,0,0,0,162.333.473l-.041.041L157.5,5.306a23.087,23.087,0,0,0-18.4,0L134.313.512A1.687,1.687,0,0,0,131.928,2.9l4.109,4.112a17.8,17.8,0,0,0-7.979,14.939,1.687,1.687,0,0,0,1.687,1.687h37.11a1.687,1.687,0,0,0,1.687-1.687A17.8,17.8,0,0,0,160.564,7.009Z" transform="translate(-114.564 0)"/></g><g transform="translate(66.342 13.514)"><circle class="b" cx="1.687" cy="1.687" r="1.687"/><circle class="b" cx="1.687" cy="1.687" r="1.687" transform="translate(16.868)"/></g></g></svg>