<svg xmlns="http://www.w3.org/2000/svg" width="59.38" height="72.395" viewBox="0 0 59.38 72.395"><defs><style>.a{fill:#ffb000;}</style></defs><g transform="translate(-46.022)"><path class="a" d="M65.709,173.674c-10.775-.062-19.687-22.057-19.687-33.258,0-18.3,13.726-22.3,19.016-22.3a21.881,21.881,0,0,1,7.175,1.765,16.038,16.038,0,0,0,4.1,1.174,12.749,12.749,0,0,0,2.939-.953,23.556,23.556,0,0,1,8.859-2.142h.021c2.6,0,10.464.57,15.195,7.674l1.108,1.665-1.595,1.2c-2.278,1.719-6.435,4.855-6.435,11.067,0,7.357,4.708,10.186,6.97,11.547,1,.6,2.032,1.22,2.032,2.575,0,.884-7.059,19.876-17.309,19.876a13.92,13.92,0,0,1-5.845-1.419,11.853,11.853,0,0,0-5.2-1.253,13.382,13.382,0,0,0-4.12,1.114,20.178,20.178,0,0,1-7.146,1.667Z" transform="translate(0 -101.279)"/><path class="a" d="M268.755,0c.267,9.626-6.617,16.3-13.493,15.885C254.129,8.2,262.137,0,268.755,0Z" transform="translate(-179.562)"/></g></svg>