<svg xmlns="http://www.w3.org/2000/svg" width="155" height="155" viewBox="0 0 155 155"><defs><style>.a{fill:#f3f2f2;}.b{fill:#ffb000;}.c{fill:#fff;}</style></defs><g transform="translate(-376 -1513)"><circle class="a" cx="77.5" cy="77.5" r="77.5" transform="translate(376 1513)"/><g transform="translate(419 1556.792)"><g transform="translate(0)"><path class="b" d="M154.386,126.1v26.748H114.35V126.1Z" transform="translate(-96.219 -106.107)"/><path d="M109.708,151.2a9.552,9.552,0,0,1-.51,1.246,3.732,3.732,0,0,1-3.133,1.949c-.138.01-.276.01-.415.01H53.02a3.848,3.848,0,0,1-3.653-5.576q3.044-6.521,6.049-13.063a3.22,3.22,0,0,0,.285-1.3q.024-13.559.013-27.111a3.6,3.6,0,0,1,3.964-3.975h39.28c2.568,0,3.986,1.427,3.986,4.013q0,13.53.014,27.056a3.362,3.362,0,0,0,.3,1.354c1.956,4.281,3.94,8.535,5.911,12.8.2.425.358.864.536,1.3ZM99.357,106.982H59.321V133.73H99.357ZM69.46,150.85c.087-.257.171-.5.247-.737q.832-2.656,1.663-5.313a1.841,1.841,0,0,1,2.072-1.544H85.189a1.854,1.854,0,0,1,2.107,1.576q.595,1.891,1.184,3.786c.235.745.476,1.489.713,2.232h16.436c.545,0,.606-.121.355-.663-1.923-4.157-3.856-8.309-5.766-12.473a.618.618,0,0,0-.68-.395q-20.2.01-40.4,0a.694.694,0,0,0-.74.49q-2.817,6.136-5.67,12.256c-.344.744-.317.793.506.793H69.46Zm15.98-.027c-.423-1.36-.834-2.673-1.243-3.989H74.462l-1.245,3.989Z" transform="translate(-41.19 -86.99)"/><path class="c" d="M88.437,330.938H72.218c-.818,0-.85-.049-.506-.793q2.836-6.126,5.67-12.256a.69.69,0,0,1,.74-.49q20.2.017,40.4,0a.62.62,0,0,1,.68.395c1.91,4.163,3.843,8.316,5.766,12.473.251.542.19.663-.355.663H108.174q-.357-1.115-.713-2.232c-.4-1.268-.793-2.526-1.184-3.786a1.854,1.854,0,0,0-2.107-1.576H92.42a1.841,1.841,0,0,0-2.072,1.544q-.834,2.656-1.663,5.313C88.608,330.442,88.524,330.681,88.437,330.938Z" transform="translate(-60.167 -267.078)"/><path class="c" d="M214.222,381.449H202l1.243-3.989h9.735C213.388,378.776,213.8,380.082,214.222,381.449Z" transform="translate(-169.973 -317.615)"/><path d="M20.162,0a3.737,3.737,0,0,1,1.585.793,3.012,3.012,0,0,1,.92,2.25V36.811a2.881,2.881,0,0,1-1.658,2.854,3.288,3.288,0,0,1-1.354.3q-8.316.029-16.633.01A2.916,2.916,0,0,1,.01,36.849V8.351c0-1.6.046-3.2-.011-4.8A3.127,3.127,0,0,1,2.51,0Zm.3,4.945H2.223V30.718H20.465ZM11.376,1.774h-3.9c-.488,0-.663.182-.666.687s.184.71.648.71h7.769c.465,0,.648-.211.645-.717s-.176-.683-.634-.683l-3.861,0ZM11.33,33.4a1.847,1.847,0,1,0,1.864,1.847A1.847,1.847,0,0,0,11.33,33.4Z" transform="translate(0.006)"/><path class="b" d="M32.292,31.19V56.963H14.05V31.19Z" transform="translate(-11.822 -26.245)"/><path class="c" d="M47.563,11.2h3.862c.452,0,.625.192.634.683s-.181.712-.656.712H43.634c-.455,0-.634-.2-.634-.709s.178-.685.666-.687Z" transform="translate(-36.182 -9.424)"/><path class="c" d="M61.662,210.7a1.853,1.853,0,1,1-1.312.546,1.847,1.847,0,0,1,1.312-.546Z" transform="translate(-50.326 -177.294)"/><path d="M177.486,191.38c-.07-.024-.124-.038-.173-.059q-4.006-1.744-8.016-3.472a.238.238,0,0,1-.178-.262c.009-.564,0-1.129,0-1.693a.192.192,0,0,1,.136-.211l8.1-3.509c.033-.014.07-.025.124-.044,0,.065.011.119.011.171v2.017a.219.219,0,0,1-.17.246q-2.713,1.037-5.422,2.086c-.065.024-.128.052-.225.092l1.308.517c1.443.568,2.884,1.138,4.328,1.7a.228.228,0,0,1,.181.257v1.96A1.3,1.3,0,0,1,177.486,191.38Z" transform="translate(-142.303 -153.254)"/><path d="M261.792,191.568v-2.174a.22.22,0,0,1,.171-.246q2.73-1.065,5.46-2.142c.051-.019.1-.043.19-.082l-1.162-.452q-2.251-.866-4.5-1.738a.206.206,0,0,1-.159-.228c.008-.717,0-1.427,0-2.177l.38.159q3.914,1.692,7.829,3.372a.228.228,0,0,1,.167.252c-.008.557,0,1.11,0,1.673a.184.184,0,0,1-.117.208q-4.083,1.771-8.165,3.548A.871.871,0,0,1,261.792,191.568Z" transform="translate(-220.282 -153.422)"/><path d="M231.77,171.167c.634.016.942.371.807.994-.227,1.045-.484,2.085-.736,3.123q-.907,3.748-1.825,7.493a3.537,3.537,0,0,1-.159.544.835.835,0,0,1-1.081.415.656.656,0,0,1-.5-.793,2.451,2.451,0,0,1,.055-.357q.425-1.812.858-3.623.813-3.369,1.635-6.738a4.663,4.663,0,0,1,.159-.525A.685.685,0,0,1,231.77,171.167Z" transform="translate(-192.078 -144.028)"/><path d="M28.336,72.38c0-1.119.01-2.239,0-3.358a1.008,1.008,0,0,1,.564-.975q2.963-1.684,5.914-3.383a.977.977,0,0,1,1.064,0q2.971,1.709,5.949,3.409a.969.969,0,0,1,.534.92v6.787a.973.973,0,0,1-.533.921Q38.85,78.4,35.879,80.1a.977.977,0,0,1-1.064,0q-2.968-1.723-5.947-3.409a.969.969,0,0,1-.536-.92C28.342,74.643,28.336,73.511,28.336,72.38Zm1.754-2c0,1.647,0,3.226.011,4.806a.517.517,0,0,0,.254.335c1.037.607,2.083,1.2,3.127,1.8.317.179.634.355.989.56V73.024a.317.317,0,0,0-.146-.219C32.932,72,31.541,71.212,30.089,70.381Zm6.134,7.452a.712.712,0,0,0,.133-.035c1.36-.777,2.722-1.549,4.075-2.34a.5.5,0,0,0,.159-.385c.013-1.47,0-2.941,0-4.411a2.13,2.13,0,0,0-.014-.279c-1.436.821-2.828,1.612-4.209,2.419a.476.476,0,0,0-.159.358c-.013.851,0,1.7,0,2.553Zm3.471-8.945a1.669,1.669,0,0,0-.159-.116c-1.329-.759-2.656-1.524-3.994-2.267a.544.544,0,0,0-.447.033q-1.9,1.065-3.8,2.169c-.089.049-.17.113-.284.19,1.427.813,2.806,1.6,4.192,2.378a.357.357,0,0,0,.293,0C36.878,70.5,38.267,69.7,39.694,68.887Z" transform="translate(-23.838 -54.279)"/><path class="b" d="M39.414,101.56c1.452.831,2.843,1.624,4.228,2.424a.317.317,0,0,1,.146.219v4.853c-.363-.2-.677-.381-.989-.56-1.043-.6-2.09-1.189-3.127-1.8a.517.517,0,0,1-.254-.335C39.409,104.786,39.414,103.215,39.414,101.56Z" transform="translate(-33.163 -85.458)"/><path class="b" d="M78.11,109.06v-4.672a.476.476,0,0,1,.159-.358c1.381-.807,2.773-1.6,4.209-2.419,0,.124.014.2.014.279V106.3a.5.5,0,0,1-.159.385c-1.352.793-2.714,1.563-4.075,2.34A.711.711,0,0,1,78.11,109.06Z" transform="translate(-65.725 -85.5)"/><path class="b" d="M53.922,79.368c-1.427.817-2.811,1.608-4.2,2.389a.357.357,0,0,1-.293,0c-1.386-.782-2.765-1.573-4.192-2.378.114-.078.2-.141.284-.19,1.268-.725,2.537-1.451,3.805-2.161a.544.544,0,0,1,.447-.033c1.33.734,2.657,1.5,3.987,2.258C53.8,79.276,53.835,79.306,53.922,79.368Z" transform="translate(-38.066 -64.76)"/></g></g></g></svg>