<svg xmlns="http://www.w3.org/2000/svg" width="83.437" height="71.718" viewBox="0 0 83.437 71.718"><defs><style>.a{fill:#fff;}.b{fill:#ffb000;}</style></defs><g transform="translate(-729.281 -2130.05)"><g transform="translate(729.281 2133.768)"><path class="a" d="M34,0A34,34,0,1,1,0,34,34,34,0,0,1,34,0Z"/></g><g transform="translate(753.281 2130.03)"><circle class="b" cx="13.318" cy="13.318" r="13.318" transform="translate(16.949 20.105)"/><path d="M63.367,30.225A5.225,5.225,0,0,0,58.142,25H9.155A5.225,5.225,0,0,0,3.93,30.225V72.681a5.225,5.225,0,0,0,5.225,5.225H58.142a5.225,5.225,0,0,0,5.225-5.225Zm-4.9,45.068H9.482a3.2,3.2,0,0,1-2.939-2.939V41.982H60.755V72.354C60.755,73.778,59.906,75.293,58.469,75.293ZM9.482,27.613H58.469a2.09,2.09,0,0,1,2.286,1.875,2.163,2.163,0,0,1,0,.411v9.471H6.543V29.886C6.543,28.449,8.045,27.613,9.482,27.613Z" transform="translate(-3.93 -24.98)"/><path d="M28.28,39.379a4.043,4.043,0,1,0-2.865-1.184A4.05,4.05,0,0,0,28.28,39.379Zm0-5.487a1.437,1.437,0,1,1-1.437,1.437,1.437,1.437,0,0,1,1.437-1.437Z" transform="translate(-10.971 -27.158)"/><path d="M41.78,39.379a4.043,4.043,0,1,0-2.865-1.184A4.05,4.05,0,0,0,41.78,39.379Zm0-5.487a1.437,1.437,0,1,1-1.437,1.437,1.437,1.437,0,0,1,1.437-1.437Z" transform="translate(-15.653 -27.158)"/><path d="M14.78,39.379a4.043,4.043,0,1,0-2.865-1.184,4.05,4.05,0,0,0,2.865,1.184Zm0-5.487a1.437,1.437,0,1,1-1.437,1.437,1.437,1.437,0,0,1,1.437-1.437Z" transform="translate(-6.289 -27.158)"/><path d="M42.48,80.725a11.757,11.757,0,1,0-8.321-3.416A11.757,11.757,0,0,0,42.48,80.725Zm9.66-2.11a13.664,13.664,0,1,1,4-9.66,13.664,13.664,0,0,1-4,9.66Z" transform="translate(-12.559 -35.487)"/><path d="M29.787,76.612a.947.947,0,0,1,0-1.894l25.408-.1a.947.947,0,0,1,0,1.894Z" transform="translate(-12.57 -42.19)"/><path d="M48.21,56.315a.954.954,0,0,1,1.9,0l.1,25.414a.954.954,0,0,1-1.9,0Z" transform="translate(-19.288 -35.538)"/><path d="M45.86,80.734c1.365,0,2.658-1.221,3.645-3.194a19.673,19.673,0,0,0,1.75-8.563A19.64,19.64,0,0,0,49.5,60.421c-.986-1.959-2.28-3.194-3.645-3.194s-2.658,1.221-3.645,3.194a19.641,19.641,0,0,0-1.757,8.556,19.673,19.673,0,0,0,1.757,8.563c.986,1.959,2.28,3.194,3.645,3.194ZM51.2,78.39C49.9,81,48,82.635,45.86,82.635s-4.03-1.62-5.343-4.246a21.672,21.672,0,0,1-1.959-9.412,21.639,21.639,0,0,1,1.959-9.406c1.306-2.613,3.2-4.252,5.343-4.252s4.03,1.626,5.343,4.252a21.554,21.554,0,0,1,1.959,9.406A21.554,21.554,0,0,1,51.2,78.39Z" transform="translate(-15.939 -35.496)"/><path d="M32.605,67.005a.954.954,0,0,1,0-1.9L54.388,65a.954.954,0,0,1,0,1.9L32.6,67Z" transform="translate(-13.572 -38.854)"/><path d="M32.605,86.469a.954.954,0,0,1,0-1.9l21.8-.1a.954.954,0,0,1,0,1.9l-21.789.1Z" transform="translate(-13.572 -45.607)"/></g></g></svg>