<svg xmlns="http://www.w3.org/2000/svg" width="468.117" height="335.58" viewBox="0 0 468.117 335.58"><defs><style>.a{fill:#f8a492;}.b{fill:#ffb000;}.c{fill:#fe875e;}.d{fill:#f48c7f;}.e{fill:#f7a491;}.f{fill:#f47458;}.g{fill:#fff;}</style></defs><g transform="translate(0.001 0.05)"><path class="a" d="M1880.291,1246.734c3.538.573,3.329,1.151,3.784,1.2.54.072,6.927-3.131,6.927-3.131s18.889-9.323,19.891-9.875l13.634-17.153,10.508,4.846s-15.335,18.237-16.305,19.041-28.056,10.3-30.409,11.216c0,0-2.375,2.168-3.911,3.483a15.985,15.985,0,0,1-4.094,2.129,17.252,17.252,0,0,1-4.164,1.46c-2.062.448-.342-.963-.342-.963s3.651-1.542,3.471-1.818c-.137-.217-2.079.749-4.357,1.269-.585.135-1.163.265-1.686.378-1.4.3-2.014-.5-.609-1.052a13.6,13.6,0,0,1,1.956-.633,11.476,11.476,0,0,0,1.794-.706,14.953,14.953,0,0,0,1.845-.74c-.043-.036.1-.289-.53-.168-.751.149-2.271.826-3.4.964-.638.072-1.963.308-1.963.308s-2.343.224-2.36-.106c-.034-.723,1.409-1.118,2.3-1.1a9.057,9.057,0,0,1,1.961-.482s2.717-1.072,2.56-1.474a19.368,19.368,0,0,0-3.456.2c-1.845.128-3.182.128-3.28-.241-.157-.568,1.312-.783,1.312-.783s1.3-.19,1.72-.287c.5-.113,1.956-.571,1.956-.571s5-1.835,4.817-2.2-1.007-1.142-1.358-1.139-.983.354-1.337.354-1.11-.065-1.163-.508,1.905-1.363,1.905-1.363A5.75,5.75,0,0,1,1880.291,1246.734Z" transform="translate(-1525.806 -1042.295)"/><path class="b" d="M2057.1,1200.869s3.4,3.09,4.817,4.094c1.175.845,6.907,3.613,6.907,3.613s5.7-8.733,8.189-13.111c3.025-5.313,5.12-13.213,4.405-13.427a10.5,10.5,0,0,0-7.317.2C2065.284,1186.289,2057.1,1200.869,2057.1,1200.869Z" transform="translate(-1667.869 -1014.734)"/><path class="c" d="M1900.052,1542.468a2.073,2.073,0,0,1-2.365-.908C1897.594,1542.6,1899.171,1543.111,1900.052,1542.468Z" transform="translate(-1546.847 -1288.094)"/><path d="M490.124,1086.867a29.05,29.05,0,0,0-2.63-13.943c-1.833-3.827-6.363-6-10.494-6-13.121-.017-14.79,17.391-23.14,24.109-2.553,2.052-5.4,3.721-7.82,5.934-8.911,8.172-4.9,23.3,3.288,30.46,5.682,4.971,14.612,7.8,21.613,3.911a22.094,22.094,0,0,0,8.408-9.1c2.806-5.243,4.615-11.293,6.609-16.881C488.086,1099.408,489.866,1093.215,490.124,1086.867Z" transform="translate(-440.99 -927.769)"/><path class="b" d="M623.949,1207.217c-4.094-12.433-9.509-12.237-9.509-12.237l4.371,26.471c2.531-.691,5.826-2.233,8.355-2.945A113.845,113.845,0,0,0,623.949,1207.217Z" transform="translate(-572.666 -1024.985)"/><path class="d" d="M658.438,1322.373l-14.981-11.428s-1.508-10.662-3.526-20.125c-2.529.723-4.817,2.7-7.341,3.389l3.81,21.194,19.636,10.142,5.539,7.129,1.262-7.319Z" transform="translate(-586.445 -1097.744)"/><path d="M783.883,1112.105A20.435,20.435,0,0,1,794,1114.774a11,11,0,0,0,1.223.59c9.114,3.743,19.085-3.189,19.085-13.042v-48.451H765.865c-9.853,0-16.785-9.973-13.042-19.085a10.846,10.846,0,0,1,.59-1.226,20.538,20.538,0,1,0-35.9-.253,10.818,10.818,0,0,1,.583,1.243c3.714,9.263-3.328,19.321-13.307,19.321H656.76v110.4a47.154,47.154,0,0,0,47.155,47.153h110.4v-48.289c0-9.9-10-16.876-19.174-13.145a11.012,11.012,0,0,0-1.228.585,20.544,20.544,0,1,1-10.031-38.47Z" transform="translate(-604.794 -879.171)"/><path class="b" d="M1269.451,1240.291a20.394,20.394,0,0,1,3.131-9.99,11.362,11.362,0,0,0,.645-1.2c4.164-8.928-2.293-19.212-12.134-19.672l-48.41-2.264-2.261,48.41c-.46,9.841-10.747,16.3-19.675,12.134a11.369,11.369,0,0,1-1.2-.645,20.545,20.545,0,1,0-1.932,35.842,11.66,11.66,0,0,1,1.272-.522c9.426-3.278,19.142,4.227,18.677,14.2l-2.245,47.981,110.281,5.156a47.165,47.165,0,0,0,49.306-44.9l5.154-110.281-48.244-2.254c-9.889-.462-17.324,9.2-14.027,18.545a11.722,11.722,0,0,0,.527,1.255,20.544,20.544,0,1,1-38.9,8.225Z" transform="translate(-985.351 -1034.232)"/><path class="b" d="M735.121,618.852a20.411,20.411,0,0,1-2.168,10.246,10.6,10.6,0,0,0-.527,1.252c-3.28,9.289,4.143,18.9,13.969,18.405l48.391-2.432-2.433-48.391c-.482-9.839,9.116-17.264,18.405-13.984a10.6,10.6,0,0,1,1.253.527,20.557,20.557,0,1,0-1.525-35.876,10.925,10.925,0,0,1-1.2.646c-9.063,4.174-19.46-2.356-19.961-12.322l-2.409-47.974L676.636,494.5a47.154,47.154,0,0,0-44.727,49.462l5.54,110.261,48.229-2.425c9.889-.5,16.353-10.838,12.165-19.81a10.893,10.893,0,0,0-.646-1.2,20.544,20.544,0,1,1,37.919-11.951Z" transform="translate(-585.882 -489)"/><path d="M1375.946,604.329a20.452,20.452,0,0,1-10.128-2.669,10.948,10.948,0,0,0-1.224-.59c-9.111-3.743-19.085,3.189-19.085,13.042v48.451h48.453c9.851,0,16.782,9.973,13.039,19.087a10.958,10.958,0,0,1-.59,1.224,20.542,20.542,0,1,0,35.893.253,11.235,11.235,0,0,1-.583-1.243c-3.714-9.263,3.328-19.321,13.309-19.321h48.034v-110.4A47.167,47.167,0,0,0,1455.911,505h-110.4v48.29c0,9.9,10,16.876,19.174,13.145a11.493,11.493,0,0,0,1.23-.585,20.542,20.542,0,1,1,10.031,38.47Z" transform="translate(-1127.662 -501.184)"/><path class="e" d="M458.333,1788.34s-.925,6.426-2.517,8.5a16.538,16.538,0,0,0-2.148,2.835c-.995,1.958-.446,4.872.289,6.479.378.824-.024.821.833,1.086a5.269,5.269,0,0,0,6.332-2.979,15.064,15.064,0,0,0,1.243-5.477c.272-5.833,2.083-8.8,2.083-8.8Z" transform="translate(-450.206 -1475.438)"/><path class="e" d="M586.932,1800.54s.571,7.247.108,9.6c-.241,1.26-1.63,3.853-1,5.043a3.162,3.162,0,0,0,1.358,1.484l16.423.265c.893.014.3-.564-.419-1.1a33.153,33.153,0,0,0-5.9-3.273c-.241-.118-1.142-.689-1.467-.886a11.5,11.5,0,0,1-2.348-2.081c-1.178-1.315-1.281-7.707-1.281-7.707Z" transform="translate(-550.984 -1484.7)"/><path d="M594.137,1394.9s2.069,11.765.723,19.477-7.876,79.209-7.876,79.209l-7.242.41s-1.517-29.865-1.245-34.02,2.409-11.1,2.409-11.1l-.723-24.114,9.138-31.676Z" transform="translate(-545.355 -1175.374)"/><path d="M491.27,1381.921s-5.7,8.6-7.059,15.725,1,28.99-1.616,38.331c-1.414,5.058-6.773,12.849-7.587,19.376S471,1478.974,471,1478.974l7.237,1.445,16.823-42.7,13.2-38.591,3.372-19.875Z" transform="translate(-463.773 -1164.875)"/><path class="b" d="M539.308,1187.031s-7.55-.482-10.537,2.779,6.626,29.08,7.17,33.237-2.77,15.2-2.77,15.2,17.738,3.577,22.806.214c0,0,.544-29.865,0-32.832s-5.058-15.031-6.154-16.219S539.308,1187.031,539.308,1187.031Z" transform="translate(-507.194 -1018.933)"/><path class="e" d="M576.039,1144.589s-.039.224-.108.6c-.337,1.819-1.635,7.856-2.51,9.513-1.06,2.006,3.613,8.4,8.129,7.62,1.341-.241-1.134-5.876-1.014-6.474.226-1.144.537-2.7.853-4.306.178-.9.359-1.818.527-2.678.482-2.447.874-4.446.874-4.446Z" transform="translate(-541.411 -986.603)"/><path class="f" d="M583.644,1145.191c.07-.378.108-.6.108-.6l6.744-.169s-.393,2-.874,4.446c-.169.855-.347,1.765-.525,2.664a6.327,6.327,0,0,1-3.225-1.621,8.541,8.541,0,0,1-2.442-3.639C583.521,1145.841,583.591,1145.473,583.644,1145.191Z" transform="translate(-549.125 -986.603)"/><path class="e" d="M580.308,1081.193a6.078,6.078,0,0,0-5.178,2.218c-1.994,2.587-4.145,10.583.812,14.932s9.851-.573,10.578-5.78S587.526,1081.005,580.308,1081.193Z" transform="translate(-541.135 -938.59)"/><path class="e" d="M626.958,1119.1c-.593,1.154-1.585,1.792-2.218,1.426s-.667-1.594-.077-2.748,1.585-1.789,2.218-1.426S627.555,1117.944,626.958,1119.1Z" transform="translate(-580.107 -965.214)"/><path d="M571.277,1077.451s-4.253,7.606-7.3,7.948-3.442,4.408-3.442,4.408,1.089-9.311,4.094-11.108A11.2,11.2,0,0,1,571.277,1077.451Z" transform="translate(-531.748 -935.703)"/><path d="M459.858,1838.634a8.08,8.08,0,0,1-7.936-3.323c-1,1.96-1.493,4.889-.754,6.5.648,1.418,2.548,1.378,4.041,1.445a3.9,3.9,0,0,0,3.589-2.2A13.248,13.248,0,0,0,459.858,1838.634Z" transform="translate(-448.448 -1511.096)"/><path d="M595.92,1845.618a14.825,14.825,0,0,1-9.35-.368c-.465,1.315-1.079,2.967-.751,3.918.4,1.166.963,1.428,1.467,1.445,3.967.1,14.533.241,17.558.284a.5.5,0,0,0,.383-.814C604.475,1849.183,596.243,1845.816,595.92,1845.618Z" transform="translate(-550.869 -1518.641)"/><path class="e" d="M568.116,1111.908c.241,1.351-.241,2.589-1.11,2.767s-1.761-.776-2.006-2.127.241-2.589,1.11-2.765S567.87,1110.557,568.116,1111.908Z" transform="translate(-535.085 -960.293)"/><path class="g" d="M598.769,1138.09l3.839.173a1.685,1.685,0,0,1-1.845,1.426C598.7,1139.656,598.769,1138.09,598.769,1138.09Z" transform="translate(-560.77 -981.798)"/><path class="e" d="M2259.5,1817.67s.378,6.683.381,6.7c.137.85.684,2.945.684,3.719,0,2.89-12.859-2.461-9.978-3.745.262-.118,1.628-1,1.715-1.982.13-1.522.467-4.6.467-4.6Z" transform="translate(-1814.434 -1497.704)"/><path d="M2217.8,1845.111a46,46,0,0,0,4.576,1.108c1.556.221,3.584-1.645,4.677-1.142,1.2.554,1.159,5.551,1.159,5.551s-16.192,1.421-20.744-.051C2205.66,1850,2211.626,1847.175,2217.8,1845.111Z" transform="translate(-1781.771 -1518.445)"/><path class="e" d="M2348.418,1816.23s.378,6.686.38,6.7c.137.85.684,2.946.684,3.719,0,2.89-12.859-2.461-9.978-3.745.26-.118,2.032-1.652,2.119-2.649.132-1.52.063-3.938.063-3.938Z" transform="translate(-1881.938 -1496.611)"/><path d="M2307.319,1843.439a46.483,46.483,0,0,0,4.576,1.11c1.556.224,3.586-1.645,4.68-1.141,1.2.554,1.252,5.539,1.252,5.539s-16.076.66-20.84-.048C2295.094,1848.629,2301.139,1845.505,2307.319,1843.439Z" transform="translate(-1849.712 -1517.177)"/><path d="M2308.783,1372s2.179,11.276,1.291,19.826-.964,38.928-.964,38.928l4.094,48.583-8.75.2s-9.535-48.578-9.359-47.331-3.2-34.2-3.2-34.2l11.368-27.078Z" transform="translate(-1846.118 -1158.559)"/><path d="M2269.788,1345.12s9.875,10.4,6.2,21.758c-1.476,4.576-15.236,48.152-15.414,51.714s-4.653,42.943-4.653,42.943l-9.35-.282-2.023-43.783,2.671-58.99,5.677-9.949Z" transform="translate(-1810.172 -1138.966)"/><path class="b" d="M2099.277,1161.073c3.235-3.613,10.27-8.74,10.27-8.74s4.193-3.582,5.9-4.172c2.515-.867,6.823-3.179,13.054,6.262,4.46,6.758,32.6,41.753,37.218,42.931l-30.163,14.431c-.826-6.893-15.734-19.913-17.88-22.343C2112.883,1184.014,2096.218,1164.489,2099.277,1161.073Z" transform="translate(-1699.605 -988.767)"/><path class="e" d="M2091.414,1143.7l9.393,5.5s.266,8.02-2.808,10.115c-2.577,1.749-4.541-2.447-4.541-2.447s-3.492-4.841-6.146-6.351S2091.414,1143.7,2091.414,1143.7Z" transform="translate(-1690.335 -986.056)"/><path class="f" d="M2093.005,1147.238a19.649,19.649,0,0,1-2.439,6.084,15.308,15.308,0,0,0-3.235-2.808c-1.226-.7-.445-2.2.747-3.613,1.686-1.756,3.35-3.191,3.35-3.191l1.807,1.057A8.5,8.5,0,0,1,2093.005,1147.238Z" transform="translate(-1690.349 -986.064)"/><path class="e" d="M2053.49,1085.174c.159-.2,7.883,9.419,6.929,13.928s-5.621,8.627-8.865,7.5c-3.591-1.252-10.265-12.57-7.871-18.063S2053.49,1085.174,2053.49,1085.174Z" transform="translate(-1657.299 -941.317)"/><path d="M2038.01,1068.659a14.628,14.628,0,0,1,12.962-.262c5.058,2.649,6.194,9.289,4.617,13.343s.241,6.346.241,6.346l-2.678-1.563a12.749,12.749,0,0,1-1.768-4.386c-.205-1.946-3.04-1.6-4.427-2.481-1.065-.679-2.428-2.89-4.152-4.032,0,0-4.335-.535-6.481.665C2032.668,1078.324,2033.186,1071.339,2038.01,1068.659Z" transform="translate(-1650.281 -927.833)"/><path class="e" d="M2097,1118.105c-.024,1.445.658,2.623,1.522,2.65s1.587-1.144,1.614-2.587-.657-2.623-1.522-2.649S2097.017,1116.663,2097,1118.105Z" transform="translate(-1698.157 -964.662)"/><path class="g" d="M2064.13,1148.366l4.094-3.056a2.258,2.258,0,0,1-.677,3.049C2065.4,1150.074,2064.13,1148.366,2064.13,1148.366Z" transform="translate(-1673.205 -987.279)"/><path class="a" d="M1984.444,1266.573c1.024-1.5,1.469-3.656,2.89-5.3a12.537,12.537,0,0,1,2.093-1.8c6.814-3.986,24.566-14.26,25.253-15.06.819-.944,12.931-21.069,12.931-21.069l-10.879-2.466-10.63,18.786c-.889.706-17.765,13.179-17.765,13.179s-3.357,2.623-5.19,3.854a14.415,14.415,0,0,1-2.613,1.166,16.707,16.707,0,0,0-3.259,1.618c-.443.39-1.33,1.226-1.857,1.734s-1.168,1.084-1.414,1.387a3.833,3.833,0,0,1-.963.609.626.626,0,0,0,.1,1.163,2.72,2.72,0,0,0,1.647-.38c1.221-.573,2.714-2.124,2.794-1.927s-1.445,3.509-1.585,3.9a46.275,46.275,0,0,0-1.98,5.123c-.089.862.431,1.062.816.747.335-.27,3.131-5.438,3.131-5.438s.359-.66.5-.282-2.394,5.075-2.649,5.845-.051,1.4.662,1.132c.867-.33,3.261-5.508,3.261-5.508s.313-.646.525-.422-2.009,4.186-2.033,4.641a.6.6,0,0,0,.987.525c.706-.448,2.8-5.091,2.8-5.091s.258-.308.34-.091-1.573,3.728-1.445,4.241a.412.412,0,0,0,.467.347h.015C1982.283,1271.706,1983.418,1268.069,1984.444,1266.573Z" transform="translate(-1603.789 -1044.648)"/><path class="b" d="M2144.286,1177.386s-3.543-1.127-5.814-2.168c-1.522-.7-8.162-4-8.162-4s2.864-12.076,4.8-16.416c7.1-15.934,15.173-4.944,16.267-2.384C2153.821,1158.148,2144.286,1177.386,2144.286,1177.386Z" transform="translate(-1723.446 -988.062)"/><path class="e" d="M565.885,1234.543c.272-.778-3.509-1.407-3.709-2.192s4.774-.848,4.952-1.539c.328-1.274-5.453-.27-5.34-.865s6.021-1.927,5.385-2.945-5.985,2.018-6.146,1.325,5.226-2.377,5.13-3.9c-.053-.812-8.844,4.049-9.875,3.613s1.1-4.258.284-4.817-3.131,7.755-3.7,8.035-12.442,7.064-16.662,8.133c-.513-1.416-1.623-3.326-2.076-4.663-2.37,1.686-4.13,2.534-6.577,4.073,1.773,4.441,4.3,9.306,5.539,9.875,3.762,1.686,18.3-10.356,21.211-12.43s4.576-1.395,6.534-2.047S565.616,1235.318,565.885,1234.543Z" transform="translate(-506.704 -1046.408)"/><path class="b" d="M516.8,1216.518s-3.256-14.378-2.69-18.545,5.523-8.056,8.957-6.616,4.99,21.515,4.99,21.515Z" transform="translate(-496.452 -1022.003)"/></g></svg>