<svg xmlns="http://www.w3.org/2000/svg" width="98.508" height="98.507" viewBox="0 0 98.508 98.507"><defs><style>.a{fill:#ebebeb;opacity:0.2;}.b{fill:#ffb000;}</style></defs><g transform="translate(-12.381 -6.484)"><ellipse class="a" cx="49.254" cy="49.254" rx="49.254" ry="49.254" transform="translate(12.381 6.484)"/><g transform="translate(-52.867 -58.369)"><path class="b" d="M126.111,114.084V134.1a4.619,4.619,0,0,1-3.4,4.617,5.418,5.418,0,0,1-1.385.168q-13.009.015-26.018,0a4.711,4.711,0,0,1-4.809-4.806V94.182a4.638,4.638,0,0,1,3.849-4.789,5.062,5.062,0,0,1,.972-.068h26.106a4.468,4.468,0,0,1,4.617,3.788,6.561,6.561,0,0,1,.07,1.178Q126.115,104.19,126.111,114.084Zm-17.8-10.83H98.617a4.92,4.92,0,0,0-.569.022,1.434,1.434,0,0,0-1.358,1.458,1.458,1.458,0,0,0,1.246,1.6,3.158,3.158,0,0,0,.522.036h19.681a2.914,2.914,0,0,0,.651-.066,1.324,1.324,0,0,0,1.062-1.042,1.517,1.517,0,0,0-1.643-1.995Q113.264,103.25,108.31,103.255Zm-.024-3.1h10.13a1.4,1.4,0,0,0,1.458-1.1,1.5,1.5,0,0,0-1.558-1.985H98A1.4,1.4,0,0,0,96.766,98.1a1.508,1.508,0,0,0,1.521,2.048c3.331.012,6.667.007,10,.007Zm.034,12.392h9.736a5.6,5.6,0,0,0,.571-.017,1.378,1.378,0,0,0,1.237-1.072,1.518,1.518,0,0,0-1.592-2H98.054a1.419,1.419,0,0,0-1.285,1.025,1.509,1.509,0,0,0,1.553,2.056C101.655,112.549,104.986,112.544,108.32,112.544Zm0,3.115H98.8c-.262,0-.527,0-.79.017a1.366,1.366,0,0,0-1.242,1.011,1.529,1.529,0,0,0,1.6,2.065h19.868a2.8,2.8,0,0,0,.35-.012,1.419,1.419,0,0,0,1.281-1.089,1.5,1.5,0,0,0-1.55-1.99c-3.334-.007-6.665,0-10,0Zm-.306,6.181H98.537a3.647,3.647,0,0,0-.566.027,1.545,1.545,0,0,0,.09,3.059c.173.017.35.017.525.017H117.4a3.476,3.476,0,0,0,.656-.041,1.458,1.458,0,0,0,1.188-1.1,1.5,1.5,0,0,0-1.584-1.966q-4.828,0-9.651,0Zm-5.1,6.211h0c-1.594,0-3.185-.012-4.779,0a1.415,1.415,0,0,0-1.436,1.5,1.441,1.441,0,0,0,1.419,1.567q4.779.022,9.556,0a1.375,1.375,0,0,0,1.351-1.05,1.51,1.51,0,0,0-1.509-2.026c-1.54,0-3.074.007-4.607.007Z"/><path class="b" d="M249.932,139.73h9.233c0,.153.022.306.022.462v26.949a2.714,2.714,0,0,1-.3,1.069c-.921,1.973-1.864,3.936-2.8,5.9a2.909,2.909,0,0,1-.255.459,1.477,1.477,0,0,1-2.714-.243q-1.57-3.254-3.117-6.524a1.275,1.275,0,0,1-.087-.51v-27.3A.87.87,0,0,1,249.932,139.73Z" transform="translate(-120.679 -38.159)"/><path class="b" d="M259.006,103.345H249.7a33.6,33.6,0,0,1,.175-4.043,4.555,4.555,0,0,1,4.775-3.676,4.5,4.5,0,0,1,4.344,4.247C259.062,101.008,259.006,102.152,259.006,103.345Z" transform="translate(-120.521 -4.763)"/></g></g></svg>