<svg xmlns="http://www.w3.org/2000/svg" width="96.639" height="70.185" viewBox="0 0 96.639 70.185"><defs><style>.a{fill:#ffb000;}.b{fill:#5d8e33;}.c{fill:#99ca6f;}.d{fill:#f4efed;}.e{fill:#fcc24c;}.f,.h{fill:#cf9106;}.f{opacity:0.2;}.g{fill:#fff;}.h{opacity:0.21;}.i{fill:#f3b936;opacity:0.43;}</style></defs><g transform="translate(-2 -36.491)"><path class="a" d="M112.179,191.725H60.107V187.91a2.848,2.848,0,0,1,2.848-2.848h46.376a2.848,2.848,0,0,1,2.848,2.848Z" transform="translate(-35.824 -91.596)"/><path class="b" d="M183.292,185.061h-3.218a2.848,2.848,0,0,1,2.848,2.848v3.815h3.218v-3.815A2.848,2.848,0,0,0,183.292,185.061Z" transform="translate(-109.785 -91.595)"/><path class="c" d="M62.955,185.061h3.218a2.848,2.848,0,0,0-2.848,2.848v3.815H60.107v-3.815A2.848,2.848,0,0,1,62.955,185.061Z" transform="translate(-35.824 -91.595)"/><path class="a" d="M88.14,172.342h30.572v4.878H88.14Z" transform="translate(-53.106 -83.754)"/><path d="M110.946,191.259H58.874a.767.767,0,0,1-.767-.767v-3.815a3.619,3.619,0,0,1,3.615-3.615H108.1a3.619,3.619,0,0,1,3.615,3.615v3.815A.768.768,0,0,1,110.946,191.259Zm-51.305-1.534h50.538v-3.048A2.084,2.084,0,0,0,108.1,184.6H61.722a2.084,2.084,0,0,0-2.081,2.081Z" transform="translate(-34.591 -90.363)"/><path d="M117.479,176.755H86.907a.767.767,0,0,1-.767-.767V171.11a.767.767,0,0,1,.767-.767h30.572a.767.767,0,0,1,.767.767v4.878A.767.767,0,0,1,117.479,176.755Zm-29.8-1.534h29.038v-3.344H87.674Z" transform="translate(-51.873 -82.521)"/><path class="d" d="M100.9,89.821H26.786a2.848,2.848,0,0,1-2.848-2.848V41.339a2.848,2.848,0,0,1,2.848-2.848H100.9a2.848,2.848,0,0,1,2.848,2.848V86.973a2.849,2.849,0,0,1-2.849,2.848Z" transform="translate(-13.525 -1.233)"/><path class="e" d="M102,88.045V79.536l-9.366,1.186v7.323Z" transform="translate(-55.878 -26.538)"/><path class="e" d="M123.865,85.19H136.4V74.9l-12.531,1.587Z" transform="translate(-75.131 -23.683)"/><path class="e" d="M102,108.531H92.636v7.425L102,117.518Z" transform="translate(-55.878 -44.414)"/><path class="e" d="M123.865,108.531v9.237l12.531,2.091V108.531Z" transform="translate(-75.131 -44.414)"/><path class="f" d="M219.461,38.491h-3.218a2.848,2.848,0,0,1,2.848,2.848V86.973a2.848,2.848,0,0,1-2.848,2.848h3.218a2.848,2.848,0,0,0,2.848-2.848V41.339A2.848,2.848,0,0,0,219.461,38.491Z" transform="translate(-132.083 -1.233)"/><path class="g" d="M26.786,89.821H30a2.848,2.848,0,0,1-2.848-2.848V41.339A2.848,2.848,0,0,1,30,38.491H26.786a2.848,2.848,0,0,0-2.848,2.848V86.973a2.848,2.848,0,0,0,2.848,2.848Z" transform="translate(-13.525 -1.233)"/><g transform="translate(9.646 36.491)"><path d="M99.67,89.356H25.553a3.619,3.619,0,0,1-3.615-3.616V40.106a3.619,3.619,0,0,1,3.615-3.615H99.67a3.619,3.619,0,0,1,3.615,3.615V85.74A3.62,3.62,0,0,1,99.67,89.356ZM25.553,38.025a2.084,2.084,0,0,0-2.081,2.081V85.74a2.084,2.084,0,0,0,2.081,2.082H99.67a2.084,2.084,0,0,0,2.081-2.082V40.106a2.084,2.084,0,0,0-2.081-2.081Z" transform="translate(-21.938 -36.491)"/><path d="M29.418,61.136a.767.767,0,0,1-.767-.767v-4.6a.767.767,0,0,1,1.534,0v4.6a.767.767,0,0,1-.767.767Z" transform="translate(-26.077 -47.902)"/><path d="M100.769,87.579H91.4a.767.767,0,0,1-.767-.767V79.489a.767.767,0,0,1,.671-.761l9.365-1.186a.767.767,0,0,1,.864.761v8.509A.767.767,0,0,1,100.769,87.579Zm-8.6-1.534H100V79.174l-7.831.992Z" transform="translate(-64.291 -61.796)"/><path d="M135.163,84.724H122.632a.767.767,0,0,1-.767-.767v-8.7a.767.767,0,0,1,.671-.761l12.531-1.587a.767.767,0,0,1,.864.761V83.956a.768.768,0,0,1-.767.767ZM123.4,83.19h11V74.542l-11,1.392Z" transform="translate(-83.544 -58.941)"/><path d="M100.769,117.053a.778.778,0,0,1-.126-.01l-9.365-1.563a.767.767,0,0,1-.641-.757V107.3a.767.767,0,0,1,.767-.767h9.365a.767.767,0,0,1,.767.767v8.988a.767.767,0,0,1-.767.767Zm-8.6-2.98L100,115.381v-7.315H92.171Z" transform="translate(-64.292 -79.672)"/><path d="M135.163,119.393a.777.777,0,0,1-.126-.01l-12.531-2.092a.767.767,0,0,1-.641-.757V107.3a.767.767,0,0,1,.767-.767h12.531a.767.767,0,0,1,.767.767v11.328a.767.767,0,0,1-.767.767ZM123.4,115.885l11,1.836v-9.655h-11Z" transform="translate(-83.544 -79.672)"/></g><path class="d" d="M28.064,154.217H6.268A2.268,2.268,0,0,1,4,151.949V117.116a2.268,2.268,0,0,1,2.268-2.268h21.8a2.268,2.268,0,0,1,2.268,2.268v34.833A2.269,2.269,0,0,1,28.064,154.217Z" transform="translate(-1.233 -48.308)"/><path class="a" d="M31.017,118.6H20.9a1.588,1.588,0,0,1-1.462-.968l-1.177-2.78H33.656l-1.177,2.78A1.588,1.588,0,0,1,31.017,118.6Z" transform="translate(-10.028 -48.309)"/><path d="M26.831,153.752H5.035A3.038,3.038,0,0,1,2,150.717V115.884a3.038,3.038,0,0,1,3.035-3.035h21.8a3.038,3.038,0,0,1,3.035,3.035v34.833A3.038,3.038,0,0,1,26.831,153.752Zm-21.8-39.369a1.5,1.5,0,0,0-1.5,1.5v34.833a1.5,1.5,0,0,0,1.5,1.5h21.8a1.5,1.5,0,0,0,1.5-1.5V115.884a1.5,1.5,0,0,0-1.5-1.5Z" transform="translate(0 -47.076)"/><path d="M29.785,118.131H19.672a2.35,2.35,0,0,1-2.168-1.436l-1.177-2.78a.767.767,0,0,1,.706-1.066H32.423a.767.767,0,0,1,.706,1.066l-1.177,2.78A2.35,2.35,0,0,1,29.785,118.131ZM18.19,114.382l.726,1.714a.819.819,0,0,0,.755.5H29.785a.82.82,0,0,0,.756-.5l.726-1.714Z" transform="translate(-8.795 -47.075)"/><path class="a" d="M195.649,98.314H165.221a1.763,1.763,0,0,0-1.763,1.763v42.183a1.763,1.763,0,0,0,1.763,1.763h30.428a1.763,1.763,0,0,0,1.763-1.763V100.077a1.763,1.763,0,0,0-1.763-1.763Z" transform="translate(-99.541 -38.115)"/><path class="h" d="M242.606,98.314h-2.984a1.763,1.763,0,0,1,1.763,1.763v42.183a1.763,1.763,0,0,1-1.763,1.763h2.984a1.763,1.763,0,0,0,1.763-1.763V100.077a1.763,1.763,0,0,0-1.763-1.763Z" transform="translate(-146.497 -38.115)"/><path class="i" d="M165.221,98.314H168.2a1.763,1.763,0,0,0-1.763,1.763v42.183a1.763,1.763,0,0,0,1.763,1.763h-2.984a1.763,1.763,0,0,1-1.763-1.763V100.077a1.763,1.763,0,0,1,1.763-1.763Z" transform="translate(-99.541 -38.115)"/><path d="M194.416,143.558H163.988a2.533,2.533,0,0,1-2.53-2.53V98.844a2.533,2.533,0,0,1,2.53-2.53h30.428a2.533,2.533,0,0,1,2.53,2.53v42.183A2.533,2.533,0,0,1,194.416,143.558Zm-30.428-45.71a1,1,0,0,0-1,1v42.183a1,1,0,0,0,1,1h30.428a1,1,0,0,0,1-1V98.844a1,1,0,0,0-1-1Z" transform="translate(-98.308 -36.882)"/><path class="d" d="M172.269,107.8h27.2V143.06h-27.2Z" transform="translate(-104.973 -43.963)"/><path d="M198.233,142.595h-27.2a.767.767,0,0,1-.767-.767V106.569a.767.767,0,0,1,.767-.767h27.2a.767.767,0,0,1,.767.767v35.259A.767.767,0,0,1,198.233,142.595Zm-26.43-1.534h25.663V107.336H171.8Z" transform="translate(-103.74 -42.731)"/><path d="M206.872,206.553a1.41,1.41,0,1,1-1.41-1.41A1.41,1.41,0,0,1,206.872,206.553Z" transform="translate(-124.567 -103.976)"/><path class="a" d="M203.292,154.762h-14.6V151.7a7.3,7.3,0,0,1,14.6,0Z" transform="translate(-115.095 -66.525)"/><path d="M202.059,154.3h-14.6a.767.767,0,0,1-.767-.767v-3.064a8.069,8.069,0,1,1,16.138,0v3.064A.767.767,0,0,1,202.059,154.3Zm-13.837-1.534h13.07v-2.3a6.535,6.535,0,1,0-13.07,0Z" transform="translate(-113.862 -65.292)"/><path d="M189.668,143.713a.764.764,0,0,1-.542-.225l-2.735-2.735a.767.767,0,1,1,1.085-1.085l2.735,2.735a.767.767,0,0,1-.543,1.309Z" transform="translate(-113.541 -63.472)"/><path d="M218.926,143.713a.767.767,0,0,1-.543-1.309l2.735-2.735a.767.767,0,1,1,1.085,1.085l-2.735,2.735A.763.763,0,0,1,218.926,143.713Z" transform="translate(-133.264 -63.472)"/><path d="M198.073,159.888a.767.767,0,0,1-.767-.767v-1.448a.767.767,0,0,1,1.534,0v1.448A.767.767,0,0,1,198.073,159.888Z" transform="translate(-120.409 -74.237)"/><path d="M214.919,159.888a.767.767,0,0,1-.767-.767v-1.448a.767.767,0,0,1,1.534,0v1.448A.767.767,0,0,1,214.919,159.888Z" transform="translate(-130.794 -74.237)"/><path class="a" d="M31.259,162.506a3.273,3.273,0,0,1,2.033-3.029c-.914-1.513-2.672-2.2-5.595-.974a1.473,1.473,0,0,1-1.136,0c-7.1-2.977-7.336,5.316-5.268,9.379,1.643,3.228,4.241,2.32,5.329,1.746a1.083,1.083,0,0,1,1.012,0c1.088.574,3.686,1.482,5.329-1.746a10.221,10.221,0,0,0,.793-2.2,3.273,3.273,0,0,1-2.5-3.178Z" transform="translate(-11.198 -74.832)"/><path class="a" d="M38.411,144.009a3.349,3.349,0,0,0-.937,2.909,3.349,3.349,0,0,0,3.846-3.846A3.349,3.349,0,0,0,38.411,144.009Z" transform="translate(-21.843 -65.682)"/><path d="M28.515,169.731a5.457,5.457,0,0,1-2.472-.658.316.316,0,0,0-.3,0,4.873,4.873,0,0,1-3.653.479A4.729,4.729,0,0,1,19.376,167c-1.527-3-1.8-7.684.239-9.874.94-1.011,2.744-1.928,6.008-.56a.705.705,0,0,0,.543,0c4.006-1.68,5.822.084,6.548,1.285a.767.767,0,0,1-.365,1.106,2.5,2.5,0,0,0,.355,4.752.767.767,0,0,1,.564.927A11.031,11.031,0,0,1,32.413,167a4.727,4.727,0,0,1-2.718,2.556,3.9,3.9,0,0,1-1.181.179Zm-2.62-2.23a1.855,1.855,0,0,1,.864.214,3.368,3.368,0,0,0,2.473.374,3.275,3.275,0,0,0,1.815-1.789,8.824,8.824,0,0,0,.547-1.366,4.041,4.041,0,0,1-.7-6.913c-.9-.806-2.285-.822-4.138-.045a2.25,2.25,0,0,1-1.73,0c-1.965-.824-3.409-.761-4.291.189-1.53,1.647-1.26,5.653,0,8.135a3.276,3.276,0,0,0,1.815,1.789,3.366,3.366,0,0,0,2.473-.374A1.858,1.858,0,0,1,25.895,167.5Z" transform="translate(-9.963 -73.599)"/><path d="M36.775,146.5a4.108,4.108,0,0,1-.655-.053.767.767,0,0,1-.635-.635,4.115,4.115,0,0,1,4.725-4.725.767.767,0,0,1,.635.635,4.114,4.114,0,0,1-4.07,4.777Zm.946-3.176a2.592,2.592,0,0,0-.747,1.635,2.574,2.574,0,0,0,2.383-2.382A2.59,2.59,0,0,0,37.72,143.32Z" transform="translate(-20.611 -64.451)"/></g></svg>