<svg xmlns="http://www.w3.org/2000/svg" width="98.508" height="98.507" viewBox="0 0 98.508 98.507"><defs><style>.a{fill:#ebebeb;opacity:0.2;}.b{fill:#ffb000;}</style></defs><g transform="translate(0.271)"><ellipse class="a" cx="49.254" cy="49.254" rx="49.254" ry="49.254" transform="translate(-0.271)"/><g transform="translate(23.063 25.836)"><path class="b" d="M441.177,0h-4.625a1.588,1.588,0,0,0,0,3.175h3.037V6.212a1.588,1.588,0,0,0,3.175,0V1.588A1.588,1.588,0,0,0,441.177,0Zm0,0" transform="translate(-390.924)"/><path class="b" d="M441.177,276.086a1.588,1.588,0,0,0-1.588,1.588v3.037h-3.037a1.588,1.588,0,0,0,0,3.175h4.625a1.588,1.588,0,0,0,1.588-1.588v-4.625A1.587,1.587,0,0,0,441.177,276.086Zm0,0" transform="translate(-390.924 -248.132)"/><path class="b" d="M160.467,7.8a1.588,1.588,0,0,0,1.588-1.588V3.175h3.037a1.588,1.588,0,0,0,0-3.175h-4.625a1.588,1.588,0,0,0-1.588,1.588V6.212A1.588,1.588,0,0,0,160.467,7.8Zm0,0" transform="translate(-142.793 0)"/><path class="b" d="M24.811,229.949.774,253.986a2.645,2.645,0,1,0,3.74,3.74l24.037-24.037-1.015-2.726Zm0,0" transform="translate(0 -206.666)"/><path class="b" d="M247.166,63.073l-3.513-5.442a1.592,1.592,0,0,1-.2-1.272l1.665-6.2a1.11,1.11,0,0,0-1.36-1.36l-6.2,1.666a1.591,1.591,0,0,1-1.272-.2l-5.442-3.513a1.11,1.11,0,0,0-1.711.884l-.283,6.4a1.589,1.589,0,0,1-.591,1.168L223.2,59.271a1.11,1.11,0,0,0,.308,1.905l4,1.491c3.157,1.175,2.566.587,3.74,3.74l1.491,4a1.11,1.11,0,0,0,1.905.308l4.071-5.059a1.589,1.589,0,0,1,1.168-.591l6.4-.283a1.11,1.11,0,0,0,.884-1.711Zm0,0" transform="translate(-200.226 -41.854)"/></g></g></svg>