<svg xmlns="http://www.w3.org/2000/svg" width="83.438" height="71.717" viewBox="0 0 83.438 71.717"><defs><style>.a{fill:#fff;}.b{fill:#ffb000;}</style></defs><g transform="translate(-729.281 -2130.051)"><g transform="translate(729.281 2133.768)"><path class="a" d="M34,0A34,34,0,1,1,0,34,34,34,0,0,1,34,0Z"/></g><g transform="translate(753.281 2130.03)"><path d="M28.28,39.379a4.043,4.043,0,1,0-2.865-1.184A4.05,4.05,0,0,0,28.28,39.379Zm0-5.487a1.437,1.437,0,1,1-1.437,1.437,1.437,1.437,0,0,1,1.437-1.437Z" transform="translate(-10.971 -27.158)"/><path d="M41.78,39.379a4.043,4.043,0,1,0-2.865-1.184A4.05,4.05,0,0,0,41.78,39.379Zm0-5.487a1.437,1.437,0,1,1-1.437,1.437,1.437,1.437,0,0,1,1.437-1.437Z" transform="translate(-15.653 -27.158)"/><path d="M14.78,39.379a4.043,4.043,0,1,0-2.865-1.184,4.05,4.05,0,0,0,2.865,1.184Zm0-5.487a1.437,1.437,0,1,1-1.437,1.437,1.437,1.437,0,0,1,1.437-1.437Z" transform="translate(-6.289 -27.158)"/><path d="M63.367,30.225A5.225,5.225,0,0,0,58.142,25H9.155A5.225,5.225,0,0,0,3.93,30.225V72.681a5.225,5.225,0,0,0,5.225,5.225H58.142a5.225,5.225,0,0,0,5.225-5.225Zm-4.9,45.068H9.482a3.2,3.2,0,0,1-2.939-2.939V41.982H60.755V72.354C60.755,73.778,59.906,75.293,58.469,75.293ZM9.482,27.613H58.469a2.09,2.09,0,0,1,2.286,1.875,2.163,2.163,0,0,1,0,.411v9.471H6.543V29.886C6.543,28.449,8.045,27.613,9.482,27.613Z" transform="translate(-3.93 -24.979)"/><g transform="translate(-753.6 -2129.719)"><circle class="b" cx="13.318" cy="13.318" r="13.318" transform="translate(770 2149.843)"/><g transform="translate(752.926 2130.08)"><path d="M177.632,191.541c-.071-.024-.126-.039-.176-.06q-4.076-1.774-8.156-3.533a.242.242,0,0,1-.181-.266c.01-.574,0-1.149,0-1.723a.2.2,0,0,1,.139-.215l8.245-3.57c.034-.015.071-.026.126-.045,0,.066.011.121.011.174v2.052a.223.223,0,0,1-.173.25q-2.76,1.055-5.517,2.123c-.066.024-.131.053-.229.094l1.331.526c1.468.578,2.934,1.158,4.4,1.731a.232.232,0,0,1,.184.261v1.994A1.322,1.322,0,0,1,177.632,191.541Z" transform="translate(-151.463 -152.599)"/><path d="M261.792,191.73v-2.212a.224.224,0,0,1,.174-.25q2.778-1.084,5.556-2.179c.052-.019.1-.044.194-.084l-1.182-.46q-2.291-.881-4.581-1.768a.21.21,0,0,1-.161-.232c.008-.729,0-1.452,0-2.215l.387.161q3.983,1.721,7.966,3.431a.232.232,0,0,1,.169.256c-.008.566,0,1.129,0,1.7a.187.187,0,0,1-.119.211q-4.154,1.8-8.308,3.61A.886.886,0,0,1,261.792,191.73Z" transform="translate(-227.186 -152.766)"/><path d="M231.831,171.167c.645.016.958.377.821,1.011-.231,1.063-.492,2.121-.748,3.178q-.923,3.813-1.857,7.624a3.6,3.6,0,0,1-.161.553.85.85,0,0,1-1.1.423.667.667,0,0,1-.511-.807,2.5,2.5,0,0,1,.057-.363q.432-1.844.873-3.686.828-3.428,1.663-6.856a4.748,4.748,0,0,1,.161-.534A.7.7,0,0,1,231.831,171.167Z" transform="translate(-200.074 -143.402)"/></g></g></g></g></svg>