<svg xmlns="http://www.w3.org/2000/svg" width="98.508" height="98.507" viewBox="0 0 98.508 98.507"><defs><style>.a{fill:#ebebeb;opacity:0.2;}.b{fill:#ffb000;}</style></defs><ellipse class="a" cx="49.254" cy="49.254" rx="49.254" ry="49.254"/><g transform="translate(25 21)"><path class="b" d="M127.354,112.11c2.372,0,4.741-.015,7.111,0a2.282,2.282,0,0,1,2.3,2.22c.024,4.693,0,9.386,0,14.079a.919.919,0,0,1-.041.174H115.814c-.708,7.072-1.41,14.105-2.121,21.192H101.682a2.366,2.366,0,0,1-2.572-2.579V114.706a2.37,2.37,0,0,1,2.6-2.6h6.813v3.381a1.2,1.2,0,0,0,1.152,1.328,1.211,1.211,0,0,0,1.208-1.328V112.1h14.115v3.381a1.192,1.192,0,0,0,1.152,1.326,1.217,1.217,0,0,0,1.208-1.326V112.1Z" transform="translate(-99.11 -98.004)"/><path class="b" d="M184.242,213.631H169.226c-1.06,0-1.423-.437-1.314-1.5.336-3.29.655-6.584.983-9.876s.662-6.584.993-9.876c.039-.374.068-.751.118-1.123a1.309,1.309,0,0,1,1.311-1.171H196.83c1.14,0,1.565.355,1.691,1.5.307,2.947.592,5.9.886,8.847q.5,4.985,1,9.97c.068.669.145,1.34.2,2.012.068.746-.4,1.208-1.208,1.208H184.242Zm0-9.347c.773-.118,1.558-.184,2.316-.365a9.415,9.415,0,0,0,7.108-9.028,1.18,1.18,0,1,0-2.355-.022c-.012.3-.034.594-.075.889a7.057,7.057,0,0,1-14.047-.807,1.191,1.191,0,0,0-1.208-1.326c-.725.012-1.159.546-1.15,1.372a9.523,9.523,0,0,0,9.4,9.287Z" transform="translate(-151.28 -157.155)"/><path class="b" d="M138.085,67.833c.024-1.959-.085-3.93.1-5.872a9.255,9.255,0,0,1,8.139-8.168,9.38,9.38,0,0,1,10.347,7.246A8.708,8.708,0,0,1,156.9,62.8c.029,1.679,0,3.357,0,5.033h-2.34c0-1.539,0-3.075-.012-4.613a7.938,7.938,0,0,0-.143-1.5,7.057,7.057,0,0,0-13.977,1.449v4.659H138.07Z" transform="translate(-128.66 -53.727)"/></g></svg>