<svg xmlns="http://www.w3.org/2000/svg" width="98.508" height="98.507" viewBox="0 0 98.508 98.507"><defs><style>.a{fill:#ebebeb;opacity:0.2;}.b{fill:#ffb000;}</style></defs><g transform="translate(-12.381 -6.972)"><ellipse class="a" cx="49.254" cy="49.254" rx="49.254" ry="49.254" transform="translate(12.381 6.972)"/><g transform="translate(-43.443 -73.321)"><path class="b" d="M115.773,147.912c-.888-.807-1.668-1.582-2.529-2.262a9.165,9.165,0,0,0-5.958-2.031c-5.52.054-11.029.016-16.563.016H89.93v-37.93h.761c4.958,0,9.921.1,14.876-.027,4.525-.113,7.468,2.066,9.445,5.918a6.825,6.825,0,0,1,.775,3.228c-.035,10.792-.022,21.585-.022,32.377Z" transform="translate(-11.182)"/><path class="b" d="M194.337,147.954c0-.218-.027-.414-.027-.611V113.971a1.9,1.9,0,0,1,.035-.621c1.264-3.5,3.26-6.332,7.1-7.333a9.068,9.068,0,0,1,2.225-.239c5.27-.019,10.542,0,15.812,0,.18,0,.363.022.576.032v37.9h-.734c-5.52,0-11.029.043-16.56-.019a9.265,9.265,0,0,0-6.2,2.219C195.8,146.534,195.1,147.258,194.337,147.954Z" transform="translate(-87.475 -0.069)"/><path class="b" d="M134.811,155.311V119.084a1.565,1.565,0,0,1,.03-.678c.14-.269.4-.624.613-.624a1.3,1.3,0,0,1,.791.514c.11.121.065.4.065.605v37.246c0,.2-.016.406-.03.664h-.78q-10.814,0-21.625-.013a2.437,2.437,0,0,0-1.883.783c-.613.654-1.192,1.345-1.824,1.972a6.189,6.189,0,0,1-8.772.36c-.667-.565-1.289-1.184-1.923-1.783a5.044,5.044,0,0,0-3.677-1.418c-6.749.032-13.5.013-20.248.013h-.882c0-.269-.03-.49-.03-.707V118.9a3.256,3.256,0,0,1,.03-.562.678.678,0,0,1,.756-.6.656.656,0,0,1,.7.651c.016.25,0,.5,0,.751v36.087h.839c6.289,0,12.581.022,18.873-.013a6.456,6.456,0,0,1,4.638,1.813c.621.584,1.227,1.189,1.883,1.738a4.7,4.7,0,0,0,6.779-.307c.619-.619,1.178-1.294,1.781-1.926a3.86,3.86,0,0,1,2.959-1.232c6.706.027,13.415.013,20.124.013Z" transform="translate(0 -8.814)"/></g></g></svg>