<svg xmlns="http://www.w3.org/2000/svg" width="27.846" height="19.492" viewBox="0 0 27.846 19.492"><defs><style>.a{fill:#ffb000;}</style></defs><path class="a" d="M-166.331,197a4.133,4.133,0,0,1,1.69.365l-11.438,10.293-11.436-10.295a4.141,4.141,0,0,1,1.687-.363Zm-19.492,19.492h19.495a4.179,4.179,0,0,0,4.174-4.174l0-11.147a4.136,4.136,0,0,0-.468-1.875l-12.522,11.269a1.384,1.384,0,0,1-.931.358,1.387,1.387,0,0,1-.931-.358l-12.522-11.271a4.114,4.114,0,0,0-.468,1.88l0,11.145A4.181,4.181,0,0,0-185.823,216.492Z" transform="translate(190 -197)"/></svg>