<svg xmlns="http://www.w3.org/2000/svg" width="98.508" height="98.507" viewBox="0 0 98.508 98.507"><defs><style>.a{fill:#ebebeb;opacity:0.2;}.b{fill:#ffb000;}</style></defs><g transform="translate(-12.381 -6.228)"><ellipse class="a" cx="49.254" cy="49.254" rx="49.254" ry="49.254" transform="translate(12.381 6.228)"/><path class="b" d="M53.62,137.677v9.1a3.059,3.059,0,0,1-6.117.087c-.02-1.016,0-2.03,0-3.109H44.711a3.072,3.072,0,0,1-3.33-3.3v-2.816c-1.077,0-2.11.022-3.142,0a3.059,3.059,0,0,1-2.609-4.5,2.932,2.932,0,0,1,2.637-1.61c1.014-.026,2.03,0,3.113,0v-2.84a3.064,3.064,0,0,1,3.3-3.277H47.5c0-1.073-.031-2.106,0-3.137a3.053,3.053,0,0,1,5.093-2.187,3.011,3.011,0,0,1,1.02,2.4q0,4.162,0,8.322v.693h30.6v-.631c0-2.713.057-5.427-.017-8.138a3.165,3.165,0,0,1,3.091-3.441,3.134,3.134,0,0,1,3.059,3.472c-.05.852,0,1.711,0,2.652.551,0,1.073.035,1.59,0,3.419-.258,4.8,1.092,4.533,4.56-.037.487,0,.977,0,1.564.824,0,1.63-.013,2.434,0a6.569,6.569,0,0,1,1.455.125,3.046,3.046,0,0,1-.7,5.966c-1.036.033-2.075,0-3.2,0,0,.553-.033,1.075,0,1.593.258,3.4-1.077,4.806-4.56,4.535-.487-.037-.979,0-1.564,0v.6c0,.9.035,1.8-.015,2.692a3.059,3.059,0,0,1-6.1-.151c-.026-2.84,0-5.669,0-8.505v-.712Z" transform="translate(-6.888 -79.039)"/></g></svg>