<svg xmlns="http://www.w3.org/2000/svg" width="101.94" height="74.252" viewBox="0 0 101.94 74.252"><defs><style>.a{fill:#fff;}.b{fill:#ffb000;}</style></defs><g transform="translate(-449.072 -411.313)"><g transform="translate(372.42 -1213.203)"><g transform="translate(76.652 1630.768)"><path class="a" d="M34,0A34,34,0,1,1,0,34,34,34,0,0,1,34,0Z"/></g></g><g transform="translate(482.572 408.08)"><g transform="translate(0 3.233)"><path class="b" d="M154.34,126.1v26.718H114.35V126.1Z" transform="translate(-96.24 -108.6)"/><path d="M109.639,151.146a9.546,9.546,0,0,1-.51,1.245A3.727,3.727,0,0,1,106,154.337c-.138.009-.276.009-.415.009H53.016a3.844,3.844,0,0,1-3.649-5.57q3.041-6.514,6.042-13.048a3.216,3.216,0,0,0,.285-1.3q.024-13.543.013-27.081a3.6,3.6,0,0,1,3.959-3.97H98.9c2.566,0,3.981,1.425,3.981,4.008q0,13.515.014,27.025a3.357,3.357,0,0,0,.3,1.352c1.954,4.276,3.935,8.525,5.9,12.786.2.424.358.863.535,1.3ZM99.3,106.978H59.309V133.7H99.3ZM69.437,150.8c.087-.257.171-.5.247-.736q.831-2.653,1.661-5.307a1.839,1.839,0,0,1,2.07-1.542H85.148a1.851,1.851,0,0,1,2.1,1.574q.594,1.889,1.183,3.782c.234.744.475,1.487.713,2.23h16.418c.545,0,.6-.12.355-.662-1.921-4.152-3.851-8.3-5.76-12.459a.618.618,0,0,0-.679-.394q-20.177.009-40.352,0a.693.693,0,0,0-.74.489q-2.814,6.129-5.663,12.242c-.344.743-.317.792.505.792h16.2Zm15.962-.027c-.423-1.359-.833-2.67-1.242-3.984H74.433l-1.243,3.984Z" transform="translate(-41.199 -89.478)"/><path class="a" d="M88.418,330.923h-16.2c-.817,0-.849-.049-.505-.792q2.833-6.119,5.663-12.242a.689.689,0,0,1,.74-.489q20.176.017,40.352,0a.619.619,0,0,1,.679.394c1.908,4.159,3.839,8.306,5.76,12.459.25.542.19.662-.355.662H108.133q-.356-1.114-.713-2.23c-.4-1.267-.792-2.523-1.183-3.782a1.851,1.851,0,0,0-2.1-1.574H92.4a1.839,1.839,0,0,0-2.07,1.543q-.833,2.653-1.661,5.307C88.589,330.427,88.5,330.666,88.418,330.923Z" transform="translate(-60.18 -269.605)"/><path class="a" d="M214.208,381.444H202l1.242-3.984h9.724C213.375,378.774,213.786,380.079,214.208,381.444Z" transform="translate(-170.009 -320.154)"/><path d="M20.139,0a3.733,3.733,0,0,1,1.584.792,3.009,3.009,0,0,1,.919,2.247v33.73a2.878,2.878,0,0,1-1.657,2.851,3.284,3.284,0,0,1-1.352.3q-8.306.029-16.614.01A2.912,2.912,0,0,1,.01,36.807V8.341c0-1.6.046-3.2-.011-4.8A3.124,3.124,0,0,1,2.507,0Zm.3,4.939H2.22V30.683H20.442ZM11.363,1.772h-3.9c-.488,0-.662.182-.665.686s.184.709.648.709h7.76c.464,0,.648-.211.645-.716s-.176-.683-.633-.683l-3.856,0Zm-.046,31.594a1.845,1.845,0,1,0,1.862,1.845,1.845,1.845,0,0,0-1.862-1.845Z" transform="translate(0.006)"/><path class="b" d="M32.272,31.19V56.934H14.05V31.19Z" transform="translate(-11.824 -26.251)"/><path d="M177.476,191.369c-.07-.024-.124-.038-.173-.059q-4-1.742-8.007-3.468a.238.238,0,0,1-.177-.261c.009-.564,0-1.128,0-1.691a.192.192,0,0,1,.136-.211l8.094-3.5c.033-.014.07-.025.124-.044,0,.065.011.119.011.171v2.014a.219.219,0,0,1-.169.245q-2.71,1.036-5.416,2.084c-.065.024-.128.052-.225.092l1.307.516c1.441.567,2.881,1.137,4.323,1.7a.228.228,0,0,1,.181.257v1.957A1.3,1.3,0,0,1,177.476,191.369Z" transform="translate(-142.334 -155.757)"/><path d="M261.792,191.558v-2.171a.22.22,0,0,1,.171-.245q2.727-1.064,5.454-2.14c.051-.019.1-.043.19-.082l-1.161-.451q-2.249-.865-4.5-1.736a.206.206,0,0,1-.158-.228c.008-.716,0-1.425,0-2.174l.38.158q3.91,1.69,7.82,3.368a.228.228,0,0,1,.166.252c-.008.556,0,1.109,0,1.671a.184.184,0,0,1-.117.207q-4.078,1.769-8.156,3.544A.873.873,0,0,1,261.792,191.558Z" transform="translate(-220.329 -155.925)"/><path d="M231.766,171.167c.633.016.941.371.806.993-.226,1.044-.483,2.082-.735,3.12q-.906,3.744-1.823,7.484a3.534,3.534,0,0,1-.158.543.834.834,0,0,1-1.08.415.655.655,0,0,1-.5-.792,2.453,2.453,0,0,1,.055-.356q.424-1.81.857-3.619.812-3.365,1.633-6.731a4.662,4.662,0,0,1,.158-.524A.684.684,0,0,1,231.766,171.167Z" transform="translate(-192.119 -146.529)"/><path d="M28.336,72.371c0-1.118.01-2.236,0-3.354a1.007,1.007,0,0,1,.564-.974q2.96-1.682,5.907-3.38a.976.976,0,0,1,1.063,0q2.968,1.707,5.942,3.4a.968.968,0,0,1,.534.919v6.78a.972.972,0,0,1-.532.92q-2.974,1.693-5.942,3.4a.976.976,0,0,1-1.063,0q-2.965-1.721-5.94-3.4a.968.968,0,0,1-.535-.919C28.342,74.631,28.336,73.5,28.336,72.371Zm1.752-2c0,1.645,0,3.223.011,4.8a.516.516,0,0,0,.253.334c1.036.607,2.081,1.2,3.123,1.794.317.179.633.355.988.559V73.014a.317.317,0,0,0-.146-.219c-1.39-.8-2.779-1.592-4.23-2.421Zm6.127,7.443a.712.712,0,0,0,.133-.035c1.359-.776,2.719-1.547,4.07-2.337a.5.5,0,0,0,.158-.385c.013-1.468,0-2.938,0-4.406a2.126,2.126,0,0,0-.014-.279c-1.435.82-2.825,1.611-4.2,2.417a.475.475,0,0,0-.158.358c-.013.85,0,1.7,0,2.55Zm3.467-8.935a1.665,1.665,0,0,0-.158-.116c-1.327-.759-2.653-1.522-3.989-2.265a.543.543,0,0,0-.447.033q-1.9,1.064-3.8,2.166c-.089.049-.169.112-.283.19,1.425.812,2.8,1.6,4.187,2.375a.356.356,0,0,0,.293,0C36.868,70.488,38.256,69.7,39.681,68.882Z" transform="translate(-23.844 -54.291)"/><path class="b" d="M39.414,101.56c1.451.83,2.839,1.622,4.224,2.421a.317.317,0,0,1,.146.219v4.848c-.363-.2-.676-.38-.988-.559-1.042-.6-2.087-1.188-3.123-1.794a.516.516,0,0,1-.253-.334C39.409,104.783,39.414,103.213,39.414,101.56Z" transform="translate(-33.17 -85.476)"/><path class="b" d="M78.11,109.052v-4.667a.475.475,0,0,1,.158-.358c1.379-.806,2.77-1.6,4.2-2.417,0,.124.014.2.014.279v4.406a.5.5,0,0,1-.158.385c-1.351.792-2.711,1.562-4.07,2.337A.71.71,0,0,1,78.11,109.052Z" transform="translate(-65.739 -85.518)"/><path class="b" d="M53.912,79.365c-1.425.816-2.808,1.606-4.192,2.387a.356.356,0,0,1-.293,0c-1.384-.781-2.762-1.571-4.187-2.375.114-.078.195-.141.283-.19,1.267-.724,2.534-1.449,3.8-2.159a.543.543,0,0,1,.447-.033c1.329.733,2.654,1.5,3.983,2.255C53.792,79.273,53.825,79.3,53.912,79.365Z" transform="translate(-38.075 -64.773)"/></g></g></g></svg>