<svg xmlns="http://www.w3.org/2000/svg" width="72.482" height="74.768" viewBox="0 0 72.482 74.768"><defs><style>.a{fill:#fafafa;}.b{fill:#ffb000;}.c{fill:none;}</style></defs><g transform="translate(-469.955 -686)"><g transform="translate(469.955 692.768)"><path class="a" d="M34,0A34,34,0,1,1,0,34,34,34,0,0,1,34,0Z"/></g><g transform="translate(503.955 686)"><path d="M10.088,35.56V29.749a1.756,1.756,0,0,1,.979-1.687q5.137-2.909,10.24-5.852a1.687,1.687,0,0,1,1.84,0q5.13,2.957,10.289,5.887a1.694,1.694,0,0,1,.93,1.6V41.433a1.687,1.687,0,0,1-.923,1.6q-5.151,2.937-10.3,5.887a1.7,1.7,0,0,1-1.84,0q-5.13-2.957-10.289-5.887a1.666,1.666,0,0,1-.93-1.611C10.1,39.475,10.088,37.518,10.088,35.56Zm3.034-3.471V40.42a.9.9,0,0,0,.437.583q2.7,1.572,5.408,3.11l1.715.965v-8.4a.583.583,0,0,0-.257-.375c-2.381-1.4-4.79-2.763-7.3-4.2Zm10.615,12.92a1.548,1.548,0,0,0,.229-.062c2.353-1.347,4.714-2.68,7.053-4.047a.909.909,0,0,0,.292-.694V32.089c-2.485,1.388-4.86,2.777-7.282,4.165a.805.805,0,0,0-.264.618v4.415Zm6-15.488c-.146-.111-.2-.16-.271-.2-2.3-1.312-4.6-2.638-6.908-3.922a.93.93,0,0,0-.778.056c-2.2,1.229-4.388,2.485-6.574,3.735-.153.09-.292.2-.493.333,2.465,1.388,4.86,2.777,7.255,4.165a.618.618,0,0,0,.507,0C24.868,32.3,27.257,30.929,29.735,29.52Z" transform="translate(-3.083 -6.708)"/><path class="b" d="M14.46,36.58c2.513,1.437,4.922,2.777,7.317,4.165a.583.583,0,0,1,.257.375v8.4l-1.715-.965c-1.805-1.034-3.61-2.083-5.408-3.11a.9.9,0,0,1-.437-.583C14.453,42.162,14.46,39.433,14.46,36.58Z" transform="translate(-4.42 -11.185)"/><path class="b" d="M29.75,49.5V41.413a.805.805,0,0,1,.264-.618c2.388-1.388,4.8-2.777,7.283-4.165v8.116A.909.909,0,0,1,37,45.44c-2.34,1.388-4.7,2.7-7.053,4.047a1.549,1.549,0,0,1-.2.014Z" transform="translate(-9.096 -11.2)"/><path class="b" d="M31.773,31.017c-2.478,1.388-4.86,2.777-7.262,4.165a.618.618,0,0,1-.507,0c-2.4-1.388-4.79-2.721-7.255-4.165.2-.132.34-.243.493-.333,2.187-1.25,4.374-2.506,6.574-3.735a.93.93,0,0,1,.778-.056c2.312,1.284,4.61,2.61,6.942,3.922A1.506,1.506,0,0,0,31.773,31.017Z" transform="translate(-5.121 -8.205)"/><path class="c" d="M3.469,69.3v3.492a3.589,3.589,0,0,0,3.714,3.686H33.419a3.589,3.589,0,0,0,3.742-3.672V69.3Zm21.639,3.589a1.215,1.215,0,0,1-1.333,1.2H16.833a1.208,1.208,0,1,1,0-2.4h6.942a1.215,1.215,0,0,1,1.333,1.2Z" transform="translate(-1.06 -21.19)"/><path class="c" d="M37.122,50.958V17.35H3.5V50.958Z" transform="translate(-1.069 -5.305)"/><path class="c" d="M33.262,3.455H7.3A3.61,3.61,0,0,0,3.465,7.335v3.3H37.156v-3.3a3.61,3.61,0,0,0-3.895-3.881Z" transform="translate(-1.055 -1.053)"/><path d="M38.474,6.116A6.005,6.005,0,0,0,34.163.243c-.319-.09-.653-.16-.972-.243H5.29c-.319.083-.653.153-.972.243A6.019,6.019,0,0,0,0,6.116V51.651a6.012,6.012,0,0,0,6.081,6.061H32.4a6.012,6.012,0,0,0,6.081-6.061V47.486Q38.481,26.811,38.474,6.116ZM36.1,49.291V51.6a3.589,3.589,0,0,1-3.714,3.686H6.123A3.589,3.589,0,0,1,2.409,51.6V48.11H36.1ZM2.429,45.653V12.045H36.051V45.653ZM36.1,9.58H2.409v-3.3A3.61,3.61,0,0,1,6.248,2.4H32.205A3.61,3.61,0,0,1,36.1,6.283Z" transform="translate(0.001)"/><path d="M22.121,72.737a1.208,1.208,0,1,0,0,2.4h6.942a1.208,1.208,0,1,0,0-2.4Z" transform="translate(-6.354 -22.238)"/></g></g></svg>