<svg xmlns="http://www.w3.org/2000/svg" width="94.075" height="75.25" viewBox="0 0 94.075 75.25"><defs><style>.a{fill:#fff;}.b{fill:#ffb000;}</style></defs><g transform="translate(-897.909 -2182.804)"><path class="a" d="M34,0A34,34,0,1,1,0,34,34,34,0,0,1,34,0Z" transform="translate(897.909 2190.054)"/><g transform="translate(931.91 2182.804)"><g transform="translate(0 0)"><path d="M.718,52.459A1.48,1.48,0,0,1,0,51.006Q.02,28.871.01,6.733c0-1.116.3-1.412,1.44-1.413H7.288V2.165c0-.359-.009-.719,0-1.076a1.015,1.015,0,1,1,2.024,0c.016,1.3,0,2.6,0,3.895,0,.084.01.169.017.3H29.634V1.07A.876.876,0,0,1,30.2.127a1.3,1.3,0,0,1,.992.078,1.367,1.367,0,0,1,.447.95c.052,1.177.02,2.356.022,3.534v.63h6.013c.92,0,1.27.353,1.27,1.274q0,18.19.007,36.382a1.506,1.506,0,0,1-.465,1.142q-3.937,3.922-7.868,7.857c-.177.176-.386.322-.581.482ZM36.9,7.386H2.076v43H28.709V43.49c0-.917.357-1.273,1.274-1.273H36.9ZM30.763,48.694l4.415-4.413H30.763Z" transform="translate(0 0.003)"/><path class="b" d="M49.112,50.86V85.695H42.2c-.917,0-1.274.356-1.274,1.273v6.894H14.29v-43ZM32.21,67.525H23.647c-.8,0-1.172.369-1.172,1.152q-.009,5.1,0,10.193a1.037,1.037,0,0,0,1.162,1.171c.956.007,1.913.029,2.868-.01.478-.02.651.118.77.6a6.9,6.9,0,0,0,11.315,3.562,6.66,6.66,0,0,0,2.041-6.951,6.475,6.475,0,0,0-5.124-4.948c-.436-.107-.536-.28-.522-.684.028-.767-.016-1.538.019-2.3a2.1,2.1,0,0,1,.246-.909c1.495-2.625,3.013-5.23,4.519-7.844.594-1.033.16-1.791-1.033-1.793H29.26c-1.238,0-1.666.742-1.052,1.809q1.839,3.2,3.684,6.383C31.985,67.105,32.069,67.266,32.21,67.525Z" transform="translate(-12.214 -43.471)"/><path class="a" d="M211.77,309.253V304.84h4.415Z" transform="translate(-181.007 -260.556)"/><path d="M80.349,113.963c-.145-.259-.225-.42-.317-.581q-1.842-3.2-3.684-6.383c-.614-1.066-.186-1.807,1.052-1.809h9.476c1.193,0,1.627.76,1.033,1.793-1.506,2.615-3.024,5.23-4.519,7.852a2.1,2.1,0,0,0-.245.909c-.035.766.009,1.537-.019,2.3-.015.4.084.581.522.684a6.457,6.457,0,0,1,5.124,4.948,6.643,6.643,0,0,1-2.041,6.951,6.9,6.9,0,0,1-11.315-3.562c-.119-.482-.291-.62-.77-.6-.954.039-1.912.017-2.868.01a1.032,1.032,0,0,1-1.162-1.171q-.009-5.1,0-10.193c0-.783.376-1.151,1.172-1.152q3.944-.009,7.888,0Zm-7.664,2.067v8.38h2.557a7.014,7.014,0,0,1,5.548-5.737c.118-.028.291-.177.291-.275.023-.779.013-1.559.013-2.369Zm10.448,4.73v.593c0,1.331.007,2.661,0,3.992a1.008,1.008,0,0,1-1.137,1.136c-.9.01-1.809,0-2.712,0H77.394a4.843,4.843,0,0,0,9.588-.936A4.683,4.683,0,0,0,83.132,120.76Zm-4.284-13.5,3.276,5.673c1.107-1.919,2.172-3.765,3.274-5.665Zm2.218,13.51a4.506,4.506,0,0,0-3.632,3.64h3.632Z" transform="translate(-60.353 -89.909)"/><path class="a" d="M84.89,179.81H93.3c0,.811.01,1.591-.013,2.369,0,.1-.174.247-.291.275a7.012,7.012,0,0,0-5.548,5.737H84.89Z" transform="translate(-72.558 -153.689)"/><path class="a" d="M123.082,212.37a4.7,4.7,0,0,1,3.855,4.794,4.843,4.843,0,0,1-9.588.936h4.6a1.01,1.01,0,0,0,1.137-1.136c.012-1.331,0-2.661,0-3.992Z" transform="translate(-100.303 -181.519)"/><path class="a" d="M127.32,119.42h6.55c-1.1,1.907-2.167,3.754-3.274,5.673Z" transform="translate(-108.825 -102.072)"/><path class="b" d="M121.222,212.45v3.64H117.59A4.509,4.509,0,0,1,121.222,212.45Z" transform="translate(-100.508 -181.588)"/><path d="M197.06,74.056V72.091c.046-.383.086-.768.145-1.152a15.747,15.747,0,0,1,17.853-13.415,14.931,14.931,0,0,1,5.713,2.013.28.28,0,0,0,.414-.06c.436-.458.89-.9,1.345-1.347a.872.872,0,0,1,.959-.2.887.887,0,0,1,.593.789c.029.275.045.551.068.827.057.658.116,1.318.174,1.976.094.015.154.028.215.033.835.071,1.671.145,2.507.212a.929.929,0,0,1,.88.6.905.905,0,0,1-.259,1.033c-.436.424-.85.859-1.284,1.277a.279.279,0,0,0-.061.413,15.711,15.711,0,0,1-10.8,23.468c-.581.094-1.171.163-1.758.243H211.8a1.994,1.994,0,0,0-.2-.049c-.718-.1-1.442-.174-2.153-.317a15.717,15.717,0,0,1-12.138-12.584C197.21,75.25,197.141,74.652,197.06,74.056Zm24.576-6.65a10.411,10.411,0,0,1,1.415,7.844,10.233,10.233,0,0,1-4.452,6.557A10.494,10.494,0,0,1,203.8,67.641a10.18,10.18,0,0,1,5.368-4.42,10.447,10.447,0,0,1,9.281.994c-.035-.456-.048-.872-.1-1.268a1.1,1.1,0,0,1,.366-1.017c.311-.291.607-.6.917-.905a13.871,13.871,0,1,0,5.2,5.19c-.321.328-.638.646-.949.97a1.027,1.027,0,0,1-.915.321C222.543,67.464,222.117,67.442,221.636,67.406Zm-3.467-1.074a8.646,8.646,0,1,0,1.361,1.36l-2.6,2.6a4.974,4.974,0,1,1-1.363-1.366Zm-3.941,4a3.069,3.069,0,0,0-3.87.764,3.129,3.129,0,0,0,4.429,4.38,3.052,3.052,0,0,0,.745-3.829l-.221.2-1.823,1.822a.922.922,0,1,1-1.321-1.283C212.84,71.7,213.527,71.032,214.228,70.335Zm6.188-4.893c.763.065,1.495.135,2.227.184a.456.456,0,0,0,.314-.128c.636-.622,1.262-1.252,1.888-1.888a1.258,1.258,0,0,0,.123-.171c-.513-.045-.992-.09-1.47-.131a.933.933,0,0,1-.954-.952c-.041-.484-.087-.967-.131-1.453-.046.009-.071,0-.083.019-.674.67-1.35,1.339-2.016,2.018a.388.388,0,0,0-.089.27C220.282,63.949,220.349,64.681,220.416,65.442Z" transform="translate(-168.434 -49.026)"/><path class="a" d="M232.485,78.224c.481.036.906.058,1.329.106a1.027,1.027,0,0,0,.915-.321c.311-.324.628-.642.949-.97a13.875,13.875,0,1,1-5.2-5.2c-.309.307-.606.613-.917.905a1.1,1.1,0,0,0-.366,1.017c.052.4.065.812.1,1.268a10.447,10.447,0,0,0-9.281-.994,10.18,10.18,0,0,0-5.368,4.42,10.494,10.494,0,0,0,14.794,14.166,10.227,10.227,0,0,0,4.452-6.557A10.4,10.4,0,0,0,232.485,78.224Z" transform="translate(-179.282 -59.845)"/><path class="b" d="M259.749,107.844l-2.6,2.6a4.977,4.977,0,1,0,1.363,1.366l2.6-2.6a8.671,8.671,0,1,1-1.361-1.358Z" transform="translate(-210.014 -90.538)"/><path class="a" d="M288.336,144.349c-.7.7-1.387,1.37-2.06,2.055a.922.922,0,1,0,1.321,1.283l1.823-1.822c.07-.07.145-.134.221-.2a3.052,3.052,0,0,1-.745,3.829,3.129,3.129,0,0,1-4.429-4.38A3.071,3.071,0,0,1,288.336,144.349Z" transform="translate(-242.542 -123.041)"/><path class="a" d="M356.725,86.315c-.067-.764-.134-1.5-.189-2.228a.388.388,0,0,1,.089-.27c.667-.678,1.342-1.348,2.016-2.018.012-.012.036-.01.083-.019.044.487.09.97.131,1.453a.933.933,0,0,0,.954.951c.478.041.957.086,1.47.131a1.262,1.262,0,0,1-.123.171c-.628.632-1.254,1.262-1.888,1.888a.456.456,0,0,1-.314.128C358.22,86.46,357.488,86.384,356.725,86.315Z" transform="translate(-304.743 -69.9)"/></g></g></g></svg>