<svg xmlns="http://www.w3.org/2000/svg" width="91.208" height="84.768" viewBox="0 0 91.208 84.768"><defs><style>.a{opacity:0.2;}.b{fill:#ebebeb;}.c{fill:#ffb000;}</style></defs><g transform="translate(-459 -1614)"><g class="a" transform="translate(459 1630.768)"><path class="b" d="M34,0A34,34,0,1,1,0,34,34,34,0,0,1,34,0Z"/></g><g transform="translate(482.967 1614.046)"><path d="M14.6,79.674v-37.4a3.914,3.914,0,0,1,3.156-4.092,5.26,5.26,0,0,1,1.123-.08H33.246a1.783,1.783,0,0,0,1.061-.357A58.754,58.754,0,0,0,44.836,26.868a3.406,3.406,0,0,1,5.028-.829,13.266,13.266,0,0,1,3.388,3.45,39.915,39.915,0,0,1,4.458,8.086.749.749,0,0,0,.829.535H71.021a3.923,3.923,0,0,1,4.208,4.19V79.665l.74.053A2.621,2.621,0,0,1,78.546,82.5a7.471,7.471,0,0,1-1.926,4.984,8.969,8.969,0,0,1-7.266,3.379H20.55A9.477,9.477,0,0,1,14.2,88.8a7.757,7.757,0,0,1-2.853-6.321,2.88,2.88,0,0,1,2.728-2.773Zm57.853,0V42.327c0-1.132-.41-1.551-1.533-1.551H59.5a2.755,2.755,0,0,0-.357,0c.437,2.345.892,4.645,1.248,6.963A8.916,8.916,0,0,1,60,52.3a2.808,2.808,0,0,1-3.147,1.961c-1.007-.089-2.015-.214-3.013-.3a57.425,57.425,0,0,0-16.048.517c-1.025.2-2.033.455-3.094.687.954,1.872,1.872,3.646,2.755,5.438.187.383.383.437.776.348a2.889,2.889,0,0,1,2.184.321A3.174,3.174,0,0,1,42.135,64.3a3.094,3.094,0,0,1-1.97,2.871c-1.7.74-3.424,1.426-5.144,2.131a2.615,2.615,0,0,1-3.78-1.373c-1.649-3.094-3.29-6.178-4.948-9.263-.1-.178-.339-.41-.526-.41a3.566,3.566,0,0,1-3.468-2.4c-.82-2.015-1.667-4.012-2.505-6.018-.936-2.256-.259-3.994,1.988-4.993,1.186-.535,2.416-.981,3.566-1.56,1.516-.74,3-1.56,4.458-2.354l-.053-.16H18.936c-1.2,0-1.6.392-1.6,1.614V79.657Zm-40.5-36.884c1.266,3.031,2.514,6.018,3.745,9.014.152.357.348.321.651.276,2.193-.3,4.378-.7,6.58-.892a71.057,71.057,0,0,1,13.971.366c.535.062.793-.143.829-.58a13.284,13.284,0,0,0,.08-2.675,36.848,36.848,0,0,0-6.6-17.029,17.056,17.056,0,0,0-2.523-2.737c-.892-.829-1.1-.713-1.89.205-1.979,2.291-3.923,4.618-6,6.811a48.3,48.3,0,0,1-8.844,7.239Zm44,39.647H14.042a3.3,3.3,0,0,0,0,.5,5.162,5.162,0,0,0,3.085,4.574,8.024,8.024,0,0,0,3.566.687H69.416a6.375,6.375,0,0,0,5.929-3.655,11.324,11.324,0,0,0,.606-2.1ZM29.635,44.217c-.686.357-1.284.713-1.908,1-1.6.722-3.219,1.4-4.823,2.122-.892.392-.972.633-.6,1.516L24.74,54.7c.392.945.669,1.034,1.64.651,1.944-.767,3.905-1.5,5.858-2.238.312-.116.624-.2.981-.3Zm-1,13.1,5.144,9.62,5.144-2.122c.4-.16.669-.41.5-.892s-.535-.392-.892-.294a2.6,2.6,0,0,1-3.236-1.48c-.972-1.926-1.961-3.843-2.942-5.759-.071-.143-.169-.285-.267-.446l-1.828.669A10.725,10.725,0,0,1,28.637,57.314Z" transform="translate(-11.31 -23.841)"/><path d="M67.428,37.909a1.346,1.346,0,0,1-1.435-1.025,1.2,1.2,0,0,1,.606-1.462c.517-.276,1.07-.5,1.614-.74l5.349-2.4a1.364,1.364,0,0,1,2,.606c.321.74,0,1.435-.892,1.837l-6.651,2.987C67.775,37.811,67.535,37.873,67.428,37.909Z" transform="translate(-17.23 -24.576)"/><path d="M67.882,25.2a2.817,2.817,0,0,1-.392.722q-1.355,1.5-2.764,2.924a5.715,5.715,0,0,1-1.141.892,1.088,1.088,0,0,1-1.5-.214,1.106,1.106,0,0,1-.25-1.5,6.464,6.464,0,0,1,.945-1.2c.892-.945,1.863-1.863,2.808-2.8a1.266,1.266,0,0,1,1.471-.285A1.364,1.364,0,0,1,67.882,25.2Z" transform="translate(-16.765 -23.66)"/><path class="c" d="M34.46,43.119A48.3,48.3,0,0,0,43.3,35.88c2.077-2.193,4.021-4.52,6-6.811.793-.892.981-1.034,1.89-.205A17.056,17.056,0,0,1,53.718,31.6a36.848,36.848,0,0,1,6.6,17.064,13.284,13.284,0,0,1-.08,2.675c0,.437-.294.642-.829.58a71.056,71.056,0,0,0-13.971-.366c-2.2.178-4.386.571-6.58.892-.3,0-.5.08-.651-.276C36.974,49.137,35.726,46.15,34.46,43.119Z" transform="translate(-13.817 -24.17)"/><path class="c" d="M30.941,46.52l3.566,8.595c-.357.107-.669.187-.981.3-1.953.74-3.914,1.471-5.858,2.238-.972.383-1.248.294-1.64-.651l-2.434-5.849c-.374-.892-.294-1.123.6-1.516,1.6-.722,3.219-1.4,4.823-2.122C29.657,47.233,30.254,46.877,30.941,46.52Z" transform="translate(-12.616 -26.144)"/><path class="c" d="M30.74,61.051c.58-.232,1.088-.446,1.6-.642l1.828-.669c.1.16.2.3.267.446.981,1.917,1.97,3.834,2.942,5.759a2.6,2.6,0,0,0,3.236,1.48c.374-.1.74-.134.892.294s-.1.7-.5.892L35.884,70.67Z" transform="translate(-13.413 -27.578)"/><path d="M72.7,47.284h-2.55a1.346,1.346,0,1,1,0-2.675h5.037a1.346,1.346,0,1,1,0,2.675Z" transform="translate(-17.524 -25.936)"/></g></g></svg>