<svg xmlns="http://www.w3.org/2000/svg" width="89.244" height="74.826" viewBox="0 0 89.244 74.826"><defs><style>.a{opacity:0.2;}.b{fill:#ebebeb;}.c{fill:#ffb000;}</style></defs><g transform="translate(-1026.438 -1623.941)"><g class="a" transform="translate(1026.438 1630.768)"><path class="b" d="M34,0A34,34,0,1,1,0,34,34,34,0,0,1,34,0Z"/></g><g transform="translate(1050.477 1623.942)"><path d="M60.879,42.93c0-2.819.077-5.6,0-8.363-.077-2.12-1.789-3.633-4.139-3.84V27.816a15.084,15.084,0,0,1,1.536.223A7.1,7.1,0,0,1,63.782,35q0,10.752,0,21.5a1.006,1.006,0,0,0,.522.96A16.635,16.635,0,0,1,58.1,87.711c-7.058,1.137-12.71-1.336-16.9-7.165a1.029,1.029,0,0,0-.96-.522H13.977a7.142,7.142,0,0,1-7.449-7.442V35.25a7.073,7.073,0,0,1,6.2-7.288,17.764,17.764,0,0,1,2.642,0V24.836a5.667,5.667,0,0,1,0-.722A1.459,1.459,0,0,1,16.9,22.839a1.413,1.413,0,0,1,1.359,1.421v9.961a1.459,1.459,0,1,1-2.9,0V30.688a17.61,17.61,0,0,0-3.072.369,4.178,4.178,0,0,0-2.849,4.162c0,2.573,0,5.146,0,7.772Zm0,3H9.423V72.582a4.247,4.247,0,0,0,4.531,4.523h25.42c-2.051-6.643-.983-12.618,3.932-17.541s10.921-6,17.533-3.947ZM55.034,85.092a13.692,13.692,0,1,0-.008,0Z" transform="translate(-6.56 -22.786)"/><path d="M52.516,27.831V24.406A1.451,1.451,0,0,1,53.96,22.77a1.482,1.482,0,0,1,1.451,1.651v9.715a1.459,1.459,0,1,1-2.9,0V30.765H48V27.831Z" transform="translate(-16.184 -22.77)"/><path d="M64.443,30.734H59.92v-2.9h4.523V24.6a3.71,3.71,0,0,1,.069-.829,1.405,1.405,0,0,1,1.367-1,1.421,1.421,0,0,1,1.344.945,2.3,2.3,0,0,1,.115.714q0,4.854,0,9.715a1.451,1.451,0,0,1-1.866,1.536,1.4,1.4,0,0,1-1.029-1.4V30.734Z" transform="translate(-18.949 -22.77)"/><path d="M28.636,30.719H24.12v-2.88h4.516V24.206A1.436,1.436,0,0,1,30.11,22.77,1.413,1.413,0,0,1,31.516,24.2q0,5.069,0,10.13a1.428,1.428,0,0,1-1.451,1.451,1.459,1.459,0,0,1-1.428-1.49C28.636,33.13,28.636,31.963,28.636,30.719Z" transform="translate(-10.643 -22.77)"/><path d="M36,30.726V27.854h4.539V24.2A1.451,1.451,0,0,1,41.96,22.77a1.428,1.428,0,0,1,1.467,1.436c0,1.167,0,2.3,0,3.5v6.4a1.467,1.467,0,1,1-2.9,0V30.726Z" transform="translate(-13.399 -22.77)"/><path class="c" d="M65.536,95.58A13.77,13.77,0,1,1,79.36,81.91,13.77,13.77,0,0,1,65.536,95.58ZM58.141,83l5.829,5.821,11.9-11.9-1.981-2L63.908,84.9l-3.84-3.84Z" transform="translate(-17.07 -33.273)"/><path d="M60.05,85.079l1.958-1.935,3.84,3.84L75.832,77l1.981,2.02L65.879,90.9Z" transform="translate(-18.979 -35.352)"/></g></g></svg>