<svg xmlns="http://www.w3.org/2000/svg" width="86.392" height="69.147" viewBox="0 0 86.392 69.147"><defs><style>.a{opacity:0.2;}.b{fill:#ebebeb;}.c{fill:#ffb000;}</style></defs><g transform="translate(-884.578 -1629.621)"><g class="a" transform="translate(884.578 1630.768)"><path class="b" d="M34,0A34,34,0,1,1,0,34,34,34,0,0,1,34,0Z"/></g><g transform="translate(908.578 1629.621)"><path d="M40.621,80.861H10.9c-1.178,0-1.454-.284-1.454-1.47V31.334c0-1.226.26-1.494,1.478-1.494H70.364c1.218,0,1.478.268,1.478,1.494v48c0,1.267-.252,1.527-1.511,1.527ZM11.6,42.827V78.7H69.689V42.827Zm0-2.177H69.7V31.992h-58.1Z" transform="translate(-9.45 -29.84)"/><path d="M18.487,38.455H16.513a1.04,1.04,0,0,1-1.153-1.04c0-.642.439-1.048,1.186-1.056h3.947a1.054,1.054,0,1,1,.024,2.1C19.843,38.5,19.169,38.455,18.487,38.455Z" transform="translate(-10.56 -31.065)"/><path d="M44.02,76.167c-3.338-.057-6.684-.1-10.03-.179A17.451,17.451,0,0,1,31.4,75.72a3.46,3.46,0,0,1-2.274-1.559A8.934,8.934,0,0,1,27.8,70.579a39.886,39.886,0,0,1-.382-7.748,26.1,26.1,0,0,1,.5-4.979,9.633,9.633,0,0,1,.877-2.485,3.972,3.972,0,0,1,3.5-2.25c2.217-.106,4.435-.211,6.652-.227,4.434,0,8.877,0,13.312.057a38.591,38.591,0,0,1,3.874.236A3.712,3.712,0,0,1,59,55.01,9.681,9.681,0,0,1,60.28,58.8a44.272,44.272,0,0,1,.26,8.861,17.649,17.649,0,0,1-.739,4.6,10.813,10.813,0,0,1-.6,1.373,3.89,3.89,0,0,1-3.492,2.242c-2.5.122-4.995.187-7.5.244H44.02Zm0-21.929h-2.2q-4.589.1-9.186.219A2.794,2.794,0,0,0,29.9,56.3a13.807,13.807,0,0,0-.642,2.063,24.877,24.877,0,0,0-.439,4.873,38.351,38.351,0,0,0,.374,7.025,7.7,7.7,0,0,0,1.064,3.021,2.234,2.234,0,0,0,1.624,1.088A25.177,25.177,0,0,0,34.7,74.6q8.122.057,16.244.057c1.478,0,2.964-.106,4.451-.162a2.786,2.786,0,0,0,2.656-1.738,10.866,10.866,0,0,0,.512-1.381,18.348,18.348,0,0,0,.577-4.41,41.307,41.307,0,0,0-.325-8.26,7.9,7.9,0,0,0-1.023-2.932,2.29,2.29,0,0,0-1.673-1.17c-.9-.106-1.811-.195-2.729-.211-3.119-.081-6.246-.114-9.364-.162Z" transform="translate(-12.816 -34.169)"/><path d="M42.077,65.645V59.862a.753.753,0,0,1,1.243-.715l9.649,5.791a.728.728,0,0,1,0,1.373L43.3,72.11a.748.748,0,0,1-1.226-.723C42.086,69.495,42.077,67.57,42.077,65.645Zm1.438,4.719,7.846-4.711-7.846-4.7Z" transform="translate(-15.576 -35.31)"/><path class="c" d="M43.85,70.818V61.38l7.846,4.7Z" transform="translate(-15.911 -35.764)"/></g></g></svg>