<svg xmlns="http://www.w3.org/2000/svg" width="86.981" height="69.147" viewBox="0 0 86.981 69.147"><defs><style>.a{opacity:0.2;}.b{fill:#ebebeb;}.c{fill:#ffb000;}</style></defs><g transform="translate(-742.719 -1629.621)"><g class="a" transform="translate(742.719 1630.768)"><path class="b" d="M34,0A34,34,0,1,1,0,34,34,34,0,0,1,34,0Z"/></g><g transform="translate(766.719 1629.651)"><path d="M39.285,75.118H9.277c-1.192,0-1.467-.275-1.467-1.475V25.188c0-1.238.267-1.528,1.528-1.528H69.263c1.23,0,1.528.267,1.528,1.528v48.4c0,1.276-.26,1.528-1.528,1.528ZM9.98,36.78v36.2h58.6V36.78Zm0-2.2H68.6V25.845H9.973Z" transform="translate(-7.81 -23.69)"/><path d="M15.33,58.031V44.773c0-1.024.352-1.383,1.36-1.383h8.757c.963,0,1.353.382,1.353,1.345V71.427c0,.932-.39,1.314-1.322,1.314H16.606c-.9,0-1.276-.374-1.276-1.284ZM24.622,70.6V66.918h-2.59V70.6ZM22.009,48.678h2.629v-3.11H22.009Zm2.613,5.349V50.9H22.016v3.141Zm-2.583,2.208v3.141h2.59V56.235ZM17.5,66.872v3.683h2.361V67.231c0-.122-.229-.329-.359-.336C18.845,66.857,18.2,66.872,17.5,66.872Zm4.524-5.3V64.7H24.63V61.577ZM19.831,48.7V45.568H17.538V48.7ZM17.493,54.05h2.331V50.9H17.493Zm0,2.208V59.4h2.292V56.235Zm0,5.349v3.11h2.292V61.577Z" transform="translate(-9.584 -28.343)"/><path d="M58.9,65.556H55.257c-.313,0-.443.1-.535.42A8.895,8.895,0,1,1,46.515,54.8a6.113,6.113,0,0,1,1.353.176.611.611,0,0,0,.8-.374c1.207-2.155,2.438-4.241,3.668-6.358.642-1.116,1.528-1.131,2.178,0l8.91,15.436c.65,1.116.2,1.88-1.116,1.88C61.171,65.563,60.04,65.556,58.9,65.556ZM47.226,57.028a6.757,6.757,0,1,0-2.292,13.319,6.625,6.625,0,0,0,7.6-4.791H51.91c-2.422,0-4.852-.053-7.282,0-1.528.046-1.811-1.047-1.192-2.017,1.23-1.956,2.292-4,3.485-6A2.736,2.736,0,0,0,47.226,57.028Zm6.2-6.419-3.057,5.257A8.986,8.986,0,0,1,53.7,59.06a9.254,9.254,0,0,1,1.314,4.317h5.762Zm-.6,12.777a6.457,6.457,0,0,0-3.538-5.594l-3.255,5.632Z" transform="translate(-14.749 -29.289)"/><path d="M17.306,32.786H15.312a1.064,1.064,0,1,1,.031-2.117h3.981a1.062,1.062,0,1,1,0,2.117C18.674,32.8,17.986,32.786,17.306,32.786Z" transform="translate(-9.305 -25.342)"/><path class="c" d="M47.877,59.977c-.115.214-.191.382-.283.535-1.154,2-2.247,4.05-3.485,6-.619.97-.306,2.063,1.192,2.017,2.43-.076,4.86,0,7.282,0h.627a6.625,6.625,0,0,1-7.6,4.791A6.757,6.757,0,0,1,47.9,60Z" transform="translate(-15.401 -32.237)"/><path class="c" d="M57.484,51.6l7.374,12.769H59.1a9.254,9.254,0,0,0-1.314-4.317,8.986,8.986,0,0,0-3.332-3.194Z" transform="translate(-18.81 -30.28)"/></g></g></svg>