<svg xmlns="http://www.w3.org/2000/svg" width="184.145" height="184.145" viewBox="0 0 184.145 184.145"><defs><style>.a{fill:#fbfbfb;}.b{fill:#ffb000;}.c{fill:#fff;}</style></defs><g transform="translate(-873.5 -2165.645)"><path class="a" d="M92.072,0A92.072,92.072,0,1,1,0,92.072,92.072,92.072,0,0,1,92.072,0Z" transform="translate(873.5 2165.645)"/><g transform="translate(920.5 2212.411)"><g transform="translate(0)"><path class="b" d="M166.7,126.1v34.972H114.35V126.1Z" transform="translate(-90.645 -99.96)"/><path d="M128.388,165.9a12.5,12.5,0,0,1-.667,1.629,4.879,4.879,0,0,1-4.1,2.548c-.18.012-.361.012-.543.012H54.271A5.031,5.031,0,0,1,49.5,162.8q3.98-8.526,7.908-17.079a4.21,4.21,0,0,0,.373-1.7q.031-17.728.017-35.447c0-3.317,1.878-5.2,5.182-5.2h51.357c3.358,0,5.211,1.866,5.211,5.247q0,17.69.019,35.374a4.394,4.394,0,0,0,.4,1.77c2.558,5.6,5.151,11.159,7.728,16.737.257.556.468,1.13.7,1.7ZM114.854,108.09H62.509v34.972h52.345ZM75.765,165.445c.114-.336.224-.649.323-.964q1.088-3.472,2.175-6.946a2.407,2.407,0,0,1,2.709-2.019H96.331a2.423,2.423,0,0,1,2.755,2.06q.777,2.472,1.548,4.95c.307.974.622,1.946.933,2.919h21.49c.713,0,.792-.158.464-.866-2.514-5.435-5.041-10.864-7.539-16.308a.808.808,0,0,0-.889-.516q-26.411.012-52.818,0a.908.908,0,0,0-.968.641q-3.684,8.022-7.413,16.024c-.45.972-.415,1.036.661,1.036h21.21Zm20.893-.035c-.553-1.779-1.09-3.495-1.625-5.215H82.305l-1.627,5.215Z" transform="translate(-38.804 -81.95)"/><path class="c" d="M93.643,335.1H72.437c-1.07,0-1.111-.064-.661-1.036q3.708-8.01,7.413-16.024a.9.9,0,0,1,.968-.641q26.409.023,52.818,0a.811.811,0,0,1,.889.516c2.5,5.444,5.025,10.873,7.539,16.308.328.709.249.866-.464.866h-21.49q-.466-1.458-.933-2.919c-.518-1.658-1.036-3.3-1.548-4.95a2.423,2.423,0,0,0-2.755-2.061H98.85a2.407,2.407,0,0,0-2.709,2.019q-1.09,3.472-2.174,6.946C93.867,334.452,93.757,334.765,93.643,335.1Z" transform="translate(-56.681 -251.605)"/><path class="c" d="M217.98,382.675H202l1.625-5.215h12.728C216.89,379.181,217.427,380.889,217.98,382.675Z" transform="translate(-160.126 -299.215)"/><path d="M26.363,0a4.886,4.886,0,0,1,2.073,1.036,3.939,3.939,0,0,1,1.2,2.941V48.129A3.767,3.767,0,0,1,27.47,51.86a4.3,4.3,0,0,1-1.77.4q-10.872.037-21.747.012A3.812,3.812,0,0,1,.014,48.179V10.918c0-2.094.06-4.187-.015-6.279S.617.674,3.283,0Zm.4,6.465H2.908v33.7H26.759ZM14.875,2.32h-5.1c-.638,0-.866.238-.871.9s.24.929.848.929H19.908c.607,0,.848-.276.844-.937s-.23-.893-.829-.893l-5.048.006Zm-.06,41.355a2.415,2.415,0,1,0,2.438,2.415,2.415,2.415,0,0,0-2.438-2.415Z" transform="translate(0.006 3.233)"/><path class="b" d="M37.9,31.19v33.7H14.05V31.19Z" transform="translate(-11.136 -21.491)"/><path d="M180.059,194.223c-.091-.031-.162-.05-.226-.077q-5.238-2.28-10.481-4.54a.311.311,0,0,1-.232-.342c.012-.738,0-1.476,0-2.214a.251.251,0,0,1,.178-.276l10.595-4.587c.044-.019.091-.033.162-.058,0,.085.015.155.015.224v2.637a.286.286,0,0,1-.222.321q-3.547,1.356-7.089,2.728c-.085.031-.168.068-.294.12l1.71.676c1.886.742,3.771,1.488,5.659,2.224a.3.3,0,0,1,.236.336v2.562A1.7,1.7,0,0,1,180.059,194.223Z" transform="translate(-134.059 -144.376)"/><path d="M261.793,194.409v-2.842a.288.288,0,0,1,.224-.321q3.57-1.393,7.139-2.8c.066-.025.131-.056.249-.108l-1.52-.591q-2.943-1.132-5.887-2.272a.269.269,0,0,1-.207-.3c.01-.937,0-1.866,0-2.846l.5.207q5.118,2.212,10.236,4.409a.3.3,0,0,1,.218.33c-.01.728,0,1.451,0,2.187a.24.24,0,0,1-.153.272q-5.338,2.315-10.676,4.639A1.138,1.138,0,0,1,261.793,194.409Z" transform="translate(-207.52 -144.534)"/><path d="M232.847,171.167c.829.021,1.231.485,1.055,1.3-.3,1.366-.632,2.726-.962,4.084q-1.186,4.9-2.386,9.8a4.623,4.623,0,0,1-.207.711,1.092,1.092,0,0,1-1.414.543.858.858,0,0,1-.657-1.036,3.207,3.207,0,0,1,.073-.466q.555-2.369,1.121-4.737,1.063-4.4,2.137-8.81a6.106,6.106,0,0,1,.207-.686A.9.9,0,0,1,232.847,171.167Z" transform="translate(-180.95 -135.685)"/><path d="M28.337,74.8c0-1.463.012-2.927,0-4.39a1.318,1.318,0,0,1,.738-1.275q3.874-2.2,7.732-4.424a1.277,1.277,0,0,1,1.391,0q3.885,2.235,7.778,4.457a1.267,1.267,0,0,1,.7,1.2v8.874a1.273,1.273,0,0,1-.7,1.2Q42.085,82.666,38.2,84.9a1.277,1.277,0,0,1-1.391,0q-3.881-2.253-7.776-4.457a1.267,1.267,0,0,1-.7-1.2C28.345,77.759,28.337,76.279,28.337,74.8Zm2.293-2.614c0,2.154,0,4.218.015,6.283a.676.676,0,0,0,.332.437c1.356.794,2.724,1.569,4.088,2.349.415.234.829.464,1.294.732V75.643a.415.415,0,0,0-.191-.286c-1.82-1.047-3.638-2.083-5.537-3.169Zm8.02,9.743a.931.931,0,0,0,.174-.046c1.779-1.016,3.559-2.025,5.327-3.06a.657.657,0,0,0,.207-.5c.017-1.922,0-3.845,0-5.767a2.784,2.784,0,0,0-.019-.365c-1.878,1.074-3.7,2.108-5.5,3.163a.622.622,0,0,0-.207.468c-.017,1.113,0,2.224,0,3.337Zm4.538-11.7a2.18,2.18,0,0,0-.207-.151c-1.737-.993-3.472-1.992-5.222-2.964a.711.711,0,0,0-.585.044Q34.69,68.555,32.2,70c-.116.064-.222.147-.371.249,1.866,1.063,3.669,2.1,5.481,3.109a.467.467,0,0,0,.383,0C39.506,72.336,41.322,71.3,43.187,70.234Z" transform="translate(-22.457 -47.901)"/><path class="b" d="M39.414,101.56c1.9,1.086,3.717,2.123,5.528,3.17a.415.415,0,0,1,.191.286v6.345c-.475-.267-.885-.5-1.294-.732-1.364-.779-2.732-1.555-4.088-2.349a.676.676,0,0,1-.332-.437C39.408,105.778,39.414,103.724,39.414,101.56Z" transform="translate(-31.241 -77.274)"/><path class="b" d="M78.11,111.351v-6.109a.622.622,0,0,1,.207-.468c1.806-1.055,3.626-2.09,5.5-3.163,0,.162.019.263.019.365v5.767a.657.657,0,0,1-.207.5c-1.768,1.036-3.549,2.044-5.327,3.06A.93.93,0,0,1,78.11,111.351Z" transform="translate(-61.917 -77.314)"/><path class="b" d="M56.591,80.108c-1.866,1.068-3.675,2.1-5.487,3.124a.466.466,0,0,1-.383,0c-1.812-1.022-3.615-2.056-5.481-3.109.149-.1.255-.184.371-.249,1.658-.947,3.317-1.9,4.975-2.825A.711.711,0,0,1,51.171,77c1.739.96,3.474,1.959,5.213,2.952C56.434,79.988,56.477,80.027,56.591,80.108Z" transform="translate(-35.861 -57.774)"/></g></g></g></svg>