<svg xmlns="http://www.w3.org/2000/svg" width="98.508" height="98.507" viewBox="0 0 98.508 98.507"><defs><style>.a{fill:#ebebeb;opacity:0.2;}.b{fill:#ffb000;}</style></defs><g transform="translate(-12.485 -6.484)"><ellipse class="a" cx="49.254" cy="49.254" rx="49.254" ry="49.254" transform="translate(12.485 6.484)"/><g transform="translate(33.55 31.562)"><path class="b" d="M98.124,99.287c.884-.837,1.628-1.628,2.474-2.326a15.362,15.362,0,0,1,24.956,9.186,15.111,15.111,0,0,1-2.421,11.246.73.73,0,0,1-.7.37q-4.726-.021-9.454,0a.723.723,0,0,1-.737-.465q-3.721-6.914-7.465-13.818c-.088-.163-.181-.326-.312-.558-2.77,5.725-5.512,11.4-8.277,17.121a2.771,2.771,0,0,1-.233-.267c-.6-.891-1.2-1.774-1.774-2.681a.77.77,0,0,0-.749-.381c-6.677.014-13.356,0-20.033.03a.856.856,0,0,1-.872-.5A15.375,15.375,0,0,1,83.441,93.624a14.947,14.947,0,0,1,13.27,4.186C97.194,98.266,97.659,98.78,98.124,99.287Z" transform="translate(-70.586 -93.401)"/><path class="b" d="M112.271,191.7,88.89,168.307c.121,0,.265-.019.409-.019q8.277,0,16.556-.016a.844.844,0,0,1,.765.37q1.744,2.3,3.5,4.581c.123.16.253.312.426.523,2.7-5.47,5.372-10.893,8.079-16.376.135.233.244.393.34.567q2.974,5.484,5.947,10.974a.649.649,0,0,0,.67.4c2.844-.016,5.688,0,8.533,0h.523Z" transform="translate(-84.633 -142.494)"/></g></g></svg>