<svg xmlns="http://www.w3.org/2000/svg" width="96.462" height="84.238" viewBox="0 0 96.462 84.238"><defs><style>.a{fill:#ffb000;}.b{fill:#fff;}</style></defs><g transform="translate(0 0.003)"><g transform="translate(0 -0.003)"><path d="M1.152,84.235A2.376,2.376,0,0,1,0,81.9Q.033,46.36.016,10.814c0-1.791.488-2.267,2.312-2.27H11.7V3.478c0-.576-.014-1.155,0-1.728a1.629,1.629,0,1,1,3.249,0c.026,2.083,0,4.168,0,6.254,0,.135.016.271.028.478h32.6V1.719A1.407,1.407,0,0,1,48.491.205a2.093,2.093,0,0,1,1.593.126A2.2,2.2,0,0,1,50.8,1.857c.084,1.889.033,3.783.035,5.675V8.544h9.654c1.477,0,2.039.567,2.039,2.046q0,29.208.012,58.419a2.419,2.419,0,0,1-.746,1.833q-6.321,6.3-12.633,12.617c-.285.282-.62.518-.933.774ZM59.247,11.861H3.333V80.9H46.1V69.834c0-1.472.574-2.043,2.046-2.043h11.1ZM49.4,78.189,56.485,71.1H49.4Z" transform="translate(0 0.003)"/><path class="a" d="M70.2,50.86v55.935h-11.1c-1.472,0-2.046.571-2.046,2.043v11.07H14.29V50.865ZM43.064,77.619H29.314c-1.278,0-1.882.592-1.882,1.85q-.014,8.183,0,16.368a1.666,1.666,0,0,0,1.866,1.88c1.535.012,3.072.047,4.6-.016.767-.033,1.045.189,1.236.963a11.08,11.08,0,0,0,18.168,5.719c3.352-2.972,4.318-6.869,3.277-11.161s-3.965-6.9-8.227-7.945c-.7-.173-.861-.45-.837-1.1.044-1.232-.026-2.47.03-3.7a3.368,3.368,0,0,1,.394-1.46c2.4-4.215,4.838-8.4,7.257-12.6.954-1.658.257-2.876-1.658-2.878H38.327c-1.987,0-2.675,1.192-1.689,2.9Q39.591,71.58,42.553,76.7C42.7,76.945,42.838,77.2,43.064,77.619Z" transform="translate(-10.957 -38.996)"/><path class="b" d="M211.77,311.926V304.84h7.089Z" transform="translate(-162.374 -233.734)"/><path d="M86.247,119.276c-.233-.415-.362-.674-.508-.933q-2.958-5.132-5.915-10.249c-.987-1.712-.3-2.9,1.689-2.9H96.728c1.915,0,2.612,1.22,1.658,2.878-2.419,4.2-4.856,8.4-7.257,12.607a3.368,3.368,0,0,0-.394,1.46c-.056,1.229.014,2.468-.03,3.7-.023.648.135.933.837,1.1,4.262,1.05,7.18,3.625,8.227,7.945s.075,8.19-3.277,11.161a11.08,11.08,0,0,1-18.168-5.719c-.191-.774-.466-1-1.236-.963-1.532.063-3.07.028-4.6.016a1.657,1.657,0,0,1-1.866-1.88q-.014-8.183,0-16.367c0-1.257.6-1.847,1.882-1.85q6.333-.014,12.666,0ZM73.941,122.6v13.456h4.105c1.141-4.9,3.977-8.066,8.908-9.211.189-.044.467-.285.467-.441.037-1.25.021-2.5.021-3.8Zm16.776,7.595v.952c0,2.137.012,4.273,0,6.41a1.618,1.618,0,0,1-1.826,1.824c-1.451.016-2.9,0-4.355,0H81.5c.466,3.441,4.159,6.38,7.7,6.212a7.746,7.746,0,0,0,7.7-7.714C97,134.116,94.176,130.54,90.717,130.19Zm-6.879-21.681,5.26,9.109c1.777-3.081,3.487-6.046,5.258-9.1ZM87.4,130.2c-2.552.1-5.806,3.389-5.831,5.845H87.4Z" transform="translate(-54.14 -80.653)"/><path class="b" d="M84.89,179.81h13.5c0,1.3.016,2.554-.021,3.8,0,.156-.28.4-.466.441-4.931,1.145-7.767,4.311-8.908,9.211H84.89Z" transform="translate(-65.089 -137.868)"/><path class="b" d="M126.554,212.37c3.459.35,6.279,3.926,6.191,7.7a7.767,7.767,0,0,1-7.7,7.714c-3.536.168-7.231-2.771-7.7-6.212h7.387a1.622,1.622,0,0,0,1.826-1.824c.019-2.137,0-4.273,0-6.41Z" transform="translate(-89.978 -162.833)"/><path class="b" d="M127.32,119.42h10.517c-1.77,3.063-3.48,6.027-5.258,9.109Z" transform="translate(-97.622 -91.564)"/><path class="a" d="M123.421,212.45V218.3H117.59C117.616,215.844,120.87,212.555,123.421,212.45Z" transform="translate(-90.162 -162.894)"/><path d="M197.06,84.17V81.014c.075-.616.138-1.234.233-1.85A25.285,25.285,0,0,1,225.96,57.623a23.974,23.974,0,0,1,9.174,3.233.45.45,0,0,0,.665-.1c.7-.735,1.43-1.451,2.16-2.162a1.4,1.4,0,0,1,1.539-.32,1.425,1.425,0,0,1,.952,1.267c.047.441.072.884.11,1.327.091,1.057.187,2.116.28,3.172.152.023.247.044.345.054,1.341.114,2.682.233,4.026.341a1.491,1.491,0,0,1,1.413.966,1.454,1.454,0,0,1-.415,1.658c-.7.681-1.365,1.379-2.062,2.05a.448.448,0,0,0-.1.662A25.228,25.228,0,0,1,226.7,107.458c-.933.152-1.88.261-2.822.39h-3.151a3.209,3.209,0,0,0-.329-.079c-1.152-.168-2.316-.28-3.457-.508a25.237,25.237,0,0,1-19.491-20.207C197.3,86.087,197.191,85.126,197.06,84.17Zm39.462-10.678a16.717,16.717,0,0,1,2.272,12.6,16.432,16.432,0,0,1-7.149,10.529A16.85,16.85,0,0,1,207.89,73.869a16.347,16.347,0,0,1,8.619-7.1,16.775,16.775,0,0,1,14.9,1.6c-.056-.732-.077-1.4-.161-2.036a1.77,1.77,0,0,1,.588-1.633c.5-.467.975-.961,1.472-1.453a22.273,22.273,0,1,0,8.346,8.334c-.516.527-1.024,1.038-1.523,1.558a1.649,1.649,0,0,1-1.47.516C237.978,73.585,237.294,73.55,236.522,73.491Zm-5.568-1.724a13.882,13.882,0,1,0,2.186,2.183l-4.18,4.18a7.987,7.987,0,1,1-2.188-2.193Zm-6.328,6.426a4.929,4.929,0,0,0-6.214,1.227,5.024,5.024,0,0,0,7.112,7.033,4.9,4.9,0,0,0,1.2-6.149l-.355.327-2.927,2.925a1.48,1.48,0,1,1-2.12-2.06C222.4,80.393,223.5,79.313,224.626,78.194Zm9.937-7.856c1.225.1,2.4.217,3.576.3a.733.733,0,0,0,.5-.205c1.022-1,2.027-2.011,3.032-3.032a2.025,2.025,0,0,0,.2-.275c-.823-.072-1.593-.145-2.361-.21a1.5,1.5,0,0,1-1.532-1.528c-.065-.777-.14-1.554-.21-2.333-.075.014-.114,0-.133.03-1.082,1.075-2.167,2.151-3.238,3.24a.623.623,0,0,0-.142.434C234.348,67.94,234.455,69.115,234.563,70.338Z" transform="translate(-151.095 -43.979)"/><path class="b" d="M246.254,83.2c.772.058,1.456.093,2.134.17a1.649,1.649,0,0,0,1.469-.515c.5-.52,1.008-1.031,1.523-1.558a22.279,22.279,0,1,1-8.346-8.346c-.5.492-.973.984-1.472,1.453a1.77,1.77,0,0,0-.588,1.633c.084.648.1,1.3.161,2.036a16.775,16.775,0,0,0-14.9-1.6,16.347,16.347,0,0,0-8.619,7.1,16.85,16.85,0,0,0,23.755,22.747,16.421,16.421,0,0,0,7.149-10.529A16.7,16.7,0,0,0,246.254,83.2Z" transform="translate(-160.827 -53.684)"/><path class="a" d="M268.254,109.006l-4.182,4.168a7.991,7.991,0,1,0,2.188,2.193l4.18-4.18a13.923,13.923,0,1,1-2.186-2.181Z" transform="translate(-188.395 -81.218)"/><path class="b" d="M291.106,144.589c-1.124,1.12-2.228,2.2-3.308,3.3a1.48,1.48,0,1,0,2.12,2.06l2.927-2.925c.112-.112.233-.215.355-.327a4.9,4.9,0,0,1-1.2,6.149,5.024,5.024,0,0,1-7.112-7.033A4.93,4.93,0,0,1,291.106,144.589Z" transform="translate(-217.575 -110.375)"/><path class="b" d="M356.84,89.062c-.107-1.227-.215-2.4-.3-3.578a.622.622,0,0,1,.142-.434c1.071-1.089,2.155-2.165,3.238-3.24.019-.019.058-.016.133-.03.07.781.145,1.558.21,2.333a1.5,1.5,0,0,0,1.533,1.528c.767.065,1.537.138,2.36.21a2.019,2.019,0,0,1-.2.275c-1.008,1.015-2.013,2.027-3.032,3.032a.732.732,0,0,1-.5.205C359.24,89.3,358.064,89.172,356.84,89.062Z" transform="translate(-273.372 -62.704)"/></g></g></svg>