<svg xmlns="http://www.w3.org/2000/svg" width="524.562" height="348.44" viewBox="0 0 524.562 348.44"><defs><style>.a{fill:#150035;}.b{fill:#ffb000;}.c{fill:#fff;}</style></defs><g transform="translate(0.001 0.028)"><g transform="translate(-0.001 -0.028)"><path class="a" d="M11.054,136.767l-4.535,2.622a1.984,1.984,0,0,1-1.771-.089l-4.3-2.462c-.531-.3-.6-.779-.124-1.045l4.535-2.622a1.984,1.984,0,0,1,1.771,0l4.269,2.462C11.462,136.023,11.532,136.572,11.054,136.767Z" transform="translate(0.001 102.617)"/><path class="a" d="M12.821,129.51l4.269,2.48c.531.3.6.779.124,1.045l-4.393,2.675a1.966,1.966,0,0,1-1.771,0L6.78,133.247c-.531-.3-.585-.779-.124-1.045C6.532,132.061,12.343,129.209,12.821,129.51Z" transform="translate(4.895 99.937)"/><path class="a" d="M17.323,140.4l-4.5,2.6a2.037,2.037,0,0,1-1.771,0l-4.269-2.462c-.531-.319-.6-.779-.124-1.045l4.393-2.693a2.072,2.072,0,0,1,1.771,0l4.269,2.462C17.731,139.659,17.784,140.119,17.323,140.4Z" transform="translate(4.891 105.43)"/><path class="a" d="M11.085,144.023l-4.535,2.6a2.037,2.037,0,0,1-1.771,0l-4.3-2.533c-.531-.319-.6-.779-.142-1.045l4.535-2.622a2.072,2.072,0,0,1,1.771,0l4.269,2.48C11.493,143.367,11.546,143.739,11.085,144.023Z" transform="translate(0.023 108.222)"/><path class="a" d="M23.6,136.736l-4.517,2.622a2.073,2.073,0,0,1-1.771,0L13.04,136.9c-.531-.319-.585-.779-.124-1.045l4.535-2.622a2.037,2.037,0,0,1,1.771,0l4.269,2.462C23.934,136.009,24.076,136.523,23.6,136.736Z" transform="translate(9.724 102.666)"/><path class="a" d="M29.868,133.1l-4.517,2.657a2.072,2.072,0,0,1-1.771,0L19.31,133.3c-.531-.319-.585-.779-.124-1.045l4.535-2.622a2.037,2.037,0,0,1,1.771,0l4.234,2.427C30.275,132.374,30.346,132.835,29.868,133.1Z" transform="translate(14.56 99.889)"/><path class="a" d="M29.961,125.951a1.984,1.984,0,0,1,1.771,0L36,128.413c.549.319.6.779.142,1.045l-4.535,2.622a2.037,2.037,0,0,1-1.771,0L25.55,129.6c-.531-.3-.585-.762-.124-1.045Z" transform="translate(19.374 97.048)"/><path class="a" d="M37.841,122.289l4.269,2.462c.549.319.6.779.142,1.045l-4.535,2.622a2.037,2.037,0,0,1-1.771,0l-4.269-2.48C31.092,125.566,37.31,121.97,37.841,122.289Z" transform="translate(24.407 94.368)"/><path class="a" d="M44.111,118.669l4.287,2.462c.531.3.585.779.124,1.045L43.987,124.8a2.037,2.037,0,0,1-1.771,0l-4.269-2.48C37.362,121.946,43.58,118.35,44.111,118.669Z" transform="translate(29.244 91.576)"/><path class="a" d="M23.278,143.829l-4.517,2.622a2.072,2.072,0,0,1-1.771,0l-4.269-2.48c-.531-.3-.585-.779-.124-1.045l4.5-2.675a1.984,1.984,0,0,1,1.771,0l4.269,2.462C23.685,143.1,23.756,143.51,23.278,143.829Z" transform="translate(9.477 108.079)"/><path class="a" d="M17.019,147.418l-4.535,2.622a2.037,2.037,0,0,1-1.771,0l-4.269-2.48c-.531-.3-.6-.762-.124-1.045l4.535-2.6a1.984,1.984,0,0,1,1.771,0l4.269,2.462C17.426,146.692,17.5,147.153,17.019,147.418Z" transform="translate(4.629 110.902)"/><path class="a" d="M29.566,140.212l-4.535,2.551a2.072,2.072,0,0,1-1.771,0l-4.269-2.48c-.531-.3-.585-.779-.124-1.045l4.535-2.6a1.931,1.931,0,0,1,1.771,0l4.251,2.586C29.973,139.486,29.973,139.946,29.566,140.212Z" transform="translate(14.314 105.284)"/><path class="a" d="M35.819,136.563l-4.535,2.622a1.984,1.984,0,0,1-1.771,0L25.19,136.67c-.531-.3-.585-.779-.124-1.045L29.6,133a1.984,1.984,0,0,1,1.771.089l4.446,2.427C36.3,135.819,36.35,136.3,35.819,136.563Z" transform="translate(19.096 102.52)"/><path class="a" d="M42.113,132.959l-4.535,2.622a1.984,1.984,0,0,1-1.771-.089l-4.269-2.462c-.549-.3-.6-.779-.142-1.045l4.535-2.622a1.984,1.984,0,0,1,1.771.089l4.287,2.462C42.52,132.215,42.573,132.693,42.113,132.959Z" transform="translate(23.98 99.712)"/><path class="a" d="M48.4,129.355l-4.57,2.622a1.984,1.984,0,0,1-1.771-.089l-4.269-2.462c-.549-.3-.6-.779-.142-1.045l4.535-2.622a2.019,2.019,0,0,1,1.771,0l4.269,2.462C48.805,128.611,48.859,129.089,48.4,129.355Z" transform="translate(28.801 96.903)"/><path class="a" d="M54.649,125.7l-4.535,2.6a1.931,1.931,0,0,1-1.771,0l-4.269-2.462c-.531-.3-.6-.779-.124-1.045l4.517-2.622a2.073,2.073,0,0,1,1.771,0l4.269,2.48C55.056,124.958,55.109,125.436,54.649,125.7Z" transform="translate(33.657 94.144)"/><path class="a" d="M60.916,122.083l-4.535,2.6a1.984,1.984,0,0,1-1.771,0l-4.269-2.462c-.531-.319-.585-.779-.124-1.045l4.535-2.622a2.037,2.037,0,0,1,1.771,0l4.269,2.48C61.323,121.269,61.394,121.818,60.916,122.083Z" transform="translate(38.497 91.35)"/><path class="a" d="M60.993,114.9a2.037,2.037,0,0,1,1.771,0l4.269,2.48c.531.3.6.762.124,1.045l-4.517,2.6a2.019,2.019,0,0,1-1.771,0L56.6,118.565c-.531-.319-.585-.779-.124-1.045l4.535-2.622Z" transform="translate(43.326 88.526)"/><path class="a" d="M68.881,111.238,73.15,113.7c.549.319.6.779.142,1.063l-4.535,2.6a2.073,2.073,0,0,1-1.771,0L62.717,114.9C62.132,114.515,68.35,110.937,68.881,111.238Z" transform="translate(48.352 85.845)"/><path class="a" d="M29.253,147.238l-4.535,2.622a1.984,1.984,0,0,1-1.771,0L18.66,147.4c-.531-.3-.585-.779-.124-1.045l4.535-2.622a1.984,1.984,0,0,1,1.771,0l4.269,2.409C29.661,146.494,29.714,146.973,29.253,147.238Z" transform="translate(14.059 110.763)"/><path class="a" d="M22.976,150.9l-4.535,2.622a2.019,2.019,0,0,1-1.771-.089L12.4,150.968c-.531-.3-.585-.779-.124-1.045l4.535-2.622a1.984,1.984,0,0,1,1.771,0l4.269,2.462C23.365,150.153,23.436,150.631,22.976,150.9Z" transform="translate(9.23 113.517)"/><path class="a" d="M35.538,143.631,31,146.235a1.931,1.931,0,0,1-1.771,0l-4.3-2.6c-.549-.319-.6-.779-.142-1.045l4.535-2.5a2.037,2.037,0,0,1,1.771,0l4.269,2.48C36.034,142.887,36.034,143.365,35.538,143.631Z" transform="translate(18.881 107.958)"/><path class="a" d="M41.826,140.033l-4.535,2.6a1.931,1.931,0,0,1-1.771,0L31.2,140.1c-.549-.319-.6-.779-.142-1.045l4.535-2.622a2.072,2.072,0,0,1,1.771,0l4.269,2.48C42.215,139.359,42.269,139.767,41.826,140.033Z" transform="translate(23.718 105.144)"/><path class="a" d="M48.059,136.382l-4.535,2.6a1.984,1.984,0,0,1-1.771,0l-4.269-2.462c-.531-.319-.6-.779-.124-1.045l4.517-2.622a2.072,2.072,0,0,1,1.771,0l4.269,2.48C48.466,135.638,48.519,136.1,48.059,136.382Z" transform="translate(28.574 102.383)"/><path class="a" d="M54.306,132.776,49.824,135.4a2.037,2.037,0,0,1-1.771,0l-4.269-2.462c-.531-.319-.6-.779-.124-1.045l4.393-2.693a2.037,2.037,0,0,1,1.771,0l4.269,2.462C54.713,132.05,54.766,132.546,54.306,132.776Z" transform="translate(33.434 99.558)"/><path class="a" d="M60.588,129.118l-4.517,2.639a2.073,2.073,0,0,1-1.771,0L50.03,129.3c-.531-.319-.585-.779-.124-1.045l4.535-2.622a2.037,2.037,0,0,1,1.771,0l4.269,2.462C60.942,128.392,61.066,128.852,60.588,129.118Z" transform="translate(38.258 96.804)"/><path class="a" d="M66.876,125.506l-4.535,2.622a2.073,2.073,0,0,1-1.771,0L56.3,125.665c-.531-.319-.585-.779-.124-1.045L60.711,122a2.037,2.037,0,0,1,1.771,0l4.251,2.462C67.283,124.779,67.336,125.24,66.876,125.506Z" transform="translate(43.095 94.003)"/><path class="a" d="M73.153,121.886l-4.535,2.622a2.037,2.037,0,0,1-1.771,0l-4.287-2.462c-.531-.319-.585-.779-.124-1.063l4.535-2.6a2.037,2.037,0,0,1,1.771,0l4.269,2.462C73.561,121.159,73.614,121.62,73.153,121.886Z" transform="translate(47.924 91.211)"/><path class="a" d="M79.423,118.268l-4.535,2.622a2.037,2.037,0,0,1-1.771,0l-4.269-2.48c-.549-.3-.6-.762-.142-1.045l4.535-2.6a1.984,1.984,0,0,1,1.771,0l4.269,2.462C79.83,117.542,79.883,118,79.423,118.268Z" transform="translate(52.761 88.416)"/><path class="a" d="M85.693,114.635l-4.535,2.622a2.037,2.037,0,0,1-1.771,0l-4.269-2.48c-.549-.3-.6-.779-.142-1.045l4.5-2.639a1.966,1.966,0,0,1,1.771,0l4.269,2.462C86.1,113.961,86.153,114.422,85.693,114.635Z" transform="translate(57.598 85.584)"/><path class="a" d="M87.388,107.439l4.269,2.462c.531.3.585.779.124,1.045l-4.535,2.622a1.984,1.984,0,0,1-1.771,0l-4.269-2.462C80.639,110.716,86.839,107.12,87.388,107.439Z" transform="translate(62.616 82.913)"/><path class="a" d="M96.176,105.8l-4.535,2.622a1.984,1.984,0,0,1-1.771,0S96.655,105.532,96.176,105.8Z" transform="translate(69.328 81.649)"/><path class="a" d="M41.819,147.276,37.284,149.9a2.037,2.037,0,0,1-1.771,0l-4.322-2.533c-.531-.319-.585-.779-.124-1.045L35.6,143.7a2.037,2.037,0,0,1,1.771,0l4.34,2.462C42.262,146.55,42.315,147.011,41.819,147.276Z" transform="translate(23.725 110.743)"/><path class="a" d="M48.093,143.631l-4.535,2.622a2.037,2.037,0,0,1-1.771,0l-4.269-2.462c-.549-.319-.6-.779-.142-1.045l4.5-2.657a2.037,2.037,0,0,1,1.771,0l4.287,2.462C48.5,142.923,48.553,143.383,48.093,143.631Z" transform="translate(28.593 107.958)"/><path class="a" d="M54.36,140l-4.535,2.622a2.037,2.037,0,0,1-1.771,0l-4.269-2.48c-.531-.3-.6-.762-.142-1.045l4.535-2.6a2.072,2.072,0,0,1,1.771,0l4.269,2.462C54.767,139.313,54.821,139.738,54.36,140Z" transform="translate(33.432 105.191)"/><path class="a" d="M60.629,136.387l-4.535,2.622a2.037,2.037,0,0,1-1.771,0l-4.269-2.48c-.531-.3-.6-.779-.124-1.045l4.517-2.6a2.019,2.019,0,0,1,1.771,0l4.269,2.462C61.036,135.66,61.089,136.121,60.629,136.387Z" transform="translate(38.271 102.395)"/><path class="a" d="M66.888,132.771l-4.517,2.622a2.072,2.072,0,0,1-1.771,0l-4.269-2.48c-.531-.3-.585-.779-.124-1.045l4.535-2.6a1.931,1.931,0,0,1,1.771,0l4.2,2.462C67.3,132.027,67.366,132.505,66.888,132.771Z" transform="translate(43.118 99.598)"/><path class="a" d="M73.158,129.151l-4.517,2.6a2.02,2.02,0,0,1-1.771,0L62.6,129.293c-.531-.3-.585-.779-.124-1.045l4.535-2.6a1.931,1.931,0,0,1,1.771,0l4.269,2.462C73.565,128.407,73.636,128.885,73.158,129.151Z" transform="translate(47.955 96.806)"/><path class="a" d="M79.469,125.51l-4.535,2.622a1.984,1.984,0,0,1-1.771,0L68.84,125.67c-.531-.3-.585-.779-.124-1.045L73.251,122a1.984,1.984,0,0,1,1.771.089l4.269,2.462C79.876,124.766,79.929,125.244,79.469,125.51Z" transform="translate(52.768 94.034)"/><path class="a" d="M85.723,121.908l-4.535,2.622a1.984,1.984,0,0,1-1.771,0l-4.269-2.462c-.549-.3-.6-.779-.142-1.045L79.54,118.4a1.984,1.984,0,0,1,1.771,0l4.269,2.462C86.13,121.164,86.183,121.643,85.723,121.908Z" transform="translate(57.621 91.224)"/><path class="a" d="M91.993,118.293l-4.535,2.6a1.931,1.931,0,0,1-1.771,0l-4.269-2.462c-.549-.3-.6-.779-.142-1.045l4.535-2.622a2.037,2.037,0,0,1,1.771,0l4.287,2.48C92.4,117.549,92.453,118.028,91.993,118.293Z" transform="translate(62.458 88.426)"/><path class="a" d="M98.26,114.718l-4.535,2.6a1.931,1.931,0,0,1-1.771,0l-4.269-2.462c-.531-.319-.6-.779-.142-1.045l4.588-2.728a2.073,2.073,0,0,1,1.771,0l4.269,2.48C98.667,113.974,98.721,114.452,98.26,114.718Z" transform="translate(67.297 85.589)"/><path class="a" d="M104.529,111.052l-4.535,2.6a1.984,1.984,0,0,1-1.771,0l-4.269-2.462c-.531-.319-.6-.779-.124-1.045l4.517-2.622a2.072,2.072,0,0,1,1.771,0l4.269,2.48C105.007,110.29,105.007,110.768,104.529,111.052Z" transform="translate(72.136 82.843)"/><path class="a" d="M106.426,103.93l4.269,2.462c.531.319.6.779.124,1.063l-4.535,2.6a2.037,2.037,0,0,1-1.771,0l-4.322-2.533c-.531-.319-.585-.779-.124-1.045l4.535-2.622a2.037,2.037,0,0,1,1.825.071Z" transform="translate(76.952 80.027)"/><path class="a" d="M116.752,101.59c.531.319.6.779.124,1.045l-4.517,2.622a2.073,2.073,0,0,1-1.771,0l-4.269-2.462C105.77,102.4,116.752,101.59,116.752,101.59Z" transform="translate(82.001 78.416)"/><path class="a" d="M66.568,139.867l-4.517,2.622a2.019,2.019,0,0,1-1.771-.089l-4.269-2.462c-.531-.3-.585-.779-.124-1.045l4.535-2.622a1.984,1.984,0,0,1,1.771,0l4.269,2.462C66.958,139.123,67.046,139.6,66.568,139.867Z" transform="translate(42.871 105.009)"/><path class="a" d="M72.856,136.213l-4.535,2.6a1.966,1.966,0,0,1-1.771,0l-4.269-2.462c-.531-.3-.585-.779-.124-1.045l4.535-2.622a2.037,2.037,0,0,1,1.771,0l4.287,2.48C73.245,135.469,73.316,135.948,72.856,136.213Z" transform="translate(47.708 102.25)"/><path class="a" d="M79.149,132.685l-4.535,2.6a1.931,1.931,0,0,1-1.771,0l-4.322-2.6c-.531-.319-.585-.779-.124-1.045l4.535-2.622a2.037,2.037,0,0,1,1.771,0l4.269,2.48C79.556,131.888,79.609,132.366,79.149,132.685Z" transform="translate(52.522 99.419)"/><path class="a" d="M85.433,128.973l-4.606,2.6a1.984,1.984,0,0,1-1.771,0l-4.269-2.462c-.549-.319-.6-.779-.142-1.045l4.535-2.622a2.037,2.037,0,0,1,1.771,0l4.287,2.48C85.841,128.229,85.894,128.69,85.433,128.973Z" transform="translate(57.344 96.665)"/><path class="a" d="M91.673,125.352l-4.535,2.6a2.037,2.037,0,0,1-1.771,0L81.1,125.493c-.549-.319-.6-.779-.142-1.045l4.535-2.622a2.073,2.073,0,0,1,1.771,0l4.269,2.462C92.08,124.608,92.133,125.068,91.673,125.352Z" transform="translate(62.211 93.874)"/><path class="a" d="M97.939,121.714,93.4,124.336a2.037,2.037,0,0,1-1.771,0l-4.269-2.462c-.531-.319-.6-.779-.124-1.045l4.517-2.622a2.072,2.072,0,0,1,1.771,0l4.269,2.462C98.346,120.988,98.4,121.537,97.939,121.714Z" transform="translate(67.052 91.081)"/><path class="a" d="M104.209,118.065l-4.535,2.693a2.037,2.037,0,0,1-1.771,0L93.633,118.3c-.531-.319-.6-.779-.124-1.045l4.535-2.622a2.037,2.037,0,0,1,1.771,0l4.269,2.462C104.616,117.338,104.669,117.8,104.209,118.065Z" transform="translate(71.889 88.318)"/><path class="a" d="M116.8,110.858l-4.535,2.622a2.073,2.073,0,0,1-1.771,0L106.22,111c-.531-.3-.585-.779-.124-1.045l4.535-2.6a1.984,1.984,0,0,1,1.771,0l4.269,2.462C117.132,110.132,117.185,110.593,116.8,110.858Z" transform="translate(81.604 82.7)"/><path class="a" d="M123.033,107.241l-4.535,2.622a2.037,2.037,0,0,1-1.771,0l-4.287-2.48c-.531-.3-.585-.779-.124-1.045l4.535-2.6a1.931,1.931,0,0,1,1.771,0l4.269,2.462C123.441,106.515,123.494,106.975,123.033,107.241Z" transform="translate(86.402 79.904)"/><path class="a" d="M129.318,103.637l-4.535,2.622a1.984,1.984,0,0,1-1.771,0l-4.3-2.622c-.549-.3-.6-.779-.142-1.045l4.553-2.5a1.931,1.931,0,0,1,1.771,0l4.287,2.462C129.725,102.893,129.779,103.371,129.318,103.637Z" transform="translate(91.224 77.096)"/><path class="a" d="M131,96.409l4.269,2.462c.531.3.585.779.124,1.045l-4.535,2.622a1.984,1.984,0,0,1-1.771,0l-4.269-2.462C124.232,99.686,130.485,96.09,131,96.409Z" transform="translate(96.257 74.404)"/><path class="a" d="M85.083,136.016l-4.535,2.622a2.037,2.037,0,0,1-1.771,0l-4.269-2.462c-.549-.319-.6-.779-.142-1.045l4.535-2.622a2.037,2.037,0,0,1,1.771,0l4.287,2.462C85.49,135.307,85.543,135.75,85.083,136.016Z" transform="translate(57.128 102.111)"/><path class="a" d="M91.341,132.425l-4.517,2.622a2.037,2.037,0,0,1-1.771,0l-4.269-2.462c-.531-.319-.6-.779-.124-1.063l4.393-2.675a2.072,2.072,0,0,1,1.771,0l4.269,2.462C91.748,131.7,91.8,132.159,91.341,132.425Z" transform="translate(61.976 99.289)"/><path class="a" d="M97.619,128.777,93.084,131.4a2.037,2.037,0,0,1-1.771,0l-4.269-2.48c-.531-.3-.6-.762-.124-1.045l4.517-2.6a2.019,2.019,0,0,1,1.771,0l4.269,2.462C98.026,128.05,98.079,128.493,97.619,128.777Z" transform="translate(66.805 96.525)"/><path class="a" d="M103.878,125.177l-4.517,2.586a2.072,2.072,0,0,1-1.771,0l-4.269-2.48c-.531-.3-.585-.779-.124-1.045l4.535-2.6a1.931,1.931,0,0,1,1.771,0l4.216,2.586C104.285,124.45,104.356,124.911,103.878,125.177Z" transform="translate(71.653 93.712)"/><path class="a" d="M110.189,121.541l-4.535,2.622a2.019,2.019,0,0,1-1.771-.089l-4.322-2.391c-.531-.3-.585-.779-.124-1.045l4.535-2.6a1.931,1.931,0,0,1,1.771,0l4.269,2.462C110.578,120.8,110.649,121.275,110.189,121.541Z" transform="translate(76.466 90.935)"/><path class="a" d="M122.713,114.3l-4.535,2.622a1.984,1.984,0,0,1-1.771,0l-4.269-2.462c-.549-.3-.6-.779-.142-1.045l4.535-2.622a1.984,1.984,0,0,1,1.771,0l4.269,2.462C123.12,113.554,123.173,114.033,122.713,114.3Z" transform="translate(86.156 85.353)"/><path class="a" d="M128.983,110.684l-4.535,2.6a1.931,1.931,0,0,1-1.771,0l-4.269-2.462c-.549-.3-.6-.779-.142-1.045l4.535-2.622a2.019,2.019,0,0,1,1.771,0l4.269,2.462C129.39,109.94,129.443,110.419,128.983,110.684Z" transform="translate(90.993 82.555)"/><path class="a" d="M135.249,107.062l-4.535,2.6a1.931,1.931,0,0,1-1.771,0l-4.269-2.462c-.531-.319-.6-.779-.124-1.045l4.517-2.622a2.072,2.072,0,0,1,1.771,0l4.269,2.48C135.656,106.282,135.709,106.8,135.249,107.062Z" transform="translate(95.833 79.765)"/><path class="a" d="M141.519,103.442l-4.535,2.6a1.984,1.984,0,0,1-1.771,0l-4.269-2.462c-.531-.319-.6-.779-.124-1.045l4.517-2.622a2.073,2.073,0,0,1,1.771,0l4.269,2.48C142.015,102.7,142.015,103.158,141.519,103.442Z" transform="translate(100.67 76.972)"/><path class="a" d="M110.186,128.8l-4.535,2.6a1.931,1.931,0,0,1-1.771,0l-4.269-2.462c-.531-.3-.585-.779-.124-1.045l4.535-2.622a2.037,2.037,0,0,1,1.771,0l4.269,2.48C110.593,128.059,110.664,128.484,110.186,128.8Z" transform="translate(76.505 96.534)"/><path class="a" d="M116.448,125.206l-4.517,2.551a1.966,1.966,0,0,1-1.771,0L105.89,125.3c-.531-.319-.585-.779-.124-1.045l4.535-2.622a2.037,2.037,0,0,1,1.771,0l4.269,2.48C116.855,124.462,116.926,124.941,116.448,125.206Z" transform="translate(81.349 93.718)"/><path class="a" d="M122.759,121.579l-4.535,2.6a2.019,2.019,0,0,1-1.771,0l-4.322-2.5c-.531-.319-.585-.779-.124-1.045l4.535-2.622a2.037,2.037,0,0,1,1.771,0l4.269,2.48C123.166,120.835,123.219,121.3,122.759,121.579Z" transform="translate(86.163 90.933)"/><path class="a" d="M129.013,117.943l-4.535,2.6a2.037,2.037,0,0,1-1.771,0l-4.287-2.462c-.531-.319-.585-.779-.124-1.045l4.535-2.622a2.037,2.037,0,0,1,1.771,0l4.269,2.462C129.421,117.2,129.474,117.66,129.013,117.943Z" transform="translate(91.015 88.156)"/><path class="a" d="M135.283,114.306l-4.535,2.622a2.037,2.037,0,0,1-1.771,0l-4.269-2.462c-.549-.319-.6-.779-.142-1.045L129.1,110.8a2.037,2.037,0,0,1,1.771,0l4.287,2.462C135.69,113.579,135.743,114.04,135.283,114.306Z" transform="translate(95.853 85.364)"/><path class="a" d="M141.55,110.684l-4.535,2.622a2.037,2.037,0,0,1-1.771,0l-4.269-2.462c-.531-.319-.6-.779-.142-1.045l4.535-2.622a2.072,2.072,0,0,1,1.771,0l4.269,2.462C141.993,109.958,141.993,110.418,141.55,110.684Z" transform="translate(100.692 82.573)"/><path class="a" d="M147.822,107.095l-4.535,2.622a2.037,2.037,0,0,1-1.771,0l-4.322-2.533c-.531-.319-.6-.779-.124-1.063l4.517-2.6a2.073,2.073,0,0,1,1.771,0l4.269,2.462C148.265,106.3,148.318,106.829,147.822,107.095Z" transform="translate(105.491 79.749)"/><path class="a" d="M116.146,132.226l-4.535,2.622a2.073,2.073,0,0,1-1.771,0l-4.269-2.462c-.531-.319-.585-.779-.124-1.045l4.535-2.622a2.037,2.037,0,0,1,1.771,0l4.269,2.462C116.535,131.5,116.606,131.96,116.146,132.226Z" transform="translate(81.102 99.187)"/><path class="a" d="M122.439,128.685l-4.535,2.622a2.037,2.037,0,0,1-1.771,0l-4.322-2.622c-.531-.319-.585-.779-.124-1.045l4.535-2.622a2.037,2.037,0,0,1,1.771,0l4.269,2.462C122.846,127.941,122.9,128.4,122.439,128.685Z" transform="translate(85.916 96.333)"/><path class="a" d="M128.693,124.986l-4.535,2.622a2.037,2.037,0,0,1-1.771,0l-4.269-2.462c-.549-.319-.6-.779-.142-1.063l4.535-2.6a2.037,2.037,0,0,1,1.771,0l4.269,2.462C129.1,124.33,129.153,124.72,128.693,124.986Z" transform="translate(90.769 93.602)"/><path class="a" d="M134.963,121.366l-4.535,2.622a2.037,2.037,0,0,1-1.771,0l-4.269-2.48c-.549-.3-.6-.762-.142-1.045l4.535-2.6a2.019,2.019,0,0,1,1.771,0l4.269,2.462C135.37,120.64,135.423,121.1,134.963,121.366Z" transform="translate(95.606 90.809)"/><path class="a" d="M141.229,117.749l-4.535,2.622a2.037,2.037,0,0,1-1.771,0l-4.269-2.48c-.531-.3-.6-.779-.124-1.045l4.517-2.6a1.966,1.966,0,0,1,1.771,0l4.269,2.462C141.636,117.023,141.689,117.519,141.229,117.749Z" transform="translate(100.446 88.014)"/><path class="a" d="M147.5,114.114l-4.535,2.639a1.984,1.984,0,0,1-1.771,0l-4.269-2.462c-.531-.3-.6-.779-.124-1.045l4.517-2.6a1.966,1.966,0,0,1,1.771,0l4.269,2.462C147.906,113.37,148.03,113.848,147.5,114.114Z" transform="translate(105.283 85.237)"/><path class="a" d="M153.819,110.547l-4.517,2.622a2.02,2.02,0,0,1-1.771-.089l-4.34-2.462c-.531-.3-.585-.779-.124-1.045l4.535-2.622a1.984,1.984,0,0,1,1.771,0l4.269,2.462C154.173,109.8,154.244,110.281,153.819,110.547Z" transform="translate(110.123 82.391)"/><path class="a" d="M148.913,164.852l-4.535,2.622a1.984,1.984,0,0,1-1.771-.089l-4.269-2.462c-.549-.3-.6-.779-.142-1.045l4.535-2.6a1.931,1.931,0,0,1,1.771,0l4.287,2.462C149.32,164.108,149.373,164.586,148.913,164.852Z" transform="translate(106.367 124.291)"/><path class="a" d="M128.38,132.043l-4.553,2.622a1.984,1.984,0,0,1-1.771,0l-4.269-2.462c-.549-.3-.6-.779-.142-1.045l4.535-2.6a1.931,1.931,0,0,1,1.771,0l4.287,2.462C128.788,131.282,128.841,131.778,128.38,132.043Z" transform="translate(90.514 99.051)"/><path class="a" d="M134.639,128.426l-4.535,2.622a1.984,1.984,0,0,1-1.771,0l-4.269-2.462c-.531-.3-.6-.779-.124-1.045l4.517-2.622a2.019,2.019,0,0,1,1.771,0l4.269,2.462C135.046,127.683,135.1,128.161,134.639,128.426Z" transform="translate(95.363 96.255)"/><path class="a" d="M140.909,124.806l-4.535,2.622a1.984,1.984,0,0,1-1.771,0l-4.269-2.462c-.531-.3-.6-.779-.124-1.045l4.517-2.622a2.019,2.019,0,0,1,1.771,0l4.216,2.462C141.316,124.062,141.369,124.47,140.909,124.806Z" transform="translate(100.199 93.463)"/><path class="a" d="M147.168,121.227l-4.517,2.533a1.966,1.966,0,0,1-1.771,0L136.61,121.3c-.531-.3-.585-.779-.124-1.045l4.535-2.622a1.984,1.984,0,0,1,1.771,0l4.269,2.462C147.575,120.483,147.646,120.961,147.168,121.227Z" transform="translate(105.047 90.63)"/><path class="a" d="M153.479,117.685l-4.535,2.6a1.966,1.966,0,0,1-1.771,0l-4.322-2.6c-.531-.319-.585-.779-.124-1.045l4.535-2.622a2.037,2.037,0,0,1,1.771,0l4.269,2.48C153.868,116.853,153.939,117.331,153.479,117.685Z" transform="translate(109.861 87.847)"/><path class="a" d="M159.733,113.953l-4.535,2.6a1.984,1.984,0,0,1-1.771,0L149.14,114.1c-.531-.319-.585-.779-.124-1.045l4.535-2.622a2.037,2.037,0,0,1,1.771,0l4.269,2.48C160.141,113.209,160.194,113.67,159.733,113.953Z" transform="translate(114.713 85.078)"/><path class="a" d="M148.943,172.086l-4.535,2.6a1.931,1.931,0,0,1-1.771,0l-4.287-2.462c-.531-.3-.585-.779-.124-1.045l4.535-2.622a1.984,1.984,0,0,1,1.771,0l4.269,2.462C149.351,171.271,149.4,171.82,148.943,172.086Z" transform="translate(106.389 129.918)"/><path class="a" d="M155.213,168.463l-4.535,2.6a1.931,1.931,0,0,1-1.771,0l-4.269-2.462c-.549-.319-.6-.779-.142-1.045l4.535-2.622a2.037,2.037,0,0,1,1.771,0l4.269,2.48C155.62,167.719,155.673,168.2,155.213,168.463Z" transform="translate(111.227 127.128)"/><path class="a" d="M148.623,179.136l-4.535,2.622a2.037,2.037,0,0,1-1.771,0l-4.269-2.462c-.549-.319-.6-.779-.142-1.045l4.535-2.622a2.037,2.037,0,0,1,1.771,0l4.269,2.462C149.03,178.392,149.083,178.852,148.623,179.136Z" transform="translate(106.143 135.374)"/><path class="a" d="M154.893,175.506l-4.535,2.622a2.037,2.037,0,0,1-1.771,0l-4.269-2.462c-.549-.319-.6-.779-.142-1.045L148.71,172a2.037,2.037,0,0,1,1.771,0l4.251,2.462C155.3,174.779,155.353,175.24,154.893,175.506Z" transform="translate(110.98 132.574)"/><path class="a" d="M154.573,182.616l-4.535,2.622a2.037,2.037,0,0,1-1.771,0L144,182.758c-.549-.3-.6-.762-.142-1.045l4.535-2.6a2.019,2.019,0,0,1,1.771,0l4.269,2.462C154.98,181.8,154.98,182.262,154.573,182.616Z" transform="translate(110.733 138.058)"/><path class="a" d="M160.8,178.949l-4.535,2.622a2.037,2.037,0,0,1-1.771,0l-4.269-2.48c-.531-.3-.6-.779-.124-1.045l4.517-2.6a1.966,1.966,0,0,1,1.771,0l4.269,2.462C161.277,178.223,161.33,178.683,160.8,178.949Z" transform="translate(115.543 135.224)"/><path class="a" d="M160.873,186.19l-4.535,2.622a1.984,1.984,0,0,1-1.771,0L150.3,186.35c-.549-.3-.6-.779-.142-1.045l4.535-2.622a1.984,1.984,0,0,1,1.771.089l4.287,2.374C161.28,185.446,161.333,185.924,160.873,186.19Z" transform="translate(115.593 140.844)"/><path class="a" d="M167.155,182.668l-4.535,2.6a1.931,1.931,0,0,1-1.771,0l-4.3-2.6c-.531-.3-.6-.779-.142-1.045L160.938,179a2.02,2.02,0,0,1,1.771.089l4.269,2.462C167.563,181.871,167.616,182.349,167.155,182.668Z" transform="translate(120.417 138.007)"/><path class="a" d="M166.822,189.629l-4.535,2.6a2.037,2.037,0,0,1-1.771,0l-4.322-2.48c-.531-.319-.6-.779-.124-1.045l4.517-2.622a2.073,2.073,0,0,1,1.771,0l4.269,2.462C167.265,188.939,167.318,189.4,166.822,189.629Z" transform="translate(120.148 143.445)"/><path class="a" d="M173.089,186.016l-4.535,2.622a2.037,2.037,0,0,1-1.771,0l-4.269-2.462c-.531-.319-.6-.779-.124-1.045l4.535-2.622a2.037,2.037,0,0,1,1.771,0l4.269,2.462C173.5,185.307,173.567,185.75,173.089,186.016Z" transform="translate(125.024 140.682)"/><path class="a" d="M172.819,193.109l-4.517,2.622a2.073,2.073,0,0,1-1.771,0l-4.34-2.551c-.531-.3-.585-.762-.124-1.045l4.535-2.6a1.984,1.984,0,0,1,1.771,0l4.269,2.462C173.173,192.383,173.244,192.843,172.819,193.109Z" transform="translate(124.78 146.094)"/><path class="a" d="M179.046,189.461l-4.535,2.622a2.072,2.072,0,0,1-1.771,0l-4.269-2.48c-.531-.3-.585-.779-.124-1.045l4.535-2.6a1.931,1.931,0,0,1,1.771,0l4.269,2.462C179.435,188.735,179.506,189.2,179.046,189.461Z" transform="translate(129.624 143.33)"/><path class="a" d="M179.066,196.739l-4.535,2.622a1.984,1.984,0,0,1-1.771-.089l-4.269-2.462c-.531-.3-.585-.779-.124-1.045l4.535-2.622a1.984,1.984,0,0,1,1.771.089l4.269,2.462C179.473,195.995,179.544,196.562,179.066,196.739Z" transform="translate(129.64 148.913)"/><path class="a" d="M185.32,193.049l-4.5,2.693a1.966,1.966,0,0,1-1.771,0l-4.269-2.462c-.531-.3-.585-.779-.124-1.045l4.535-2.622a1.984,1.984,0,0,1,1.771.089l4.269,2.462C185.728,192.305,185.8,192.784,185.32,193.049Z" transform="translate(134.492 146.189)"/><path class="a" d="M191.616,189.483l-4.535,2.6a1.966,1.966,0,0,1-1.771,0l-4.269-2.462c-.531-.3-.585-.779-.124-1.045l4.535-2.622a2.037,2.037,0,0,1,1.771,0l4.269,2.48C192.023,188.739,192.076,189.218,191.616,189.483Z" transform="translate(139.321 143.343)"/><path class="a" d="M197.893,185.863l-4.535,2.6a1.984,1.984,0,0,1-1.771,0l-4.287-2.462c-.531-.319-.585-.779-.124-1.045l4.535-2.622a2.037,2.037,0,0,1,1.771,0l4.269,2.48C198.3,185.119,198.354,185.6,197.893,185.863Z" transform="translate(144.15 140.55)"/><path class="a" d="M204.163,182.243l-4.535,2.6a2.037,2.037,0,0,1-1.771,0l-4.269-2.462c-.549-.319-.6-.779-.142-1.045l4.535-2.622a2.037,2.037,0,0,1,1.771,0l4.287,2.48C204.57,181.5,204.623,181.96,204.163,182.243Z" transform="translate(148.987 137.758)"/><path class="a" d="M210.445,178.683l-4.535,2.622a2.037,2.037,0,0,1-1.771,0l-4.3-2.622c-.531-.319-.6-.779-.142-1.045l4.535-2.622a2.072,2.072,0,0,1,1.771,0l4.269,2.462C210.853,177.939,210.906,178.4,210.445,178.683Z" transform="translate(153.811 134.905)"/><path class="a" d="M216.7,174.984l-4.535,2.622a2.037,2.037,0,0,1-1.771,0l-4.269-2.462c-.531-.319-.6-.779-.124-1.045l4.517-2.622a2.073,2.073,0,0,1,1.771,0l4.269,2.462C217.106,174.329,217.159,174.718,216.7,174.984Z" transform="translate(158.665 132.174)"/><path class="a" d="M222.961,171.366l-4.517,2.622a2.073,2.073,0,0,1-1.771,0l-4.269-2.462c-.531-.319-.6-.779-.124-1.063l4.535-2.6a2.037,2.037,0,0,1,1.771,0l4.269,2.462C223.368,170.639,223.439,171.1,222.961,171.366Z" transform="translate(163.509 129.38)"/><path class="a" d="M191.319,196.526l-4.535,2.622a2.037,2.037,0,0,1-1.771,0l-4.322-2.462c-.531-.319-.585-.779-.124-1.045l4.535-2.622a2.037,2.037,0,0,1,1.771,0l4.269,2.462C191.726,195.8,191.779,196.26,191.319,196.526Z" transform="translate(139.051 148.789)"/><path class="a" d="M197.573,192.906l-4.535,2.622a2.037,2.037,0,0,1-1.771,0L187,193.065c-.549-.319-.6-.779-.142-1.045l4.535-2.622a2.037,2.037,0,0,1,1.771,0l4.287,2.462C197.98,192.179,197.98,192.64,197.573,192.906Z" transform="translate(143.904 145.997)"/><path class="a" d="M203.8,189.284l-4.535,2.622a2.037,2.037,0,0,1-1.771,0l-4.269-2.462c-.549-.319-.6-.779-.142-1.045l4.535-2.622a2.073,2.073,0,0,1,1.771,0l4.269,2.462C204.281,188.558,204.334,189.018,203.8,189.284Z" transform="translate(148.71 143.206)"/><path class="a" d="M210.109,185.72l-4.535,2.622a2.037,2.037,0,0,1-1.771,0l-4.269-2.48c-.531-.3-.6-.762-.124-1.045l4.482-2.728a2.019,2.019,0,0,1,1.771,0l4.269,2.462C210.516,184.994,210.569,185.455,210.109,185.72Z" transform="translate(153.581 140.357)"/><path class="a" d="M216.394,182.046l-4.57,2.622a2.037,2.037,0,0,1-1.771,0l-4.269-2.48c-.531-.3-.6-.779-.124-1.045l4.517-2.6a2.02,2.02,0,0,1,1.771,0L216.217,181C216.8,181.285,216.855,181.781,216.394,182.046Z" transform="translate(158.403 137.618)"/><path class="a" d="M222.638,178.431l-4.517,2.622a2.073,2.073,0,0,1-1.771,0l-4.269-2.48c-.531-.3-.585-.779-.124-1.045l4.535-2.6a1.931,1.931,0,0,1,1.771,0l4.269,2.462C223.045,177.687,223.116,178.165,222.638,178.431Z" transform="translate(163.266 134.821)"/><path class="a" d="M149.632,92.7l4.269,2.462c.549.3.6.779.142,1.045l-4.535,2.622a1.984,1.984,0,0,1-1.771,0l-4.269-2.462c-.549-.3-.6-.779-.142-1.045L147.86,92.7A1.984,1.984,0,0,1,149.632,92.7Z" transform="translate(110.324 71.398)"/><path class="a" d="M147.819,99.862l-4.535,2.622a2.037,2.037,0,0,1-1.771,0l-4.322-2.551c-.531-.3-.585-.779-.124-1.045l4.535-2.6a1.931,1.931,0,0,1,1.771,0l4.269,2.462C148.173,99.136,148.226,99.6,147.819,99.862Z" transform="translate(105.495 74.157)"/><path class="a" d="M160.015,90.38c.531.3.585.779.124,1.045l-4.446,2.622a1.984,1.984,0,0,1-1.771,0l-4.393-2.569C148.979,91.195,160.015,90.38,160.015,90.38Z" transform="translate(115.334 69.769)"/><path class="a" d="M160.328,99.884l-4.5,2.6a1.931,1.931,0,0,1-1.771,0l-4.287-2.462c-.531-.319-.585-.779-.124-1.045l4.411-2.693a2.037,2.037,0,0,1,1.771,0l4.269,2.48C160.735,99.14,160.788,99.618,160.328,99.884Z" transform="translate(115.199 74.17)"/><path class="a" d="M154.066,103.458l-4.535,2.6a1.966,1.966,0,0,1-1.771,0L143.49,103.6c-.531-.3-.585-.779-.124-1.045l4.535-2.622a1.984,1.984,0,0,1,1.771.089l4.269,2.462C154.455,102.714,154.526,103.192,154.066,103.458Z" transform="translate(110.354 77.009)"/><path class="a" d="M166.613,96.233l-4.535,2.6a1.984,1.984,0,0,1-1.771,0l-4.269-2.462c-.549-.319-.6-.779-.142-1.045l4.535-2.622a2.037,2.037,0,0,1,1.771,0l4.287,2.48C166.949,95.489,167.073,95.95,166.613,96.233Z" transform="translate(120.021 71.409)"/><path class="a" d="M172.9,92.629l-4.535,2.6a2.037,2.037,0,0,1-1.771,0l-4.3-2.6c-.549-.319-.6-.779-.142-1.045l4.535-2.5a2.072,2.072,0,0,1,1.771,0l4.3,2.462C173.305,91.868,173.359,92.328,172.9,92.629Z" transform="translate(124.842 68.618)"/><path class="a" d="M174.756,85.39l4.269,2.462c.531.319.585.779.124,1.045l-4.535,2.622a2.037,2.037,0,0,1-1.771,0l-4.269-2.462c-.531-.319-.6-.779-.124-1.045C168.414,87.941,174.206,85.089,174.756,85.39Z" transform="translate(129.698 65.902)"/><path class="a" d="M180.848,81.768l4.269,2.462c.531.319.6.779.124,1.045L180.706,87.9a2.037,2.037,0,0,1-1.771,0l-4.269-2.462C174.1,85.045,180.317,81.467,180.848,81.768Z" transform="translate(134.713 63.112)"/><path class="a" d="M166.293,103.3l-4.535,2.622a2.037,2.037,0,0,1-1.771,0l-4.269-2.462c-.549-.319-.6-.779-.142-1.045l4.535-2.693a2.073,2.073,0,0,1,1.771,0l4.269,2.462C166.7,102.579,166.753,103.039,166.293,103.3Z" transform="translate(119.774 76.826)"/><path class="a" d="M160.023,106.9l-4.535,2.622a2.037,2.037,0,0,1-1.771,0l-4.269-2.462c-.549-.319-.6-.779-.142-1.045l4.535-2.622a2.037,2.037,0,0,1,1.771,0l4.269,2.462C160.43,106.169,160.483,106.63,160.023,106.9Z" transform="translate(114.937 79.647)"/><path class="a" d="M172.559,99.629l-4.535,2.622a2.037,2.037,0,0,1-1.771,0l-4.269-2.462c-.531-.319-.6-.779-.124-1.063l4.482-2.639a2.073,2.073,0,0,1,1.771,0l4.269,2.462C172.984,98.974,172.984,99.435,172.559,99.629Z" transform="translate(124.615 74.018)"/><path class="a" d="M178.822,96.067l-4.535,2.622a2.037,2.037,0,0,1-1.771,0l-4.322-2.551c-.531-.3-.6-.762-.124-1.045l4.517-2.6a2.019,2.019,0,0,1,1.771,0l4.464,2.533C179.282,95.323,179.336,95.8,178.822,96.067Z" transform="translate(129.405 71.238)"/><path class="a" d="M191.391,88.793l-4.57,2.622a2.019,2.019,0,0,1-1.771,0l-4.269-2.462c-.531-.3-.585-.779-.124-1.045l4.535-2.6a1.931,1.931,0,0,1,1.771,0l4.269,2.462C191.781,88.049,191.852,88.475,191.391,88.793Z" transform="translate(139.12 65.687)"/><path class="a" d="M197.653,85.248,193.119,87.8a1.984,1.984,0,0,1-1.771-.089l-4.287-2.462c-.531-.3-.585-.779-.124-1.045l4.535-2.622a1.984,1.984,0,0,1,1.771,0l4.269,2.675C198.061,84.5,198.114,84.982,197.653,85.248Z" transform="translate(143.965 62.82)"/><path class="a" d="M197.72,78a1.984,1.984,0,0,1,1.771,0l4.234,2.551c.549.3.6.779.142,1.045l-4.535,2.622a1.984,1.984,0,0,1-1.771,0L193.327,81.7c-.549-.3-.6-.779-.142-1.045l4.535-2.622Z" transform="translate(148.787 60.059)"/><path class="a" d="M205.619,74.349l4.269,2.462c.531.3.585.779.124,1.045l-4.535,2.622a1.984,1.984,0,0,1-1.771,0l-4.269-2.462C198.852,77.626,205.07,74.03,205.619,74.349Z" transform="translate(153.82 57.387)"/><path class="a" d="M214.406,72.708l-4.535,2.6a1.931,1.931,0,0,1-1.771,0S214.867,72.442,214.406,72.708Z" transform="translate(160.532 56.123)"/><path class="a" d="M172.239,106.711l-4.535,2.622a1.984,1.984,0,0,1-1.771,0l-4.269-2.462c-.531-.3-.6-.779-.124-1.045l4.517-2.6a1.966,1.966,0,0,1,1.771,0l4.269,2.462C172.646,105.967,172.7,106.534,172.239,106.711Z" transform="translate(124.368 79.513)"/><path class="a" d="M165.97,110.339l-4.535,2.622a2.037,2.037,0,0,1-1.771,0l-4.269-2.48c-.531-.3-.6-.779-.142-1.045l4.535-2.6a1.966,1.966,0,0,1,1.771,0l4.269,2.462C166.377,109.613,166.431,110.073,165.97,110.339Z" transform="translate(119.53 82.297)"/><path class="a" d="M178.5,103.067l-4.517,2.693a2.019,2.019,0,0,1-1.771,0L167.94,103.3c-.531-.3-.585-.779-.124-1.045l4.535-2.622a1.984,1.984,0,0,1,1.771,0l4.269,2.462C178.905,102.323,179.012,102.8,178.5,103.067Z" transform="translate(129.215 76.744)"/><path class="a" d="M184.819,99.517l-4.535,2.622a2.019,2.019,0,0,1-1.771,0l-4.322-2.551c-.531-.3-.585-.779-.124-1.045l4.535-2.622a1.984,1.984,0,0,1,1.771,0l4.269,2.462C185.191,98.773,185.262,99.251,184.819,99.517Z" transform="translate(134.037 73.882)"/><path class="a" d="M191.063,95.848l-4.535,2.6a1.931,1.931,0,0,1-1.771,0L180.47,95.99c-.531-.3-.585-.779-.124-1.045l4.535-2.622a1.984,1.984,0,0,1,1.771.089l4.269,2.462C191.471,95.1,191.524,95.582,191.063,95.848Z" transform="translate(138.881 71.139)"/><path class="a" d="M197.309,92.274l-4.482,2.6a1.931,1.931,0,0,1-1.771,0l-4.269-2.462c-.549-.319-.6-.779-.142-1.045l4.411-2.693a2.037,2.037,0,0,1,1.771,0l4.269,2.48C197.717,91.53,197.77,92.008,197.309,92.274Z" transform="translate(143.742 68.3)"/><path class="a" d="M203.618,88.631l-4.535,2.6a1.984,1.984,0,0,1-1.771,0l-4.3-2.6c-.549-.319-.6-.779-.142-1.045l4.535-2.5a2.037,2.037,0,0,1,1.771,0l4.287,2.48C203.972,87.887,204.079,88.348,203.618,88.631Z" transform="translate(148.54 65.531)"/><path class="a" d="M209.87,85l-4.535,2.6a2.037,2.037,0,0,1-1.771,0l-4.269-2.462c-.531-.319-.6-.779-.142-1.045l4.535-2.622a2.073,2.073,0,0,1,1.771,0l4.287,2.462C210.277,84.329,210.331,84.718,209.87,85Z" transform="translate(153.395 62.747)"/><path class="a" d="M216.139,81.364,211.6,83.986a2.037,2.037,0,0,1-1.771,0l-4.269-2.462c-.531-.319-.6-.779-.124-1.045l4.517-2.622a2.073,2.073,0,0,1,1.771,0L216,80.319C216.546,80.638,216.6,81.1,216.139,81.364Z" transform="translate(158.233 59.955)"/><path class="a" d="M222.4,77.746l-4.517,2.622a2.072,2.072,0,0,1-1.771,0l-4.269-2.462c-.531-.319-.585-.779-.124-1.045l4.535-2.622a2.037,2.037,0,0,1,1.771,0l4.269,2.462C222.805,77.019,222.876,77.515,222.4,77.746Z" transform="translate(163.08 57.161)"/><path class="a" d="M228.668,74.118l-4.517,2.639a2.073,2.073,0,0,1-1.771,0L218.11,74.3c-.531-.319-.585-.779-.124-1.063l4.535-2.6a2.037,2.037,0,0,1,1.771,0l4.269,2.462C229.075,73.392,229.146,73.852,228.668,74.118Z" transform="translate(167.917 54.376)"/><path class="a" d="M234.963,70.508l-4.535,2.622a2.037,2.037,0,0,1-1.771,0l-4.287-2.48c-.531-.3-.585-.762-.124-1.045l4.535-2.6a1.984,1.984,0,0,1,1.771,0l4.269,2.462C235.371,69.782,235.424,70.243,234.963,70.508Z" transform="translate(172.746 51.573)"/><path class="a" d="M236.641,63.3l4.269,2.462c.549.319.6.779.142,1.045l-4.535,2.622a2.037,2.037,0,0,1-1.771,0l-4.269-2.48C229.892,66.576,236.11,62.98,236.641,63.3Z" transform="translate(177.764 48.863)"/><path class="a" d="M247.305,61.727l-4.535,2.622A1.984,1.984,0,0,1,241,64.26L236.73,61.8a66.251,66.251,0,0,1,10.575-.071Z" transform="translate(182.618 47.529)"/><path class="a" d="M191.068,103.1l-4.517,2.657a2.073,2.073,0,0,1-1.771,0L180.51,103.3c-.531-.319-.585-.779-.124-1.045l4.535-2.622a2.037,2.037,0,0,1,1.771,0l4.269,2.462C191.475,102.356,191.546,102.817,191.068,103.1Z" transform="translate(138.912 76.747)"/><path class="a" d="M197.356,99.486l-4.535,2.622a2.073,2.073,0,0,1-1.771,0l-4.269-2.462c-.531-.319-.585-.779-.124-1.045l4.535-2.622a2.037,2.037,0,0,1,1.771,0l4.269,2.462C197.745,98.759,197.816,99.22,197.356,99.486Z" transform="translate(143.749 73.931)"/><path class="a" d="M203.633,95.866,199.1,98.487a2.037,2.037,0,0,1-1.771,0l-4.287-2.462c-.531-.319-.585-.779-.124-1.045l4.535-2.622a2.037,2.037,0,0,1,1.771,0l4.269,2.462C204.041,95.139,204.094,95.6,203.633,95.866Z" transform="translate(148.578 71.139)"/><path class="a" d="M209.9,92.246l-4.535,2.622a2.037,2.037,0,0,1-1.771,0l-4.269-2.462c-.549-.319-.6-.779-.142-1.063l4.535-2.6a2.037,2.037,0,0,1,1.771,0l4.234,2.391C210.31,91.519,210.363,91.98,209.9,92.246Z" transform="translate(153.415 68.346)"/><path class="a" d="M216.173,88.632l-4.535,2.622a2.037,2.037,0,0,1-1.771,0l-4.269-2.48c-.549-.3-.6-.762-.142-1.045l4.5-2.639a2.019,2.019,0,0,1,1.771,0L216,87.551C216.58,87.923,216.633,88.384,216.173,88.632Z" transform="translate(158.252 65.53)"/><path class="a" d="M222.439,85.009,217.9,87.631a2.037,2.037,0,0,1-1.771,0l-4.269-2.48c-.531-.3-.6-.779-.124-1.045l4.517-2.6a1.966,1.966,0,0,1,1.771,0l4.269,2.462C222.846,84.318,222.9,84.743,222.439,85.009Z" transform="translate(163.093 62.758)"/><path class="a" d="M228.709,81.389l-4.535,2.622a2.037,2.037,0,0,1-1.771,0l-4.269-2.48c-.531-.3-.6-.779-.124-1.045l4.517-2.6a1.966,1.966,0,0,1,1.771,0l4.269,2.462C229.116,80.645,229.169,81.123,228.709,81.389Z" transform="translate(167.929 59.965)"/><path class="a" d="M234.968,77.768l-4.517,2.622a2.019,2.019,0,0,1-1.771,0l-4.269-2.462c-.531-.3-.585-.779-.124-1.045l4.535-2.622a1.984,1.984,0,0,1,1.771,0l4.269,2.462C235.375,77.024,235.446,77.5,234.968,77.768Z" transform="translate(172.777 57.174)"/><path class="a" d="M241.256,74.187l-4.535,2.6a2.019,2.019,0,0,1-1.771-.089L230.68,74.24c-.531-.3-.585-.779-.124-1.045l4.57-2.6a1.984,1.984,0,0,1,1.771,0l4.269,2.462C241.645,73.443,241.716,73.921,241.256,74.187Z" transform="translate(177.614 54.342)"/><path class="a" d="M247.549,70.51l-4.535,2.622a1.984,1.984,0,0,1-1.771,0L236.92,70.67c-.531-.3-.585-.779-.124-1.045L241.331,67a1.984,1.984,0,0,1,1.771.089l4.269,2.462C248.027,69.766,248.027,70.244,247.549,70.51Z" transform="translate(182.427 51.607)"/><path class="a" d="M253.826,66.944l-4.535,2.6a1.931,1.931,0,0,1-1.771,0L243.2,67.015c-.549-.3-.6-.779-.142-1.045l4.535-2.622a2.037,2.037,0,0,1,1.771,0l4.269,2.48C254.233,66.2,254.286,66.678,253.826,66.944Z" transform="translate(187.257 48.76)"/><path class="a" d="M255.679,59.69l4.269,2.48c.531.3.585.779.124,1.045l-4.535,2.6a1.984,1.984,0,0,1-1.771,0L249.5,63.357c-.549-.319-.6-.779-.142-1.045C249.32,62.241,255.13,59.389,255.679,59.69Z" transform="translate(192.117 46.077)"/><path class="a" d="M264.271,58.059l-4.5,2.6a2.037,2.037,0,0,1-1.771,0S264.731,57.775,264.271,58.059Z" transform="translate(199.026 44.821)"/><path class="a" d="M215.849,95.756l-4.535,2.622a1.984,1.984,0,0,1-1.771,0l-4.269-2.462c-.531-.3-.6-.779-.124-1.045l4.482-2.781a2.019,2.019,0,0,1,1.771,0l4.358,2.622C216.256,95.012,216.309,95.49,215.849,95.756Z" transform="translate(158.009 70.93)"/><path class="a" d="M222.119,92.105l-4.535,2.622a1.984,1.984,0,0,1-1.771-.089l-4.269-2.462c-.531-.3-.6-.779-.124-1.045l4.517-2.622a2.019,2.019,0,0,1,1.771,0l4.269,2.462C222.526,91.308,222.579,91.839,222.119,92.105Z" transform="translate(162.846 68.168)"/><path class="a" d="M228.409,88.448l-4.588,2.622a2.019,2.019,0,0,1-1.771,0l-4.269-2.462c-.531-.3-.585-.779-.124-1.045l4.535-2.622a1.984,1.984,0,0,1,1.771,0l4.269,2.462C228.816,87.7,228.887,88.183,228.409,88.448Z" transform="translate(167.663 65.412)"/><path class="a" d="M234.666,84.833l-4.535,2.6a1.966,1.966,0,0,1-1.771,0l-4.269-2.462c-.531-.319-.585-.779-.124-1.045l4.535-2.622a2.037,2.037,0,0,1,1.771,0l4.269,2.48C235.055,84.089,235.126,84.568,234.666,84.833Z" transform="translate(172.53 62.615)"/><path class="a" d="M240.943,81.213l-4.535,2.6a1.984,1.984,0,0,1-1.771,0l-4.287-2.462c-.531-.319-.585-.779-.124-1.045l4.535-2.622a2.037,2.037,0,0,1,1.771,0l4.269,2.48C241.351,80.469,241.4,80.93,240.943,81.213Z" transform="translate(177.359 59.822)"/><path class="a" d="M247.228,77.685l-4.535,2.6a1.984,1.984,0,0,1-1.771,0l-4.3-2.6c-.549-.319-.6-.779-.142-1.045l4.535-2.622a2.037,2.037,0,0,1,1.771,0l4.269,2.462C247.635,76.888,247.689,77.348,247.228,77.685Z" transform="translate(182.181 56.991)"/><path class="a" d="M253.483,73.956l-4.535,2.622a2.037,2.037,0,0,1-1.771,0l-4.269-2.462c-.549-.319-.6-.779-.142-1.045l4.535-2.622a2.037,2.037,0,0,1,1.771,0l4.287,2.462C253.89,73.229,253.943,73.69,253.483,73.956Z" transform="translate(187.034 54.237)"/><path class="a" d="M259.823,70.365l-4.535,2.622a2.037,2.037,0,0,1-1.771,0l-4.322-2.533c-.531-.319-.6-.779-.142-1.045l4.535-2.622a2.073,2.073,0,0,1,1.771,0l4.269,2.462C260.142,69.639,260.2,70.1,259.823,70.365Z" transform="translate(191.888 51.415)"/><path class="a" d="M266.019,66.714l-4.535,2.622a2.037,2.037,0,0,1-1.771,0l-4.269-2.462c-.531-.319-.6-.779-.124-1.045l4.517-2.622a2.073,2.073,0,0,1,1.771,0l4.269,2.462C266.426,65.988,266.479,66.537,266.019,66.714Z" transform="translate(196.711 48.654)"/><path class="a" d="M272.278,63.129l-4.517,2.693a2.073,2.073,0,0,1-1.771,0l-4.269-2.48c-.531-.3-.585-.762-.124-1.045l4.5-2.746a1.984,1.984,0,0,1,1.771,0l4.269,2.462C272.685,62.4,272.756,62.863,272.278,63.129Z" transform="translate(201.558 45.826)"/><path class="a" d="M274.155,55.891l4.269,2.462c.531.319.6.779.142,1.045l-4.535,2.622a2.073,2.073,0,0,1-1.771,0l-4.269-2.48c-.531-.3-.585-.779-.124-1.045C267.813,58.424,273.659,55.572,274.155,55.891Z" transform="translate(206.395 43.144)"/><path class="a" d="M234.346,91.906l-4.517,2.622a2.037,2.037,0,0,1-1.771,0l-4.287-2.462c-.531-.319-.585-.779-.124-1.045l4.411-2.693a2.037,2.037,0,0,1,1.771,0L234.1,90.79C234.753,91.18,234.806,91.641,234.346,91.906Z" transform="translate(172.283 68.03)"/><path class="a" d="M240.623,88.256l-4.535,2.622a2.037,2.037,0,0,1-1.771,0l-4.269-2.462c-.549-.319-.6-.779-.142-1.045l4.535-2.622a2.037,2.037,0,0,1,1.771,0l4.269,2.462C241.03,87.529,241.083,87.99,240.623,88.256Z" transform="translate(177.113 65.268)"/><path class="a" d="M246.893,84.631l-4.535,2.622a2.037,2.037,0,0,1-1.771,0l-4.269-2.462c-.549-.319-.6-.779-.142-1.063l4.5-2.639a2.037,2.037,0,0,1,1.771,0l4.287,2.533C247.3,83.94,247.353,84.4,246.893,84.631Z" transform="translate(181.95 62.445)"/><path class="a" d="M253.16,81.016l-4.535,2.622a2.037,2.037,0,0,1-1.771,0l-4.269-2.48c-.531-.3-.6-.762-.142-1.045l4.535-2.6a2.019,2.019,0,0,1,1.771,0l4.269,2.462C253.567,80.308,253.621,80.751,253.16,81.016Z" transform="translate(186.789 59.682)"/><path class="a" d="M259.429,77.4l-4.535,2.622a2.037,2.037,0,0,1-1.771,0l-4.269-2.48c-.531-.3-.6-.779-.124-1.045l4.517-2.6a1.966,1.966,0,0,1,1.771,0l4.269,2.462C259.836,76.673,259.889,77.133,259.429,77.4Z" transform="translate(191.627 56.887)"/><path class="a" d="M265.688,73.781,261.171,76.4a2.073,2.073,0,0,1-1.771,0l-4.269-2.48c-.531-.3-.585-.779-.124-1.045l4.535-2.6a1.931,1.931,0,0,1,1.771,0l4.269,2.462C266.1,73.037,266.166,73.5,265.688,73.781Z" transform="translate(196.475 54.093)"/><path class="a" d="M271.958,70.174l-4.517,2.586a2.019,2.019,0,0,1-1.771,0L261.4,70.3c-.531-.3-.585-.779-.124-1.045l4.535-2.622a1.984,1.984,0,0,1,1.771,0l4.251,2.586C272.365,69.43,272.436,69.908,271.958,70.174Z" transform="translate(201.312 51.288)"/><path class="a" d="M248.867,84.775c-.549-.3-.6-.779-.142-1.045l4.535-2.639a1.984,1.984,0,0,1,1.771,0l4.287,2.462c.531.3.585.779.124,1.045l-4.535,2.622a1.984,1.984,0,0,1-1.771,0l-4.269-2.462Z" transform="translate(191.631 62.442)"/><path class="a" d="M265.729,81.075,261.194,83.7a1.984,1.984,0,0,1-1.771-.089l-4.269-2.462c-.531-.3-.6-.779-.124-1.045l4.517-2.622a2.019,2.019,0,0,1,1.771,0l4.269,2.462C266.136,80.331,266.189,80.809,265.729,81.075Z" transform="translate(196.487 59.659)"/><path class="a" d="M272,77.422l-4.535,2.6a1.931,1.931,0,0,1-1.771,0l-4.269-2.462c-.531-.3-.6-.779-.124-1.045l4.517-2.622a2.073,2.073,0,0,1,1.771,0l4.269,2.48C272.406,76.678,272.459,77.156,272,77.422Z" transform="translate(201.324 56.9)"/><path class="a" d="M278.258,73.834l-4.517,2.6a1.966,1.966,0,0,1-1.771,0L267.7,73.976c-.531-.319-.585-.779-.124-1.045l4.535-2.693a2.037,2.037,0,0,1,1.771,0l4.269,2.48C278.665,73.09,278.736,73.515,278.258,73.834Z" transform="translate(206.172 54.075)"/><path class="a" d="M284.546,70.206l-4.535,2.551a2.019,2.019,0,0,1-1.771,0L273.97,70.3c-.531-.319-.585-.779-.124-1.045l4.535-2.622a2.037,2.037,0,0,1,1.771,0l4.269,2.48C284.988,69.462,284.988,69.923,284.546,70.206Z" transform="translate(211.008 51.29)"/><path class="a" d="M290.819,66.579l-4.535,2.6a2.037,2.037,0,0,1-1.771,0l-4.322-2.5c-.531-.319-.585-.779-.124-1.045l4.535-2.622a2.037,2.037,0,0,1,1.771,0l4.269,2.462C291.262,65.835,291.315,66.3,290.819,66.579Z" transform="translate(215.806 48.505)"/><path class="a" d="M284.233,77.226,279.7,79.847a2.037,2.037,0,0,1-1.771,0l-4.287-2.462c-.531-.319-.585-.779-.124-1.045l4.535-2.622a2.037,2.037,0,0,1,1.771,0l4.269,2.427C284.641,76.5,284.694,76.96,284.233,77.226Z" transform="translate(210.754 56.76)"/><path class="a" d="M290.518,73.634l-4.535,2.622a2.037,2.037,0,0,1-1.771,0l-4.3-2.622c-.549-.3-.6-.762-.142-1.045l4.535-2.5a1.984,1.984,0,0,1,1.771,0l4.269,2.462C290.925,72.89,291.049,73.35,290.518,73.634Z" transform="translate(215.576 53.957)"/><path class="a" d="M154.286,69.224l-4.535,2.533a1.966,1.966,0,0,1-1.771,0L143.71,69.3c-.531-.319-.585-.779-.124-1.045l4.517-2.622a2.037,2.037,0,0,1,1.771,0l4.269,2.48C154.675,68.48,154.746,68.958,154.286,69.224Z" transform="translate(110.524 50.519)"/><path class="a" d="M160.579,65.685l-4.535,2.6a1.984,1.984,0,0,1-1.771,0l-4.322-2.6c-.531-.319-.585-.779-.124-1.045l4.535-2.622a2.037,2.037,0,0,1,1.771,0L160.4,64.5C161,64.852,161,65.313,160.579,65.685Z" transform="translate(115.338 47.734)"/><path class="a" d="M160.568,72.816l-4.517,2.622a2.073,2.073,0,0,1-1.771,0l-4.269-2.462c-.531-.319-.585-.779-.124-1.045l4.535-2.622a2.037,2.037,0,0,1,1.771,0l4.269,2.462C160.958,72.089,161.046,72.55,160.568,72.816Z" transform="translate(115.384 53.358)"/><path class="a" d="M166.856,69.2l-4.535,2.622a2.073,2.073,0,0,1-1.771,0l-4.269-2.462c-.531-.319-.585-.779-.124-1.063l4.535-2.6a2.037,2.037,0,0,1,1.771,0l4.287,2.48C167.263,68.469,167.316,68.93,166.856,69.2Z" transform="translate(120.221 50.565)"/><path class="a" d="M154.3,61.974l-4.535,2.6a1.931,1.931,0,0,1-1.771,0l-4.269-2.462c-.549-.319-.6-.779-.142-1.045l4.517-2.693a2.037,2.037,0,0,1,1.771,0l4.287,2.48C154.71,61.23,154.763,61.708,154.3,61.974Z" transform="translate(110.525 44.926)"/><path class="a" d="M154.31,69.216l-4.482,2.622a2.037,2.037,0,0,1-1.771,0l-4.287-2.462c-.531-.319-.585-.779-.124-1.045l4.411-2.693a2.037,2.037,0,0,1,1.771,0l4.34,2.569C154.718,68.49,154.771,68.951,154.31,69.216Z" transform="translate(110.57 50.527)"/><path class="a" d="M172.826,72.616l-4.535,2.622a1.984,1.984,0,0,1-1.771,0L162.2,72.722c-.549-.3-.6-.779-.142-1.045l4.57-2.6a1.984,1.984,0,0,1,1.771.089l4.287,2.462C173.251,71.907,173.3,72.385,172.826,72.616Z" transform="translate(124.773 53.203)"/><path class="a" d="M265,40.816l4.535,2.622a2.037,2.037,0,0,0,1.771,0l4.269-2.462c.549-.319.6-.779.142-1.045l-4.535-2.622a2.037,2.037,0,0,0-1.771,0l-4.181,2.462C264.595,40.089,264.542,40.55,265,40.816Z" transform="translate(204.193 28.672)"/><path class="a" d="M258.706,44.461l4.535,2.622a2.037,2.037,0,0,0,1.771,0L269.3,44.6c.531-.3.585-.779.124-1.045l-4.535-2.6a1.931,1.931,0,0,0-1.771,0l-4.269,2.462C258.3,43.735,258.245,44.2,258.706,44.461Z" transform="translate(199.33 31.475)"/><path class="a" d="M258.786,37.175l4.535,2.586a2.037,2.037,0,0,0,1.771,0l4.269-2.48c.531-.3.6-.779.124-1.045l-4.517-2.6a1.966,1.966,0,0,0-1.771,0l-4.287,2.586C258.379,36.431,258.326,36.909,258.786,37.175Z" transform="translate(199.391 25.83)"/><path class="a" d="M332.725,44.9l-9.388-9.016c-4.464-6.625-8.166-3.862-17.448-9.211-35.694-20.655-93.619-20.655-129.473,0-9.282,5.314-15.039,2.586-19.486,9.211L149.65,44.9V65.771h0c.726,12.967,9.636,25.809,26.784,35.712,35.765,20.637,93.761,20.637,129.543,0C323.868,91.138,332.725,77.6,332.725,64h0Z" transform="translate(115.443 8.677)"/><ellipse class="b" cx="76.684" cy="40.672" rx="76.684" ry="40.672" transform="translate(279.938 14.592)"/><path class="a" d="M235.748,92.914c-20.035,0-40.069-4.039-55.339-12.134S156.69,61.7,156.69,49.9s8.432-22.745,23.719-30.876c30.521-16.191,80.174-16.191,110.678,0h0c15.3,8.131,23.808,19.1,23.808,30.876s-8.5,22.727-23.808,30.876S255.783,92.914,235.748,92.914Zm0-81.326c-19.22,0-38.457,3.9-53.142,11.656-13.675,7.245-21.257,16.722-21.257,26.66s7.529,19.486,21.257,26.571c29.281,15.535,76.915,15.535,106.285,0,13.658-7.245,21.257-16.722,21.257-26.571s-7.511-19.486-21.257-26.571h0C274.152,15.485,254.986,11.588,235.748,11.588Z" transform="translate(120.874 5.36)"/><path class="a" d="M180.462,30.82c29.937-15.943,78.491-15.943,108.428,0,11.886,6.306,18.99,14.171,21.434,22.355.106.354.461.319.531,0,2.285-11.762-4.978-23.932-21.965-32.948-29.937-15.943-78.491-15.943-108.428,0-17.13,8.928-24.3,21.222-21.93,33.072l.478-.142C161.473,44.991,168.559,37.055,180.462,30.82Z" transform="translate(121.954 6.428)"/><path class="a" d="M157.794,57.313l-.567-2.427c-2.781-13.48,5.651-26.571,23.135-35.818,30.521-16.191,80.174-16.191,110.678,0,17.342,9.211,25.792,22.143,23.188,35.428l-.354,1.771-2.126.407a2.515,2.515,0,0,1-2.675-1.949c-2.374-7.918-9.371-15.146-20.265-20.938-29.281-15.518-76.932-15.518-106.285,0C171.593,39.6,164.578,46.861,162.24,54.8l-.372,1.275Zm77.942-45.756c-19.22,0-38.457,3.9-53.142,11.656-11.213,5.934-18.246,13.427-20.407,21.363a51.8,51.8,0,0,1,18.157-14.915h0c30.521-16.191,80.174-16.191,110.678,0a51.619,51.619,0,0,1,18.157,14.915c-2.161-7.954-9.211-15.429-20.389-21.363-14.65-7.759-33.816-11.656-53.054-11.656Z" transform="translate(120.886 5.391)"/><rect class="b" width="3.401" height="16.155" transform="translate(353.912 14.309)"/><path class="b" d="M195.9,25.157H191.63V9L195.9,8.24Z" transform="translate(147.827 6.405)"/><path class="b" d="M188.8,27.074H183.11V10.919L188.8,9.59Z" transform="translate(141.255 7.447)"/><path class="b" d="M181.587,29.838H175.05V13.682l6.536-2.462Z" transform="translate(135.037 8.704)"/><path class="b" d="M174.887,34.077H167.5V17.922l7.387-3.862Z" transform="translate(129.213 10.895)"/><path class="b" d="M168.037,42.366H160.65V24.776l7.387-5.686Z" transform="translate(123.929 14.775)"/><path class="b" d="M211.721,25.069H207.47V8.17l4.251.744Z" transform="translate(160.046 6.351)"/><path class="b" d="M220.866,26.994H215.18V9.51l5.686,1.329Z" transform="translate(165.994 7.385)"/><path class="b" d="M229.3,29.768H222.76V11.15l6.536,2.462Z" transform="translate(171.841 8.65)"/><path class="b" d="M237.217,34.007H229.83V13.99l7.387,3.862Z" transform="translate(177.295 10.841)"/><path class="b" d="M244.137,40.962H236.75V19.12l7.387,5.686Z" transform="translate(182.633 14.798)"/><rect class="b" width="3.401" height="15.075" transform="translate(355.86 109.593)"/><path class="b" d="M216.139,77.856H211.87V61.346l4.269-.726Z" transform="translate(163.44 46.812)"/><path class="b" d="M227.869,74.932,222.2,76.987V59.574l5.669-1.364Z" transform="translate(171.409 44.953)"/><path class="b" d="M237.7,69.974l-6.519,3.118V56.99l6.519-2.48Z" transform="translate(178.336 42.098)"/><path class="b" d="M246.737,65.283l-7.387,4.393V54.283l7.387-4.783Z" transform="translate(184.639 38.234)"/><path class="b" d="M254.757,57.522,247.37,66.1V49.072l7.387-7.422Z" transform="translate(190.826 32.178)"/><path class="b" d="M193.681,77.54H189.43V61.03l4.251.709Z" transform="translate(146.13 47.128)"/><path class="b" d="M183.986,77.348,178.3,74.939V58.66l5.686,1.293Z" transform="translate(137.544 45.3)"/><path class="b" d="M175.377,73.587,168.84,71.78V54.81l6.536,2.48Z" transform="translate(130.247 42.33)"/><path class="b" d="M167.567,70.094l-7.387-3.809V49.9l7.387,4.163Z" transform="translate(123.566 38.542)"/><path class="b" d="M159.539,66.18l-7.369-6.873V42.78l7.369,6.377Z" transform="translate(117.387 33.05)"/><path class="c" d="M306,16.806c-35.765-20.655-93.69-20.655-129.543,0s-35.783,54.134,0,74.789S270.219,112.25,306,91.6,341.784,37.461,306,16.806ZM295.373,82.968c-29.937,15.943-78.491,15.943-108.428,0s-29.955-41.646,0-57.535,78.491-15.943,108.428,0,30.025,41.646.071,57.535Z" transform="translate(115.401 1.063)"/><path class="a" d="M242.251,110.451c-23.879,0-47.828-5.314-65.967-15.748S148.26,70.258,148.26,55.236s9.955-29.033,28.024-39.467c36.367-21.062,95.515-21.062,131.935,0,18.068,10.434,28.024,24.445,28.024,39.467S326.287,84.27,308.219,94.7,266.147,110.451,242.251,110.451Zm0-105.736c-23.028,0-46.057,5.066-63.576,15.181C162.13,29.444,153.114,42,153.114,55.236s9.105,25.792,25.65,35.34c35.056,20.23,92.113,20.23,127.17,0,16.527-9.548,25.632-22.107,25.632-35.34s-9.105-25.792-25.632-35.428C288.308,9.782,265.28,4.715,242.251,4.715Zm0,93.531c-20.035,0-40.069-4.039-55.339-12.134s-23.719-19.078-23.719-30.876,8.432-22.745,23.719-30.876c30.521-16.191,80.174-16.191,110.678,0,15.3,8.131,23.808,19.1,23.808,30.876s-8.5,22.727-23.808,30.876h0C282.427,94.207,262.3,98.246,242.251,98.246Zm0-81.326c-19.22,0-38.457,3.9-53.142,11.656-13.675,7.245-21.257,16.722-21.257,26.66s7.529,19.486,21.257,26.571c29.281,15.535,76.915,15.535,106.285,0h0c13.658-7.245,21.257-16.722,21.257-26.571s-7.511-19.486-21.257-26.571C280.655,20.818,261.489,16.92,242.251,16.92Z" transform="translate(114.371 0.028)"/><path class="a" d="M242.218,107.414c-23.9,0-47.828-5.314-65.967-15.766C159,81.693,149.077,68.336,148.28,54.005V35.423h4.765c.319,13.02,9.389,25.331,25.579,34.667,35.056,20.247,92.113,20.247,127.17,0,17.271-9.973,26.323-23.028,25.491-37.023l-.354-5.987,5.314,4.96V52.2c0,15-9.955,29.033-28.024,39.449S266.1,107.414,242.218,107.414ZM153.1,52.287v1.594c.691,12.524,9.778,24.516,25.579,33.657,35.056,20.23,92.113,20.23,127.17,0,16.527-9.548,25.632-22.107,25.632-35.428v-.177c-4.606,8.326-12.524,15.943-23.241,22.143-36.385,21.009-95.656,21.009-131.935,0C165.5,67.982,157.669,60.6,153.1,52.287Z" transform="translate(114.386 20.939)"/><path class="a" d="M294.664,56.428l7.794-6.537a1.2,1.2,0,0,0-.6-2.126L291.776,46.42l-6.8,5.863a16.425,16.425,0,0,0-.744,2.817,72.365,72.365,0,0,0,6.324,3.773Z" transform="translate(219.26 35.858)"/><path class="a" d="M291.634,62.714l-1.187-.655c-7.086-3.915-7.086-4.163-7.458-5.208-.159-.531-.319-1.063.779-4.234l.195-.62,8.113-7,11.142,1.488a3.543,3.543,0,0,1,1.771,6.306l-8.113,6.749Zm-3.685-7.564c.9.549,2.267,1.311,3.543,2.073l2.781-1.647,5.6-4.694-6.359-.85-5.491,4.73a1.072,1.072,0,0,1-.071.39Z" transform="translate(218.215 34.762)"/><path class="b" d="M309.9,56.3l-2.639-9.158a.531.531,0,0,0-.585-.39c-8.007,1.045-20.513.159-28.608-.638a.39.39,0,0,0-.283,0l-13.126,6.253a.531.531,0,0,0-.266.709l9.814,22.107a.585.585,0,0,0,.478.337l7.086.39a.532.532,0,0,0,.337-.089l27.545-18.972a.549.549,0,0,0,.248-.549Z" transform="translate(203.918 35.599)"/><path class="a" d="M282.726,79.389l-7.086-.407a2.941,2.941,0,0,1-2.533-1.771l-9.814-22.09a2.905,2.905,0,0,1,1.4-3.826l13.746-6.554h.939c8.609.85,20.5,1.63,28.077.638a2.87,2.87,0,0,1,3.171,2.108l2.639,9.158a2.9,2.9,0,0,1-1.134,3.206l-28.2,19.486Zm-5.775-5.1,5.314.3L308.2,56.732l-1.771-6.395a161.961,161.961,0,0,1-27.067-.779l-11.036,5.314Z" transform="translate(202.908 34.562)"/><path class="c" d="M308.876,51.142l-1.187-4.234a.514.514,0,0,0-.567-.39c-8.025,1.045-20.513.142-28.626-.638a.407.407,0,0,0-.283,0l-13.126,6.253a.531.531,0,0,0-.266.709l7.3,16.4a2.675,2.675,0,0,0,.638-.106c5.19-1.435,4.553-11.691,4.553-11.691l11.018-3.171A203.353,203.353,0,0,0,308.876,51.142Z" transform="translate(204.25 35.422)"/><path class="a" d="M271.736,72.88l-.779-1.577-7.3-16.4a2.94,2.94,0,0,1,1.4-3.826L278.8,44.52h.939c7.086.691,20.052,1.683,28.077.638a2.905,2.905,0,0,1,3.189,2.09l1.913,6.678-2.462.567c-8.591,1.949-20.371,3.171-20.867,3.224L280.735,60.3c0,3.543-.921,10.717-6.342,12.205a4,4,0,0,1-.939.159ZM268.743,54.6,274.252,67c1.541-1.966,1.771-6.2,1.771-8.29L275.9,56.8l12.86-3.7c.478-.089,10.239-1.1,18.245-2.693l-.089-.3a159.694,159.694,0,0,1-27.049-.762Z" transform="translate(203.198 34.392)"/><path class="b" d="M22.939,130.251l1.913,14.968-7.086,6.2h0L8.7,142.686h0L6.66,127.7h0l7.086-6.2h0l9.07,8.733Z" transform="translate(5.139 93.775)"/><path class="a" d="M18.683,156.116,7.31,145.151v-1.045l-2.09-16.12,1.24-.85,8.591-7.475,11.372,10.965v.886l2.073,16.3-1.24.833ZM11.916,142.99l6.926,6.661,4.57-3.986-1.665-12.878-6.909-6.661-4.588,3.968Z" transform="translate(4.028 92.356)"/><path class="a" d="M10.218,129.256c.549-2.161,2.267-2.657,3.862-1.116a7.706,7.706,0,0,1,1.931,6.678,2.126,2.126,0,0,1-3.862,1.116A7.706,7.706,0,0,1,10.218,129.256Z" transform="translate(7.781 98.207)"/><path class="b" d="M17.879,199.611,481.086,65.888h0c-1.771.23-9.229.85-9.92-4.854s6.306-9.264,8.025-10.044h0L15.86,184.625h0l1.913,14.951Z" transform="translate(12.236 39.383)"/><path class="a" d="M18.537,203.509l-1.771-1.134-.195-1.081-2.161-16.97,1.878-.655L481.779,49.29l1.541,4.251-1.984.9c-.691.319-7.086,3.348-6.607,7.546a2.622,2.622,0,0,0,.992,1.771,9.566,9.566,0,0,0,6.271.921l2.2-.283.9,4.358-2.143.638Zm1.045-15.836,1.311,10.2L472.6,67.5a7.333,7.333,0,0,1-2.657-4.925,9.017,9.017,0,0,1,.9-5.155Z" transform="translate(11.117 38.072)"/><path class="a" d="M483.358,59.34,19.638,193.17h0l-6.218,5.314.23.5L475.989,65.558h0C462.615,66.886,483.358,59.34,483.358,59.34Z" transform="translate(10.354 45.824)"/><path class="a" d="M13.673,202.937l-1.913-3.915,8.5-7.086L483.983,58l1.47,4.535c-2.037.744-4.269,1.63-6.165,2.462L480,68.274l-2.143.62Z" transform="translate(9.073 44.791)"/><path class="c" d="M468.438,53.335c-3.543-4.641,5.987-7.4,5.987-7.4L10.74,179.76h0l9.034,8.715h0L483.512,54.681S472.051,57.993,468.438,53.335Z" transform="translate(8.286 35.48)"/><path class="a" d="M21.319,191.915H19.778l-.726-.974L9.22,181.517,10,178.754l1.4-.337L474.924,44.64h0l1.311,4.588c-2.126.62-4.747,2.037-5.049,2.994a1.421,1.421,0,0,0,.3.673c1.771,2.3,8.52,1.665,12.524.514l1.329,4.57ZM16.5,181.907l5.119,4.942L469.681,57.536a7.261,7.261,0,0,1-1.949-1.771h0a5.6,5.6,0,0,1-1.311-3.755Z" transform="translate(7.114 34.485)"/><rect class="a" width="4.765" height="8.857" transform="translate(67.199 218.797) rotate(-7.24)"/><rect class="a" width="4.765" height="9.158" transform="matrix(0.994, -0.113, 0.113, 0.994, 76.493, 216.455)"/><rect class="a" width="4.765" height="9.512" transform="translate(85.56 213.886) rotate(-7.7)"/><path class="c" d="M287.5,296.074l-56.171-31.885A79.873,79.873,0,0,1,196.118,222.7a107.029,107.029,0,0,0-48.005-55.888L33.75,100.492,148.892,33.71l110.7,62.655a106.922,106.922,0,0,1,50.2,58.315l1.116,3.153a79.377,79.377,0,0,0,37.324,43.346l51.034,28.484Z" transform="translate(26.036 26.053)"/><path class="a" d="M291.169,303.053,232.89,269.893a84.266,84.266,0,0,1-37.076-43.665,102.848,102.848,0,0,0-46.057-53.674L29,102.583,152.591,31l112.8,63.771a111.032,111.032,0,0,1,52.044,60.618l1.116,3.153a75.037,75.037,0,0,0,35.322,41.044l57.5,32.1ZM45.828,102.583,153.885,165.2a111.333,111.333,0,0,1,49.83,58.049,75.816,75.816,0,0,0,33.356,39.308l54.1,30.716,103.362-61.362L349.909,206.99a83.363,83.363,0,0,1-39.254-45.614l-1.116-3.135a102.618,102.618,0,0,0-48.165-56.065l-108.747-61.5Z" transform="translate(22.372 23.962)"/><path class="b" d="M235.482,157.272l-38.617,22.71c-3.631,2.09-9.991,1.771-14.171-.6l-18.21-10.628c-4.2-2.427-4.659-6.094-1.027-8.184l38.617-22.78c3.543-2.09,9.991-1.771,14.171.585L234.455,149C238.653,151.5,239.113,155.182,235.482,157.272Z" transform="translate(124.205 105.265)"/><path class="a" d="M192.515,187.488a20.619,20.619,0,0,1-10.1-2.569L164.19,174.291a9.867,9.867,0,0,1-5.58-8.29,8.414,8.414,0,0,1,4.57-7.21l38.634-22.727c4.978-2.887,12.914-2.622,18.44.549l18.228,10.628a9.9,9.9,0,0,1,5.58,8.29,8.4,8.4,0,0,1-4.553,7.21l-38.6,22.763a16.863,16.863,0,0,1-8.4,1.984Zm-25.243-21.47c-.106,0,.23.443,1.151.992l18.228,10.628a11.549,11.549,0,0,0,9.938.585l38.617-22.763.159-.106c-.213-.124-.567-.425-1.169-.779l-18.228-10.628a11.656,11.656,0,0,0-9.955-.567l-38.581,22.745a.373.373,0,0,0-.159-.106Z" transform="translate(122.355 103.462)"/><path class="a" d="M137.1,139.835l-4.234-7.316,14.614-8.467,4.234,7.316Zm21.912-12.7-4.216-7.316,14.614-8.467,4.216,7.316Zm21.912-12.7-4.234-7.316,14.614-8.467,4.234,7.316Z" transform="translate(102.499 76.149)"/><rect class="a" width="69.032" height="8.45" transform="translate(221.804 190.418) rotate(-30.07)"/><rect class="a" width="68.536" height="8.45" transform="matrix(0.866, -0.5, 0.5, 0.866, 132.015, 128.296)"/><rect class="a" width="68.536" height="8.432" transform="matrix(0.866, -0.5, 0.5, 0.866, 155.166, 141.336)"/><rect class="a" width="68.536" height="8.432" transform="matrix(0.866, -0.5, 0.5, 0.866, 178.325, 154.944)"/></g></g></svg>