<svg xmlns="http://www.w3.org/2000/svg" width="98.508" height="98.507" viewBox="0 0 98.508 98.507"><defs><style>.a{fill:#ebebeb;opacity:0.2;}.b{fill:#ffb000;}</style></defs><g transform="translate(-12.381 -6.484)"><ellipse class="a" cx="49.254" cy="49.254" rx="49.254" ry="49.254" transform="translate(12.381 6.484)"/><g transform="translate(-41.951 -47.852)"><path class="b" d="M103.612,188.69q10.347,0,20.715.011a5.5,5.5,0,0,1,1.689.259,3.409,3.409,0,0,1,2.425,3.723c-.126,1.39-.3,2.774-.45,4.159l-.911,8.143c-.1.871-.175,1.746-.288,2.614a3.85,3.85,0,0,1-3.1,3.291,5.558,5.558,0,0,1-1.32.166q-18.774.014-37.547,0A4.549,4.549,0,0,1,81,209.241a4.77,4.77,0,0,1-.7-2.542q-.623-5.342-1.208-10.71c-.119-1.071-.25-2.141-.358-3.214A3.631,3.631,0,0,1,82.2,188.71c.259-.018.517-.018.778-.018Zm-6.391,12.244a1.239,1.239,0,0,1-.034-.164c-.027-.763-.061-1.525-.079-2.288a2.127,2.127,0,0,0-4.254.02c.121,1.354.142,2.758.209,4.137a1.662,1.662,0,0,0,.958,1.527,3.419,3.419,0,0,0,1.35.331c5.466.022,10.934.013,16.4.013h.3a2.041,2.041,0,0,0,1.991-1.937c.036-1.437.166-2.875.189-4.312a2.088,2.088,0,0,0-.387-1.145,2.164,2.164,0,0,0-2.434-.605,1.968,1.968,0,0,0-1.39,1.921c-.02.828-.054,1.658-.083,2.506Z" transform="translate(0 -84.085)"/><path class="b" d="M140.769,100.984h-4.818c-.171-.985-.344-1.971-.511-2.956q-1.093-6.505-2.177-13.011a.529.529,0,0,0-.61-.508q-11.717.014-23.435,0c-.409,0-.558.178-.619.544q-.783,4.681-1.575,9.353c-.369,2.182-.742,4.362-1.125,6.566H101.08c.209-1.235.416-2.461.625-3.687l2.474-14.4c.034-.2.063-.4.1-.6a2.408,2.408,0,0,1,2.508-2.09H135.1a2.4,2.4,0,0,1,2.474,2.081q1.527,8.921,3.048,17.847C140.665,100.4,140.713,100.66,140.769,100.984Z" transform="translate(-17.337 0)"/><path class="b" d="M152.484,151.087h8.627a1.98,1.98,0,0,1,1.9,1.35,1.894,1.894,0,0,1-.639,2.2,2.569,2.569,0,0,1-1.35.47c-5.723.031-11.445.025-17.165.016a2.025,2.025,0,1,1,.034-4.044Q148.186,151.083,152.484,151.087Z" transform="translate(-48.858 -54.935)"/><path class="b" d="M156.938,121.263h-7.248a2.021,2.021,0,0,1-.468-4.008,4.134,4.134,0,0,1,.6-.036h14.282a2.023,2.023,0,0,1,2.193,1.658,1.982,1.982,0,0,1-1.759,2.362c-.7.052-1.408.025-2.112.025Z" transform="translate(-53.351 -28.69)"/></g></g></svg>