<svg xmlns="http://www.w3.org/2000/svg" width="37.575" height="37.575" viewBox="0 0 37.575 37.575"><defs><style>.a{fill:#ebebeb;opacity:0.6;}</style></defs><g transform="translate(-1303.031 -908.749)"><path class="a" d="M18.787,0A18.787,18.787,0,1,1,0,18.787,18.787,18.787,0,0,1,18.787,0Z" transform="translate(1303.031 908.749)"/><path d="M3.593,16.053H.265V5.336H3.593ZM1.927,3.874A1.937,1.937,0,1,1,3.855,1.928,1.944,1.944,0,0,1,1.927,3.874ZM16.05,16.053H12.729V10.836C12.729,9.593,12.7,8,11,8c-1.73,0-2,1.351-2,2.748v5.307H5.678V5.336H8.87V6.8h.047a3.5,3.5,0,0,1,3.149-1.731c3.368,0,3.987,2.218,3.987,5.1v5.887Z" transform="translate(1314.24 919.811)"/></g></svg>