<svg xmlns="http://www.w3.org/2000/svg" width="157.788" height="30.041" viewBox="0 0 157.788 30.041"><defs><style>.a{fill:#f9b215;}</style></defs><path class="a" d="M94.146,25.857V22.635H89.49V42.853h4.656V26.445s2.195-.4,2.819-.536l.362-.081a10.471,10.471,0,0,1,1.764-.234h.552a6.186,6.186,0,0,1,1.236.185,5.449,5.449,0,0,1,2.582,1.5h0a5.155,5.155,0,0,1,1.232,2.223,10.3,10.3,0,0,1,.318,2.61V42.861h4.648V30.928a11.994,11.994,0,0,0-.487-3.544,7.769,7.769,0,0,0-2.465-3.689A6.319,6.319,0,0,0,105,22.688a6.689,6.689,0,0,0-4.583.024A38.152,38.152,0,0,0,94.146,25.857Z" transform="translate(-53.449 -13.316)"/><path class="a" d="M37.084,25.857V22.635H32.42V42.853h4.664V26.445s2.195-.4,2.819-.536l.362-.081a10.471,10.471,0,0,1,1.764-.234h.552a6.186,6.186,0,0,1,1.236.185,5.449,5.449,0,0,1,2.582,1.5h0A5.155,5.155,0,0,1,47.631,29.5a10.3,10.3,0,0,1,.326,2.63V42.861h4.627V30.928a11.993,11.993,0,0,0-.487-3.544,7.769,7.769,0,0,0-2.465-3.689,6.319,6.319,0,0,0-1.712-1.007,6.689,6.689,0,0,0-4.583.024A37.1,37.1,0,0,0,37.084,25.857Z" transform="translate(-19.363 -13.316)"/><rect class="a" width="4.656" height="20.217" transform="translate(5.582 9.327)"/><path class="a" d="M170.019,28.407A10.374,10.374,0,0,0,167.43,25a12.642,12.642,0,0,0-4.027-2.312,15.67,15.67,0,0,0-5.288-.846,15.509,15.509,0,0,0-5.236.846A12.287,12.287,0,0,0,148.851,25a10.511,10.511,0,0,0-2.561,3.411,9.428,9.428,0,0,0-.91,4.076,9.311,9.311,0,0,0,.91,4.052,10.576,10.576,0,0,0,2.561,3.383,12.223,12.223,0,0,0,4.027,2.316,15.505,15.505,0,0,0,5.236.85,15.666,15.666,0,0,0,5.292-.85,12.577,12.577,0,0,0,4.027-2.316,10.439,10.439,0,0,0,2.59-3.383,9.368,9.368,0,0,0,.91-4.052A9.489,9.489,0,0,0,170.019,28.407Zm-4.277,6.847a6.665,6.665,0,0,1-1.655,2.247,8.191,8.191,0,0,1-2.59,1.542,9.488,9.488,0,0,1-3.383.58,9.219,9.219,0,0,1-3.363-.58A7.9,7.9,0,0,1,152.21,37.5a6.806,6.806,0,0,1-1.611-7.765,7.165,7.165,0,0,1,1.611-2.275,7.721,7.721,0,0,1,2.541-1.555,9.3,9.3,0,0,1,3.363-.6,9.577,9.577,0,0,1,3.4.58,8,8,0,0,1,2.59,1.555,7.068,7.068,0,0,1,1.655,2.275,6.726,6.726,0,0,1,0,5.518Z" transform="translate(-86.83 -13.042)"/><path class="a" d="M0,8.6v5.864L5.582,8.6Z" transform="translate(0 -5.136)"/><path class="a" d="M251.32,23.16V33.611l5.691-10.451Z" transform="translate(-150.104 -13.833)"/><path class="a" d="M205.45,23.16l10.366,20.217h4.7L210.48,23.16Z" transform="translate(-122.707 -13.833)"/><path class="a" d="M282.38,22.37v3.476a7.906,7.906,0,0,0-3.5-2.944,11.953,11.953,0,0,0-5.006-1.063,14.708,14.708,0,0,0-5.074.846A11.973,11.973,0,0,0,264.893,25a10.608,10.608,0,0,0-2.537,3.411,9.424,9.424,0,0,0-.906,4.076,9.307,9.307,0,0,0,.906,4.052,10.676,10.676,0,0,0,2.537,3.383,11.913,11.913,0,0,0,3.927,2.316,14.708,14.708,0,0,0,5.074.85,11.78,11.78,0,0,0,5.006-1.075,7.91,7.91,0,0,0,3.5-2.932v3.512h4.591V22.37Zm-.588,12.888a6.638,6.638,0,0,1-1.663,2.247,8.079,8.079,0,0,1-2.586,1.542,9.492,9.492,0,0,1-3.387.576,9.2,9.2,0,0,1-3.359-.58,7.877,7.877,0,0,1-2.545-1.542,6.811,6.811,0,0,1-1.611-2.247,6.726,6.726,0,0,1,0-5.517,7.25,7.25,0,0,1,1.611-2.275,7.7,7.7,0,0,1,2.545-1.555,9.263,9.263,0,0,1,3.359-.6,9.585,9.585,0,0,1,3.4.58,7.894,7.894,0,0,1,2.586,1.555,7.031,7.031,0,0,1,1.667,2.275,6.766,6.766,0,0,1,0,5.517Z" transform="translate(-156.154 -13.043)"/><path class="a" d="M332.71,0V29.545h4.648V0Z" transform="translate(-198.715)"/><path class="a" d="M367.9,23.16H352.358v2.723h9.287L351.79,43.377H367.9V40.655H358Z" transform="translate(-210.111 -13.833)"/></svg>