<svg xmlns="http://www.w3.org/2000/svg" width="25.649" height="32.061" viewBox="0 0 25.649 32.061"><defs><style>.a{fill:#ffb000;}</style></defs><path class="a" d="M4.239,13.451A25.332,25.332,0,0,1,4,10.015,23.956,23.956,0,0,1,5,3.143,1.6,1.6,0,0,1,6.533,2h5.49a3.2,3.2,0,0,1,3.2,3.2v4.817A1.6,1.6,0,0,1,14.58,11.3L8.168,16.107a.579.579,0,0,1-.051.035,20.788,20.788,0,0,0,8.347,11.2L20.5,23.309a1.6,1.6,0,0,1,1.521-.422l5.2,1.3a3.194,3.194,0,0,1,2.424,3.1v5.167a1.6,1.6,0,0,1-1.6,1.6A23.717,23.717,0,0,1,17.735,31.74,24,24,0,0,1,4.239,13.451Z" transform="translate(-4 -2)"/></svg>