<svg xmlns="http://www.w3.org/2000/svg" width="37.575" height="37.575" viewBox="0 0 37.575 37.575"><defs><style>.a{fill:#ebebeb;opacity:0.6;}.b{fill:#fff;}</style></defs><g transform="translate(-1263.605 -3883.713)"><path class="a" d="M18.787,0A18.787,18.787,0,1,1,0,18.787,18.787,18.787,0,0,1,18.787,0Z" transform="translate(1263.605 3883.713)"/><g transform="translate(1379.227 3892)"><path class="b" d="M1560.423,3645.087a.131.131,0,0,1-.036-.032,3.477,3.477,0,0,0-2.55-.931l-.03-.066a.02.02,0,0,1,.018-.007,3.039,3.039,0,0,0,1.568-.62c.054-.177-.012-.276-.205-.3a5.067,5.067,0,0,0-1.224.287c.465-.287.645-.49.543-.595a2.43,2.43,0,0,0-1.471.688c.193-.319.265-.492.217-.522a4.215,4.215,0,0,0-.651.532,10.027,10.027,0,0,0-.947,1.172l-.012.031a10.261,10.261,0,0,0-1.314,2.953l-.1.075-.018.017a4.875,4.875,0,0,0-1.356-1.141,16.075,16.075,0,0,0-2.231-1.145,19.324,19.324,0,0,0-2.839-1.153,2.737,2.737,0,0,0,1.561,2.463v.019a3.4,3.4,0,0,0-1.067.154c.066.962.772,1.623,2.11,1.99l-.007.018a1.562,1.562,0,0,0-1.3.516,2.335,2.335,0,0,0,2.345,1.2,1.575,1.575,0,0,0-.513.369.741.741,0,0,0-.205.734,1.3,1.3,0,0,0,1.314.588h0l.036.043-.018.018a4.937,4.937,0,0,1-4,1.5l-.024.014a5.116,5.116,0,0,1-3.074-1.332,9.453,9.453,0,0,0,4.4,3.358,10.759,10.759,0,0,0,6.251.147h.036a9.929,9.929,0,0,0,5.142-3.474,6.921,6.921,0,0,0,1.224-2.636,2.55,2.55,0,0,0,2.285-.883l-.012-.019a4.7,4.7,0,0,1-2.056-.116v-.111c0-.006,0-.006.007,0,1.115-.122,1.772-.471,1.983-1.048a3.209,3.209,0,0,1-2.3.025A4.752,4.752,0,0,0,1560.423,3645.087Z" transform="translate(-1650.798 -3639.535)"/></g></g></svg>