<svg xmlns="http://www.w3.org/2000/svg" width="37.575" height="37.575" viewBox="0 0 37.575 37.575"><defs><style>.a{fill:#ebebeb;opacity:0.6;}</style></defs><g transform="translate(-1399.292 -3883.713)"><path class="a" d="M18.787,0A18.787,18.787,0,1,1,0,18.787,18.787,18.787,0,0,1,18.787,0Z" transform="translate(1399.292 3883.713)"/><path d="M19.8-3.867a2.533,2.533,0,0,0-1.782-1.782c-1.582-.433-7.91-.433-7.91-.433s-6.328,0-7.91.416a2.584,2.584,0,0,0-1.782,1.8A26.688,26.688,0,0,0,0,1,26.589,26.589,0,0,0,.417,5.858,2.533,2.533,0,0,0,2.2,7.64c1.6.433,7.91.433,7.91.433s6.328,0,7.91-.416A2.533,2.533,0,0,0,19.8,5.875a26.7,26.7,0,0,0,.416-4.863A25.333,25.333,0,0,0,19.8-3.867ZM8.094,4.026V-2.035L13.356,1Zm0,0" transform="translate(1408.783 3902.082)"/></g></svg>