<svg xmlns="http://www.w3.org/2000/svg" xmlns:xlink="http://www.w3.org/1999/xlink" width="58" height="58" viewBox="0 0 58 58"><defs><style>.a{fill:#fff;}.b{fill:url(#a);}.c{fill:url(#b);}.d{fill:url(#c);}.e{fill:url(#d);}.f{fill:url(#e);}.g{fill:url(#f);}.h{fill:url(#g);}.i{fill:url(#h);}</style><linearGradient id="a" x1="0.308" y1="0.308" x2="0.828" y2="0.828" gradientUnits="objectBoundingBox"><stop offset="0" stop-color="#7faef4"/><stop offset="1" stop-color="#4c8df1"/></linearGradient><linearGradient id="b" x1="0.821" y1="0.821" x2="0.126" y2="0.126" xlink:href="#a"/><linearGradient id="c" x1="0.428" y1="0.45" x2="-0.035" y2="0.205" gradientUnits="objectBoundingBox"><stop offset="0" stop-color="#4c8df1" stop-opacity="0"/><stop offset="0.563" stop-color="#466cc8" stop-opacity="0.565"/><stop offset="1" stop-color="#4256ac"/></linearGradient><linearGradient id="d" x1="0.608" y1="0.634" x2="-0.093" y2="0.449" xlink:href="#c"/><linearGradient id="e" x1="0.464" y1="0.418" x2="1.086" y2="0.86" gradientUnits="objectBoundingBox"><stop offset="0" stop-color="#ffd833"/><stop offset="1" stop-color="#f2b631"/></linearGradient><linearGradient id="f" x1="0.801" y1="0.671" x2="0.39" y2="-0.096" gradientUnits="objectBoundingBox"><stop offset="0" stop-color="#f9a126" stop-opacity="0"/><stop offset="1" stop-color="#ec4437"/></linearGradient><linearGradient id="g" x1="0.317" y1="0.252" x2="0.97" y2="0.967" xlink:href="#e"/><linearGradient id="h" x1="0.875" y1="0.78" x2="-0.125" y2="-0.215" xlink:href="#e"/></defs><g transform="translate(0 -0.188)"><circle class="a" cx="29" cy="29" r="29" transform="translate(0 0.188)"/><g transform="translate(15.258 14.079)"><path class="b" d="M44.452,16.386V11.4a1.274,1.274,0,0,0-1.274-1.274h-.394a1.281,1.281,0,0,1-1.181-.8L41.6,9.313a1.281,1.281,0,0,1,.271-1.4l.278-.278a1.274,1.274,0,0,0,0-1.8L38.62,2.306a1.274,1.274,0,0,0-1.8,0l-.278.278a1.281,1.281,0,0,1-1.4.271l-.016-.007a1.281,1.281,0,0,1-.8-1.181V1.274A1.274,1.274,0,0,0,33.052,0H28.066a1.274,1.274,0,0,0-1.274,1.274v.394a1.281,1.281,0,0,1-.8,1.181l-.016.007a1.281,1.281,0,0,1-1.4-.271L24.3,2.306a1.274,1.274,0,0,0-1.8,0L18.972,5.832a1.274,1.274,0,0,0,0,1.8l.278.278a1.281,1.281,0,0,1,.271,1.4l-.007.016a1.281,1.281,0,0,1-1.181.8H17.94A1.274,1.274,0,0,0,16.666,11.4v4.986A1.274,1.274,0,0,0,17.94,17.66h.394a1.281,1.281,0,0,1,1.181.8l.007.016a1.281,1.281,0,0,1-.271,1.4l-.278.278a1.274,1.274,0,0,0,0,1.8L22.5,25.48a1.274,1.274,0,0,0,1.8,0l.278-.278a1.281,1.281,0,0,1,1.4-.271l.016.007a1.281,1.281,0,0,1,.8,1.181v.394a1.274,1.274,0,0,0,1.274,1.274h4.986a1.274,1.274,0,0,0,1.274-1.274v-.394a1.281,1.281,0,0,1,.8-1.181l.016-.007a1.281,1.281,0,0,1,1.4.271l.278.278a1.274,1.274,0,0,0,1.8,0l3.526-3.526a1.274,1.274,0,0,0,0-1.8l-.278-.278a1.281,1.281,0,0,1-.271-1.4l.007-.016a1.281,1.281,0,0,1,1.181-.8h.394a1.274,1.274,0,0,0,1.275-1.274Z" transform="translate(-16.666 0)"/><circle class="c" cx="9.672" cy="9.672" r="9.672" transform="translate(4.221 4.221)"/><path class="d" d="M142.135,134.479a1.274,1.274,0,0,1-1.268,1.144h-.394a1.281,1.281,0,0,0-1.181.8l-.007.016a1.282,1.282,0,0,0,.271,1.4l.279.278a1.275,1.275,0,0,1,0,1.8l-3.526,3.526a1.274,1.274,0,0,1-1.8,0l-.278-.278a1.282,1.282,0,0,0-1.4-.271l-.016.007a1.28,1.28,0,0,0-.8,1.181v.394a1.274,1.274,0,0,1-1.151,1.268l-8.037-8.04a7.841,7.841,0,0,1-2.426-5.832,7.624,7.624,0,0,1,3.213-6.377c.251-.179.569-.235.741-.027.057.07,6.92,6.921,7,7a1.789,1.789,0,0,0,.661-1.388v-5.261a.546.546,0,0,1,.861-.446,8.037,8.037,0,0,1,1.228,1.084Z" transform="translate(-114.356 -117.963)"/><path class="e" d="M317.422,148.765l-.278-.278a1.281,1.281,0,0,1-.271-1.4l.007-.016a1.281,1.281,0,0,1,1.181-.8h.394a1.275,1.275,0,0,0,1.268-1.143l-8.029-8.029q-.255-.277-.535-.527a7.971,7.971,0,0,1-2.175,12.336v7.307a1.272,1.272,0,0,0,.621-1.093v-.394a1.281,1.281,0,0,1,.8-1.181l.016-.007a1.281,1.281,0,0,1,1.4.271l.278.278a1.274,1.274,0,0,0,1.8,0l3.526-3.526A1.274,1.274,0,0,0,317.422,148.765Z" transform="translate(-291.942 -128.614)"/><path class="f" d="M196.394,333.373a16.341,16.341,0,0,0,.255-2.874v-6.58h-7.7v6.58a16.342,16.342,0,0,0,.255,2.874,1.709,1.709,0,0,0,1.694,1.393h3.8A1.709,1.709,0,0,0,196.394,333.373Z" transform="translate(-178.905 -305.036)"/><path class="g" d="M188.948,325.956l7.465,7.3a16.338,16.338,0,0,0,.236-2.762v-6.58h-7.7Z" transform="translate(-178.905 -305.036)"/><path class="h" d="M134.213,131.858a7.97,7.97,0,1,1-12.6-6.486.546.546,0,0,1,.865.443v5.261a1.791,1.791,0,0,0,.9,1.551l1.977,1.141a1.791,1.791,0,0,0,1.791,0l1.977-1.141a1.791,1.791,0,0,0,.9-1.551v-5.261a.546.546,0,0,1,.861-.446A7.96,7.96,0,0,1,134.213,131.858Z" transform="translate(-112.35 -117.965)"/><path class="i" d="M153.814,132.53a2.8,2.8,0,0,0,1.4,2.428l3.095,1.787a2.8,2.8,0,0,0,2.8,0l3.095-1.787a2.8,2.8,0,0,0,1.4-2.428V126.5a8.008,8.008,0,0,0-1.27-1.13.546.546,0,0,0-.861.446v5.261a1.791,1.791,0,0,1-.9,1.551l-1.977,1.141a1.791,1.791,0,0,1-1.791,0l-1.977-1.141a1.791,1.791,0,0,1-.9-1.551v-5.261a.546.546,0,0,0-.865-.443,8.014,8.014,0,0,0-1.266,1.127v6.031Z" transform="translate(-145.819 -117.965)"/></g></g></svg>