<svg xmlns="http://www.w3.org/2000/svg" width="58" height="58" viewBox="0 0 58 58"><defs><style>.a{fill:#fff;}.b{fill:#57dce5;}.c{fill:#00bcc9;}</style></defs><path class="a" d="M29,0A29,29,0,1,1,0,29,29,29,0,0,1,29,0Z"/><g transform="translate(15.232 14.88)"><path class="b" d="M27.091,12.415l0,0L15.732.769a2.518,2.518,0,0,0-3.625,0L.756,12.407l-.011.012A2.678,2.678,0,0,0,.75,16.129a2.518,2.518,0,0,0,1.7.766c.026,0,.053,0,.079,0h.452v8.569a3.042,3.042,0,0,0,3,3.075h4.443a.826.826,0,0,0,.816-.836V20.989a1.388,1.388,0,0,1,1.369-1.4H15.23a1.388,1.388,0,0,1,1.369,1.4v6.718a.826.826,0,0,0,.816.836h4.443a3.042,3.042,0,0,0,3-3.075V16.9h.42a2.516,2.516,0,0,0,1.813-.77,2.679,2.679,0,0,0,0-3.715Zm0,0" transform="translate(0 0.001)"/><path class="c" d="M268.371,12.415l0,0L257.679.769A2.3,2.3,0,0,0,255.973,0h0V19.586h1.234a1.351,1.351,0,0,1,1.288,1.4v6.718a.8.8,0,0,0,.768.836h4.182a2.961,2.961,0,0,0,2.824-3.075V16.9h.4a2.3,2.3,0,0,0,1.706-.77,2.8,2.8,0,0,0,0-3.715Zm0,0" transform="translate(-241.236 0.001)"/></g></svg>