<svg xmlns="http://www.w3.org/2000/svg" width="58" height="59" viewBox="0 0 58 59"><defs><style>.a{fill:#fff;}.b{fill:#e6e6e6;}.c{fill:#754c24;}.d{fill:#999;}.e{fill:#fbb03b;}.f{fill:#29abe2;}.g{fill:#da4836;}.h{fill:#0071bc;}</style></defs><g transform="translate(0 0.237)"><ellipse class="a" cx="29" cy="29.5" rx="29" ry="29.5" transform="translate(0 -0.237)"/><g transform="translate(16.231 13.271)"><path class="b" d="M99.8,80.6V52.068h22.611V78.985a1.615,1.615,0,0,1-1.615,1.615Z" transform="translate(-96.567 -48.838)"/><path class="c" d="M129.329,8.614a1.884,1.884,0,0,1-1.884-1.884V4.845h1.077V6.729a.808.808,0,1,0,1.615,0h0V2.692a1.615,1.615,0,1,0-3.23,0V3.23H125.83V2.692a2.692,2.692,0,1,1,5.383,0V6.729A1.884,1.884,0,0,1,129.329,8.614Z" transform="translate(-120.985 0)"/><g transform="translate(14.535 18.842)"><path class="d" d="M282.034,338.441h9.152v1.077h-9.152Z" transform="translate(-282.034 -336.288)"/><path class="d" d="M282.034,373.153h9.152v1.077h-9.152Z" transform="translate(-282.034 -368.846)"/><path class="d" d="M282.034,407.864h7v1.077h-7Z" transform="translate(-282.034 -401.404)"/><path class="d" d="M342.78,303.729h5.383v1.077H342.78Z" transform="translate(-339.012 -303.729)"/></g><circle class="e" cx="3.768" cy="3.768" r="3.768" transform="translate(15.612 7.537)"/><path class="f" d="M134.508,182.237h1.077v4.307h-1.077Z" transform="translate(-129.125 -170.932)"/><path class="e" d="M169.22,199.593H170.3v3.23H169.22Z" transform="translate(-161.683 -187.211)"/><path class="f" d="M203.932,164.881h1.077v5.383h-1.077Z" transform="translate(-194.242 -154.652)"/><path class="e" d="M238.644,190.915h1.077v3.768h-1.077Z" transform="translate(-226.8 -179.071)"/><path class="f" d="M143.186,312.407h6.46v6.46h-6.46Z" transform="translate(-137.264 -293.027)"/><path class="d" d="M308.068,303.729h1.077v1.077h-1.077Z" transform="translate(-291.918 -284.887)"/><path class="g" d="M363.5,123.576a3.768,3.768,0,0,0-3.368-2.084v3.768Z" transform="translate(-340.755 -113.955)"/><g transform="translate(0 7.537)"><path class="h" d="M303.151,121.492a3.768,3.768,0,0,0-2.665,6.433l2.665-2.665Z" transform="translate(-283.77 -121.492)"/><path class="h" d="M71.955,471.3a1.615,1.615,0,0,1-1.615-1.615h0V468.61H47.729v1.077a1.615,1.615,0,0,0,1.615,1.615H71.955Z" transform="translate(-47.729 -447.076)"/></g></g></g></svg>