<svg xmlns="http://www.w3.org/2000/svg" width="144.767" height="36.853" viewBox="0 0 144.767 36.853"><defs><style>.a{fill:#fff;}.b{fill:#fecf2f;}</style></defs><g transform="translate(-62.47 -344.73)"><g transform="translate(62.47 344.73)"><path class="a" d="M162.172,423.509h-5.761c-.02-.309-.053-.6-.053-.882,0-3.542.012-7.083-.012-10.625a17.642,17.642,0,0,0-.209-2.894,3.707,3.707,0,0,0-2.84-3.207,6.494,6.494,0,0,0-3.313,0,3.747,3.747,0,0,0-2.85,3.272,16.885,16.885,0,0,0-.189,2.643c-.024,2.32-.006,4.637-.01,6.957a9.444,9.444,0,0,0,.185,2.066,3.083,3.083,0,0,1-2.336,3.648,3.144,3.144,0,0,1-3.733-2.143,3.469,3.469,0,0,1-.059-1.627,6.114,6.114,0,0,0,.108-1c.01-2.888-.026-5.777.028-8.663.022-1.131.238-2.257.374-3.386a1.276,1.276,0,0,1,.636-.949,9.217,9.217,0,0,0,3.916-5.405,1.32,1.32,0,0,1,.754-.922,10.653,10.653,0,0,1,12.043,1.716c.12.114.246.223.4.364.152-.132.3-.246.429-.372a10.038,10.038,0,0,1,6.534-2.805,10.274,10.274,0,0,1,7.727,2.663,9.458,9.458,0,0,1,2.431,3.648,16.4,16.4,0,0,1,1.079,6.124c.012,2.571,0,5.143.01,7.715a6.446,6.446,0,0,0,.14,1.247,3.146,3.146,0,0,1-6.047,1.714,3.25,3.25,0,0,1-.057-1.806,3.626,3.626,0,0,0,.1-.808c.006-2.8.018-5.608-.006-8.411a12.707,12.707,0,0,0-.209-2.324,3.87,3.87,0,0,0-4-3.341,8.235,8.235,0,0,0-1.948.13,3.647,3.647,0,0,0-2.848,2.509,8.533,8.533,0,0,0-.4,2.866c-.022,3.752-.014,7.505-.018,11.257C162.172,422.8,162.172,423.113,162.172,423.509Z" transform="translate(-124.988 -388.188)"/><path class="a" d="M608.548,367.429c-.9.179-1.763.325-2.616.524a18.7,18.7,0,0,0-6.159,2.537,10.612,10.612,0,0,0-3.555,3.7,8.15,8.15,0,0,0-1.032,4.56,7,7,0,0,0,3.39,5.75,14.072,14.072,0,0,0,4.948,1.82,31.5,31.5,0,0,0,5.844.528c.165,0,.331-.02.484-.03.242-.378.01-.561-.238-.747a3.827,3.827,0,0,1-1.513-2.468,3.89,3.89,0,0,1,7.219-2.574,3.856,3.856,0,0,1-.591,4.613,1.129,1.129,0,0,0-.347.892,4.781,4.781,0,0,1-.735,2.641,2.272,2.272,0,0,1-1.578,1.158c-.971.179-1.944.39-2.925.475a33.694,33.694,0,0,1-3.788.138,15.933,15.933,0,0,1-6.189-1.361,13.219,13.219,0,0,1-5.432-4.507c-.132-.187-.264-.374-.455-.64a3.62,3.62,0,0,0-.126.451,6.566,6.566,0,0,1-3.6,5.113A1.507,1.507,0,0,1,588,390a6.451,6.451,0,0,1-3.636-5.933c-.035-6.7-.02-13.406,0-20.109a1.732,1.732,0,0,0-1.17-1.714c-.146.228-.272.443-.416.646a3.972,3.972,0,0,1-4.227,1.759,3.9,3.9,0,0,1-3.209-3.033,4.11,4.11,0,0,1,7.907-2.236,1.587,1.587,0,0,0,1,1.2,3.384,3.384,0,0,1,1.544,1.361,3.187,3.187,0,0,1,.53,1.785q-.018,10.118-.008,20.237a4.658,4.658,0,0,0,1.517,3.553,3.284,3.284,0,0,0,.39.323.878.878,0,0,0,1.111-.006,4.484,4.484,0,0,0,1.844-3.118,7.147,7.147,0,0,0,.049-.884c.02-2.635.026-5.269.063-7.9a4.372,4.372,0,0,1,.215-1.294,15.122,15.122,0,0,1,6.9-8.411,23.687,23.687,0,0,1,7.552-2.766c.577-.116,1.164-.189,1.741-.3a4.5,4.5,0,0,1,5.293,4.06,1.563,1.563,0,0,0,.6,1.162,3.646,3.646,0,0,1,1.241,4.036,3.7,3.7,0,0,1-3.2,2.764,3.862,3.862,0,0,1-3.341-6.5A1.064,1.064,0,0,0,608.548,367.429Z" transform="translate(-471.063 -354.106)"/><path class="a" d="M472.965,373.089v-.721c0-1.623,0-3.246,0-4.867a4.168,4.168,0,0,0-.195-1.3,3.138,3.138,0,1,1,6.031-1.729,3.409,3.409,0,0,1-.01,1.625,5.4,5.4,0,0,0-.156,1.178c-.014,5.373,0,10.747-.024,16.12a13.935,13.935,0,0,1-.851,4.637,9.547,9.547,0,0,1-6.62,6.246,12.012,12.012,0,0,1-7.871-.3,9.635,9.635,0,0,1-6.092-6.774,18.134,18.134,0,0,1-.571-5.819,15.913,15.913,0,0,1,.9-4.757,9.587,9.587,0,0,1,7.983-6.518,7.516,7.516,0,0,1,5.612,1.393,18.642,18.642,0,0,1,1.54,1.3C472.721,372.873,472.794,372.94,472.965,373.089Zm-5.238,16.231a4.436,4.436,0,0,0,4.158-2.182,6.057,6.057,0,0,0,.847-2.23,13.43,13.43,0,0,0,.112-4.152,7.322,7.322,0,0,0-.737-2.533,4.657,4.657,0,0,0-4.739-2.6,4.455,4.455,0,0,0-3.36,1.509,5.466,5.466,0,0,0-1.194,2.342,12.317,12.317,0,0,0,0,6.006A4.653,4.653,0,0,0,467.727,389.32Z" transform="translate(-376.527 -358.586)"/><path class="a" d="M340.115,414.388a7.72,7.72,0,0,0,1.594,4.6A4.286,4.286,0,0,0,345.3,420.5a7.644,7.644,0,0,0,3.15-.839.906.906,0,0,0,.569-.8,3.14,3.14,0,0,1,6.159-.416,3.084,3.084,0,0,1-.717,2.882c-.418.469-.853.928-1.3,1.377a9.917,9.917,0,0,1-4.192,2.494,12.136,12.136,0,0,1-8.35-.321,9.648,9.648,0,0,1-5.925-6.853,18.473,18.473,0,0,1-.532-5.072,15.921,15.921,0,0,1,.632-4.361c1.274-4.253,4.19-6.614,8.488-7.416a11.312,11.312,0,0,1,6.664.837,10.041,10.041,0,0,1,5.933,7.247,19.2,19.2,0,0,1,.479,4.387c.01.727-.014.745-.741.745q-7.337,0-14.673,0C340.7,414.388,340.448,414.388,340.115,414.388Zm.412-4.135a94.107,94.107,0,0,0,9.427-.016,4.615,4.615,0,0,0-4.682-3.861A4.689,4.689,0,0,0,340.527,410.253Z" transform="translate(-278.977 -389.561)"/><path class="b" d="M82.085,354.435a9.809,9.809,0,0,1-19.615,0,9.808,9.808,0,0,1,19.615,0Zm-11.4,4.42h1.574v-5.976c.522-.112.969-.221,1.422-.3a3.429,3.429,0,0,1,.693-.022,1.956,1.956,0,0,1,1.867,1.434,4.21,4.21,0,0,1,.134,1.058c.018,1.052.006,2.106.008,3.159,0,.205.02.41.035.668a3.977,3.977,0,0,0,1.515-.065c0-1.708.116-3.4-.03-5.068a2.426,2.426,0,0,0-3.567-2.049c-.542.224-1.05.53-1.578.79a4.855,4.855,0,0,1-.473.173c-.028-.386-.053-.695-.077-1.022a2.674,2.674,0,0,0-1.521.028C70.684,354.061,70.684,356.432,70.684,358.855Zm-2.771,0h1.515v-7.231a2.757,2.757,0,0,0-1.515.039Zm-.252-9.463H65.931a2.465,2.465,0,0,0,.053,1.761C66.526,350.586,67.056,350.031,67.662,349.4Z" transform="translate(-62.47 -344.73)"/><path class="a" d="M585.964,427.483h-5.649c-.15-.463-.209-22.569-.071-23.56a35.324,35.324,0,0,1,5.712-.051c.018.228.057.471.057.715q.006,11.063,0,22.124C586.013,426.955,585.982,427.2,585.964,427.483Z" transform="translate(-475.011 -391.787)"/><path d="M102.91,385.212v-7.188a2.673,2.673,0,0,1,1.521-.028c.024.327.049.634.077,1.022a4.809,4.809,0,0,0,.473-.173c.528-.26,1.036-.567,1.578-.79a2.426,2.426,0,0,1,3.567,2.049c.148,1.668.03,3.36.03,5.068a3.976,3.976,0,0,1-1.515.065c-.014-.258-.035-.463-.035-.668,0-1.052.008-2.106-.008-3.159a4.305,4.305,0,0,0-.134-1.058,1.954,1.954,0,0,0-1.867-1.434,3.577,3.577,0,0,0-.693.022c-.453.077-.9.187-1.422.3v5.976C103.934,385.212,103.465,385.212,102.91,385.212Z" transform="translate(-94.696 -371.087)"/><path d="M89.27,385.583v-7.19a2.72,2.72,0,0,1,1.515-.039v7.231C90.294,385.583,89.822,385.583,89.27,385.583Z" transform="translate(-83.826 -371.454)"/><path d="M80.7,367.7c-.605.636-1.135,1.19-1.68,1.761a2.465,2.465,0,0,1-.053-1.761Z" transform="translate(-75.51 -363.034)"/></g></g></svg>