<?xml version="1.0" ?><svg data-name="Layer 1" id="Layer_1" viewBox="0 0 32 32" xmlns="http://www.w3.org/2000/svg"><defs><style>.cls-1{fill:#4d4d4d;}</style></defs><title/><path class="cls-1" d="M28,22H27V19a2,2,0,0,0-2-2H17V14h3a2,2,0,0,0,2-2V4a2,2,0,0,0-2-2H12a2,2,0,0,0-2,2v8a2,2,0,0,0,2,2h3v3H7a2,2,0,0,0-2,2v3H4a2,2,0,0,0-2,2v4a2,2,0,0,0,2,2H8a2,2,0,0,0,2-2V24a2,2,0,0,0-2-2H7V19h8v3H14a2,2,0,0,0-2,2v4a2,2,0,0,0,2,2h4a2,2,0,0,0,2-2V24a2,2,0,0,0-2-2H17V19h8v3H24a2,2,0,0,0-2,2v4a2,2,0,0,0,2,2h4a2,2,0,0,0,2-2V24A2,2,0,0,0,28,22ZM12,4h8v8H12ZM8,28H4V24H8Zm10,0H14V24h4Zm10,0H24V24h4Z"/></svg>