<svg xmlns="http://www.w3.org/2000/svg" width="58" height="58" viewBox="0 0 58 58"><defs><style>.a{fill:#fff;}.b{fill:#87ced9;}.c{fill:#fec9a3;}.d{fill:#d6d9db;}.e{fill:#cccfd1;}.f{fill:#3181bd;}.g{fill:#4398d1;}</style></defs><g transform="translate(0 -0.059)"><circle class="a" cx="29" cy="29" r="29" transform="translate(0 0.059)"/><g transform="translate(13.601 13.602)"><path class="b" d="M28.036,6.789,27.569,8.5h-1.6A12.87,12.87,0,0,0,2.651,16.012,12.509,12.509,0,0,0,3.031,19.1a12.268,12.268,0,0,0,.788,2.274H2.114l-.643,1.314c-.091-.188-.177-.381-.257-.574A15.551,15.551,0,0,1,28.036,6.789Zm0,0" transform="translate(0.034 -0.464)"/><path class="c" d="M202.165,160.418a2.145,2.145,0,0,1,2.145,2.145v1.072a2.145,2.145,0,0,1-4.29,0v-1.072A2.145,2.145,0,0,1,202.165,160.418Zm0,0" transform="translate(-186.611 -149.696)"/><path class="d" d="M178.165,272.418h3.217a2.145,2.145,0,0,1,2.145,2.145v8.043H176.02v-8.043A2.145,2.145,0,0,1,178.165,272.418Zm0,0" transform="translate(-164.219 -254.189)"/><path class="c" d="M90.165,160.418a2.145,2.145,0,0,1,2.145,2.145v1.072a2.145,2.145,0,0,1-4.29,0v-1.072A2.145,2.145,0,0,1,90.165,160.418Zm0,0" transform="translate(-82.118 -149.696)"/><path class="d" d="M69.382,272.418H66.165a2.145,2.145,0,0,0-2.145,2.145v5.881a15.377,15.377,0,0,0,1.8,1.626c.241.187.49.364.742.536h4.964v-8.043A2.145,2.145,0,0,0,69.382,272.418Zm0,0" transform="translate(-59.727 -254.189)"/><path class="e" d="M99.784,276.418c-.008-.039-.018-.077-.027-.116a2.056,2.056,0,0,0-.08-.258c-.015-.039-.029-.078-.047-.116a2.132,2.132,0,0,0-.143-.264c-.014-.021-.024-.044-.038-.065a2.081,2.081,0,0,0-.223-.268c-.034-.036-.073-.069-.107-.1a2.031,2.031,0,0,0-.166-.137c-.044-.033-.089-.065-.136-.094a2.033,2.033,0,0,0-.195-.107c-.045-.022-.087-.047-.134-.066-.71,5-2.56,7.97-4.14,9.657.17.125.339.252.513.371h4.962v-8.044A2.141,2.141,0,0,0,99.784,276.418Zm0,0" transform="translate(-88.022 -256.435)"/><path class="c" d="M314.165,160.418a2.145,2.145,0,0,1,2.145,2.145v1.072a2.145,2.145,0,0,1-4.29,0v-1.072A2.145,2.145,0,0,1,314.165,160.418Zm0,0" transform="translate(-291.103 -149.696)"/><path class="d" d="M293.382,272.418h-3.217a2.145,2.145,0,0,0-2.145,2.145v8.043h4.963c.254-.173.505-.35.748-.536a15.486,15.486,0,0,0,1.8-1.624v-5.884A2.145,2.145,0,0,0,293.382,272.418Zm0,0" transform="translate(-268.712 -254.189)"/><g transform="translate(7.511 18.229)"><path class="f" d="M224.02,272.418h1.072v6.971H224.02Zm0,0" transform="translate(-216.513 -272.418)"/><path class="f" d="M112.02,272.418h1.072v5.362H112.02Zm0,0" transform="translate(-112.02 -272.418)"/><path class="f" d="M336.02,272.418h1.072v5.362H336.02Zm0,0" transform="translate(-321.005 -272.418)"/></g><path class="e" d="M206.764,276.8a2.145,2.145,0,0,0-1.337-1.984c-.765,5.384-2.854,8.419-4.5,10.028h5.838Zm0,0" transform="translate(-187.456 -256.427)"/><path class="e" d="M318.725,276.418c-.008-.039-.018-.077-.027-.116a2.059,2.059,0,0,0-.08-.258c-.015-.039-.029-.078-.047-.116a2.134,2.134,0,0,0-.143-.264c-.014-.021-.024-.044-.038-.065a2.081,2.081,0,0,0-.223-.268c-.034-.036-.073-.069-.107-.1a2.032,2.032,0,0,0-.166-.137c-.044-.033-.089-.065-.136-.094a2.036,2.036,0,0,0-.195-.107c-.045-.022-.087-.047-.134-.066-.767,5.384-2.856,8.418-4.5,10.027h3.294c.254-.173.505-.35.748-.536a15.477,15.477,0,0,0,1.8-1.624v-5.884A2.144,2.144,0,0,0,318.725,276.418Zm0,0" transform="translate(-291.949 -256.435)"/><path class="g" d="M47.36,147a12.872,12.872,0,0,0,22.157-12.87h1.705l.638-1.314a15.556,15.556,0,0,1-19.943,21.069,15.338,15.338,0,0,1-3.56-2.059,15.553,15.553,0,0,1-3.057-3.11L45.768,147Zm0,0" transform="translate(-42.262 -123.945)"/></g></g></svg>