<svg xmlns="http://www.w3.org/2000/svg" width="58" height="59" viewBox="0 0 58 59"><defs><style>.a{fill:#fff;}.b{fill:#eaf2ff;}.c{fill:#e8e8e8;}.d{fill:#c9e0fd;}.e{fill:#ffd064;}.f{fill:#ffc250;}.g{fill:#60a0f7;}</style></defs><g transform="translate(0 0.258)"><ellipse class="a" cx="29" cy="29.5" rx="29" ry="29.5" transform="translate(0 -0.258)"/><g transform="translate(17.707 13.871)"><g transform="translate(0)"><g transform="translate(2.008 0.069)"><path class="b" d="M108.177,6.576a1.393,1.393,0,0,0-.164-1.091,9.561,9.561,0,0,0-6.24-4.291,9.451,9.451,0,0,0-8.295,9.368V21.844h2.832V10.639a6.683,6.683,0,0,1,6.639-6.681,6.6,6.6,0,0,1,5.228,2.619Z" transform="translate(-93.477 -1.194)"/><path class="c" d="M369.745,347.959v.515h.344Z" transform="translate(-353.704 -327.824)"/></g><g transform="translate(9.8)"><path class="d" d="M229.316,0a9.458,9.458,0,0,0-1.645.144,9.468,9.468,0,0,1,6.908,5.308,6.57,6.57,0,0,1,1.342,3.985V20.719h2.832V9.437A9.448,9.448,0,0,0,229.316,0Z" transform="translate(-227.671)"/></g><path class="e" d="M79.089,261.333V249.856a1.928,1.928,0,0,0-1.928-1.928H60.817a1.928,1.928,0,0,0-1.928,1.928v11.477a1.928,1.928,0,0,0,1.928,1.928H77.161A1.928,1.928,0,0,0,79.089,261.333Z" transform="translate(-58.889 -233.532)"/><path class="f" d="M366.507,247.928h-3.292a1.928,1.928,0,0,1,1.928,1.928v11.477a1.928,1.928,0,0,1-1.928,1.928h3.292a1.928,1.928,0,0,0,1.928-1.928V249.856A1.928,1.928,0,0,0,366.507,247.928Z" transform="translate(-345.544 -233.532)"/><circle class="a" cx="5.594" cy="5.594" r="5.594" transform="translate(5.851 16.468)"/><path class="b" d="M229.316,283.615a5.593,5.593,0,0,0-1.645.246,5.6,5.6,0,0,1,0,10.7,5.6,5.6,0,1,0,1.645-10.943Z" transform="translate(-217.871 -267.147)"/><path class="g" d="M230.741,331.668a1.659,1.659,0,1,0-2.68,1.308l-.447,2.341a.415.415,0,0,0,.408.493h2.119a.415.415,0,0,0,.408-.493l-.447-2.341A1.656,1.656,0,0,0,230.741,331.668Z" transform="translate(-217.636 -310.847)"/></g></g></g></svg>