<svg xmlns="http://www.w3.org/2000/svg" xmlns:xlink="http://www.w3.org/1999/xlink" width="58" height="58" viewBox="0 0 58 58"><defs><style>.a{fill:#fff;}.b{fill:url(#a);}.c{fill:url(#b);}</style><linearGradient id="a" x1="0.5" y1="1" x2="0.5" gradientUnits="objectBoundingBox"><stop offset="0" stop-color="#5558ff"/><stop offset="1" stop-color="#00c0ff"/></linearGradient><linearGradient id="b" x1="0.5" y1="1" x2="0.5" gradientUnits="objectBoundingBox"><stop offset="0" stop-color="#addcff"/><stop offset="0.503" stop-color="#eaf6ff"/><stop offset="1" stop-color="#eaf6ff"/></linearGradient></defs><g transform="translate(0 0.129)"><circle class="a" cx="29" cy="29" r="29" transform="translate(0 -0.129)"/><g transform="translate(13.871 14.287)"><path class="b" d="M16.607,29.729H13.123a.871.871,0,0,1-.859-.73l-.536-3.263A11.223,11.223,0,0,1,9.4,24.768L6.749,26.659a.871.871,0,0,1-1.122-.093L3.163,24.1A.871.871,0,0,1,3.07,22.98l1.891-2.647A11.223,11.223,0,0,1,3.993,18L.73,17.466a.871.871,0,0,1-.73-.86V13.123a.871.871,0,0,1,.73-.859l3.263-.536A11.223,11.223,0,0,1,4.961,9.4L3.07,6.749a.871.871,0,0,1,.093-1.122L5.626,3.163A.871.871,0,0,1,6.749,3.07L9.4,4.961a11.223,11.223,0,0,1,2.332-.968L12.263.73A.871.871,0,0,1,13.123,0h3.484a.871.871,0,0,1,.859.73L18,3.993a11.223,11.223,0,0,1,2.332.968L22.981,3.07a.871.871,0,0,1,1.122.093l2.463,2.463a.871.871,0,0,1,.093,1.122L24.768,9.4a11.225,11.225,0,0,1,.968,2.332L29,12.263a.871.871,0,0,1,.73.86v3.484a.871.871,0,0,1-.73.859L25.736,18a11.22,11.22,0,0,1-.968,2.332l1.891,2.647a.871.871,0,0,1-.093,1.122L24.1,26.566a.871.871,0,0,1-1.122.093l-2.647-1.891A11.224,11.224,0,0,1,18,25.736L17.466,29a.871.871,0,0,1-.859.73ZM28.858,16.606h0Z" transform="translate(0 0)"/><path class="c" d="M157.1,163.194a6.1,6.1,0,1,1,6.1-6.1A6.1,6.1,0,0,1,157.1,163.194Z" transform="translate(-142.232 -142.232)"/></g></g></svg>