<svg xmlns="http://www.w3.org/2000/svg" xmlns:xlink="http://www.w3.org/1999/xlink" width="58" height="58" viewBox="0 0 58 58"><defs><style>.a{fill:#fff;}.b{fill:url(#a);}.c{fill:url(#b);}.d{fill:url(#c);}.e{fill:url(#d);}.f{fill:#ffb92d;}.g{fill:url(#e);}.h{fill:url(#f);}</style><linearGradient id="a" x1="0.496" y1="0.296" x2="0.496" y2="1.307" gradientUnits="objectBoundingBox"><stop offset="0" stop-color="#fff465"/><stop offset="1" stop-color="#ffe600"/></linearGradient><linearGradient id="b" x1="0.496" y1="0.726" x2="0.496" y2="-0.285" xlink:href="#a"/><linearGradient id="c" x1="0.721" y1="0.288" x2="-0.041" y2="1.05" xlink:href="#a"/><linearGradient id="d" x1="1.013" y1="0.088" x2="-0.377" y2="0.699" gradientUnits="objectBoundingBox"><stop offset="0" stop-color="#ffe600" stop-opacity="0"/><stop offset="1" stop-color="#f59500"/></linearGradient><radialGradient id="e" cx="0.478" cy="1.237" r="1.262" gradientTransform="matrix(0.406, 0, 0, -1, 0.282, 2.545)" gradientUnits="objectBoundingBox"><stop offset="0" stop-color="#00a2f3"/><stop offset="0.273" stop-color="#03a4f3"/><stop offset="0.463" stop-color="#0caaf4"/><stop offset="0.627" stop-color="#1bb4f5"/><stop offset="0.777" stop-color="#31c2f7"/><stop offset="0.916" stop-color="#4dd4f9"/><stop offset="1" stop-color="#62e1fb"/></radialGradient><radialGradient id="f" cx="0.522" cy="-0.237" r="1.262" gradientTransform="matrix(-0.406, 0, 0, 1, 0.479, 0)" gradientUnits="objectBoundingBox"><stop offset="0" stop-color="#be3f45"/><stop offset="0.317" stop-color="#c14046"/><stop offset="0.538" stop-color="#ca4148"/><stop offset="0.729" stop-color="#d9444b"/><stop offset="0.902" stop-color="#ef4950"/><stop offset="1" stop-color="#ff4c54"/></radialGradient></defs><g transform="translate(0 -0.317)"><circle class="a" cx="29" cy="29" r="29" transform="translate(0 0.317)"/><g transform="translate(13.87 14.159)"><circle class="b" cx="9.569" cy="9.569" r="9.569" transform="translate(5.671 5.424)"/><circle class="c" cx="9.096" cy="9.096" r="9.096" transform="translate(6.144 5.897)"/><circle class="d" cx="7.339" cy="7.339" r="7.339" transform="translate(7.901 7.653)"/><path class="e" d="M214.391,168.177l-4.57-4.57a1.139,1.139,0,0,0-.633-.438,4.781,4.781,0,0,0-1.052-.243l-.491-.438a.284.284,0,0,0-.126-.187.465.465,0,0,0-.28-.1.427.427,0,0,0-.28.1.279.279,0,0,0-.116.219v.4a3.431,3.431,0,0,0-1.853.738,2.2,2.2,0,0,0-.745,1.8,2.9,2.9,0,0,0,.1.771,1.573,1.573,0,0,0,.315.607,5.062,5.062,0,0,0,.417.444l.022.019,1.748,1.752v2.287a2.38,2.38,0,0,1-1.067-.314,4.523,4.523,0,0,1-.725-.512.742.742,0,0,0-.426-.239.54.54,0,0,0-.435.259.873.873,0,0,0-.19.518,1.136,1.136,0,0,0,.492.837l3.225,3.225A7.34,7.34,0,0,0,214.391,168.177Z" transform="translate(-191.821 -152.81)"/><path class="f" d="M204,171.051a.873.873,0,0,1,.19-.518.54.54,0,0,1,.435-.259.742.742,0,0,1,.426.239,4.53,4.53,0,0,0,.725.512,2.381,2.381,0,0,0,1.067.314v-3.206q-.41-.15-.629-.239t-.581-.259a2.2,2.2,0,0,1-.561-.355,5.044,5.044,0,0,1-.417-.444,1.573,1.573,0,0,1-.315-.607,2.9,2.9,0,0,1-.1-.771,2.2,2.2,0,0,1,.745-1.8,3.431,3.431,0,0,1,1.853-.738v-.4a.279.279,0,0,1,.116-.219.427.427,0,0,1,.28-.1.464.464,0,0,1,.28.1.272.272,0,0,1,.13.219v.369a5.019,5.019,0,0,1,1.538.28q.7.253.7.7a.976.976,0,0,1-.166.513.5.5,0,0,1-.441.267,2.315,2.315,0,0,1-.6-.232,2.907,2.907,0,0,0-1.037-.273v2.771a8.958,8.958,0,0,1,.9.389,4.38,4.38,0,0,1,.762.512,2.047,2.047,0,0,1,.605.825,3.067,3.067,0,0,1,.2,1.167,2.748,2.748,0,0,1-.666,1.942,2.945,2.945,0,0,1-1.808.885v.457a.266.266,0,0,1-.13.215.469.469,0,0,1-.28.094.433.433,0,0,1-.28-.094.273.273,0,0,1-.116-.215v-.416a3.741,3.741,0,0,1-2.017-.544Q204,171.6,204,171.051Zm1.6-5.731a1,1,0,0,0,.332.812,3.386,3.386,0,0,0,.995.525v-2.486Q205.6,164.336,205.6,165.32Zm1.969,5.99a1.274,1.274,0,0,0,1.2-1.351,1.336,1.336,0,0,0-.315-.941,2.562,2.562,0,0,0-.889-.587v2.879Z" transform="translate(-191.82 -152.81)"/><path class="g" d="M44.472,11.474a1.341,1.341,0,0,0-1.616.581A15,15,0,0,0,15.8,15.1a1.341,1.341,0,1,0,2.546.845,12.321,12.321,0,0,1,22.052-2.771,1.341,1.341,0,0,0-.659,2.586l2.793,1.022.02.006.071.022.038.011.073.016.037.007.078.01.032,0c.037,0,.073,0,.11,0h0c.035,0,.069,0,.1,0l.025,0c.027,0,.053-.005.079-.009l.03-.006.073-.015.034-.009L43.4,16.8l.01,0,.019-.008c.03-.01.059-.022.088-.034l.037-.016c.028-.013.056-.027.083-.042l.026-.014c.033-.019.064-.04.1-.061l.035-.026.061-.048.032-.028c.023-.02.044-.042.066-.064l.018-.018q.041-.044.079-.093l.005-.007c.022-.029.043-.06.063-.091l.016-.025q.023-.038.044-.078l.017-.033c.012-.025.023-.051.034-.077s.01-.024.015-.036l.005-.012,1.022-2.792A1.341,1.341,0,0,0,44.472,11.474Z" transform="translate(-14.789 -4.836)"/><path class="h" d="M.881,311a1.341,1.341,0,0,0,1.616-.581,15,15,0,0,0,27.058-3.049,1.341,1.341,0,1,0-2.546-.845,12.321,12.321,0,0,1-22.052,2.771,1.341,1.341,0,0,0,.659-2.586l-2.793-1.022-.02-.006-.071-.022-.038-.011-.073-.016-.037-.007-.078-.01-.032,0c-.037,0-.073,0-.11,0h0c-.035,0-.069,0-.1,0l-.025,0c-.027,0-.053.005-.079.009l-.03.006-.073.015-.034.009-.068.019-.01,0-.019.007c-.03.01-.059.022-.088.034l-.037.016c-.028.013-.056.027-.083.042l-.026.014c-.033.019-.064.04-.1.061l-.035.026c-.021.016-.041.031-.061.048l-.032.028q-.034.031-.066.064l-.018.018q-.041.044-.079.093l-.005.007c-.022.029-.043.06-.063.091l-.016.026q-.023.038-.044.078l-.017.033c-.012.025-.023.051-.034.077s-.01.024-.015.036l-.005.012L.082,309.276A1.341,1.341,0,0,0,.881,311Z" transform="translate(0 -287.649)"/></g></g></svg>