<svg xmlns="http://www.w3.org/2000/svg" width="58" height="58" viewBox="0 0 58 58"><defs><style>.a{fill:#fff;}.b{fill:#edf0f5;}.c{fill:#d8dceb;}.d{fill:#0fa9dd;}.e{fill:#0d91bd;}.f{fill:#7ed8f6;}.g{fill:#2fc0f0;}.h{fill:#ff946a;}.i{fill:#ff6426;}.j{fill:#ffa17b;}.k{fill:#ff8859;}.l{fill:#ff4c04;}.m{fill:#ffb99d;}.n{fill:#ff7c48;}.o{fill:#0b799d;}</style></defs><g transform="translate(0 -0.446)"><circle class="a" cx="29" cy="29" r="29" transform="translate(0 0.446)"/><g transform="translate(12.864 15.357)"><path class="b" d="M90.424,24.375V41.788a.968.968,0,0,1-.968.968H67.25a.968.968,0,0,1-.968-.968V24.375l12.071-8.657Zm0,0" transform="translate(-62.064 -14.75)"/><path class="c" d="M268.071,24.376V41.788a.968.968,0,0,1-.968.968H256V15.719Zm0,0" transform="translate(-239.712 -14.75)"/><path class="d" d="M32.395,13.019a.968.968,0,0,1-1.351.223L16.288,2.66,1.532,13.242A.968.968,0,0,1,.4,11.668L15.724.681a.968.968,0,0,1,1.128,0l15.32,10.986a.968.968,0,0,1,.223,1.351Zm0,0" transform="translate(0 -0.5)"/><path class="e" d="M272.107,13.019a.968.968,0,0,1-1.351.223L256,2.659V.5a.963.963,0,0,1,.564.181l15.32,10.986a.968.968,0,0,1,.223,1.351Zm0,0" transform="translate(-239.711 -0.5)"/><path class="f" d="M140.661,313.945v6.188a.968.968,0,0,1-.968.968h-5.9a.968.968,0,0,1-.968-.968v-6.188a.968.968,0,0,1,.968-.968h5.9A.968.968,0,0,1,140.661,313.945Zm0,0" transform="translate(-124.373 -293.095)"/><path class="g" d="M198.336,313.945v6.188a.968.968,0,0,1-.968.968h-2.95v-8.125h2.95a.968.968,0,0,1,.968.968Zm0,0" transform="translate(-182.048 -293.095)"/><path class="d" d="M140.661,313.945v2.007h-7.837v-2.007a.969.969,0,0,1,.968-.968h5.9A.969.969,0,0,1,140.661,313.945Zm0,0" transform="translate(-124.373 -293.095)"/><path class="e" d="M198.336,313.945v2.008h-3.918v-2.976h2.95a.969.969,0,0,1,.968.968Zm0,0" transform="translate(-182.048 -293.095)"/><path class="h" d="M198.336,186.265v6.187a.968.968,0,0,1-.968.968h-2.95V185.3h2.95a.968.968,0,0,1,.968.968Zm0,0" transform="translate(-182.048 -173.539)"/><path class="i" d="M198.336,186.266v2.007h-3.918V185.3h2.95a.968.968,0,0,1,.968.968Zm0,0" transform="translate(-182.048 -173.539)"/><path class="j" d="M263.837,313.945v6.188a.968.968,0,0,1-.968.968h-5.9a.968.968,0,0,1-.968-.968v-6.188a.968.968,0,0,1,.968-.968h5.9A.969.969,0,0,1,263.837,313.945Zm0,0" transform="translate(-239.712 -293.095)"/><path class="k" d="M321.5,313.945v6.188a.968.968,0,0,1-.968.968h-2.951v-8.125h2.951a.969.969,0,0,1,.968.968Zm0,0" transform="translate(-297.376 -293.095)"/><path class="i" d="M263.837,313.945v2.007H256v-2.007a.969.969,0,0,1,.968-.968h5.9a.969.969,0,0,1,.968.968Zm0,0" transform="translate(-239.712 -293.095)"/><path class="l" d="M321.5,313.945v2.008h-3.919v-2.976h2.951A.969.969,0,0,1,321.5,313.945Zm0,0" transform="translate(-297.376 -293.095)"/><path class="h" d="M198.336,186.265v6.187a.968.968,0,0,1-.968.968h-2.95V185.3h2.95a.968.968,0,0,1,.968.968Zm0,0" transform="translate(-182.048 -173.539)"/><path class="m" d="M140.661,186.266v6.187a.968.968,0,0,1-.968.968h-5.9a.968.968,0,0,1-.968-.968v-6.187a.968.968,0,0,1,.968-.968h5.9A.968.968,0,0,1,140.661,186.266Zm0,0" transform="translate(-124.373 -173.539)"/><path class="h" d="M198.336,186.265v6.187a.968.968,0,0,1-.968.968h-2.95V185.3h2.95a.968.968,0,0,1,.968.968Zm0,0" transform="translate(-182.048 -173.539)"/><path class="n" d="M140.661,186.266v2.007h-7.837v-2.007a.968.968,0,0,1,.968-.968h5.9A.968.968,0,0,1,140.661,186.266Zm0,0" transform="translate(-124.373 -173.539)"/><path class="i" d="M198.336,186.266v2.007h-3.918V185.3h2.95a.968.968,0,0,1,.968.968Zm0,0" transform="translate(-182.048 -173.539)"/><path class="g" d="M263.837,186.266v6.187a.968.968,0,0,1-.968.968h-5.9a.968.968,0,0,1-.968-.968v-6.187a.968.968,0,0,1,.968-.968h5.9A.968.968,0,0,1,263.837,186.266Zm0,0" transform="translate(-239.712 -173.539)"/><path class="d" d="M321.5,186.265v6.187a.968.968,0,0,1-.968.968h-2.951V185.3h2.951a.968.968,0,0,1,.968.968Zm0,0" transform="translate(-297.376 -173.539)"/><path class="e" d="M263.837,186.266v2.007H256v-2.007a.968.968,0,0,1,.968-.968h5.9a.968.968,0,0,1,.968.968Zm0,0" transform="translate(-239.712 -173.539)"/><path class="o" d="M321.5,186.266v2.007h-3.919V185.3h2.951a.968.968,0,0,1,.968.968Zm0,0" transform="translate(-297.376 -173.539)"/><path class="n" d="M213.724,67.895a2.873,2.873,0,1,0,2.873,2.873A2.876,2.876,0,0,0,213.724,67.895Zm0,3.809a.936.936,0,1,1,.936-.936A.937.937,0,0,1,213.724,71.7Zm0,0" transform="translate(-197.436 -63.606)"/><path class="l" d="M258.872,70.767A2.876,2.876,0,0,1,256,73.64V71.7a.936.936,0,0,0,0-1.872V67.895A2.876,2.876,0,0,1,258.872,70.767Zm0,0" transform="translate(-239.711 -63.607)"/></g></g></svg>