<svg xmlns="http://www.w3.org/2000/svg" width="156.549" height="95.927" viewBox="0 0 156.549 95.927"><defs><style>.a{fill:#f6f1f1;}.b{fill:#eadfda;}.c{fill:#00bcc9;}.d{fill:#b1e4f9;}.e{fill:#544f57;}.f{fill:#454045;}.g{fill:#f6e266;}.h{fill:#d82e3d;}.i{fill:#da4a54;}</style></defs><g transform="translate(0 -99.134)"><path class="a" d="M156.753,181.77l-11.218-6.354a13.4,13.4,0,0,1-3.3-2.623H135.11l-32-29.506v-5.543H12.386A4.884,4.884,0,0,0,7.5,142.627v42.2L11.718,194H154.444l4.773-9.173A5.327,5.327,0,0,0,156.753,181.77Z" transform="translate(-5.207 -26.805)"/><path class="b" d="M445.272,260.222l-11.218-6.354a13.391,13.391,0,0,1-3.3-2.623h-7.129l-.539-.5c.14.169.284.335.432.5a13.4,13.4,0,0,0,3.3,2.623l11.218,6.354a5.328,5.328,0,0,1,2.465,3.058,5.218,5.218,0,0,1,.244,1.59v7.583h2.218l4.773-9.173A5.324,5.324,0,0,0,445.272,260.222Z" transform="translate(-293.726 -105.257)"/><path class="c" d="M159.462,293.324v12.713a5.34,5.34,0,0,1-5.339,5.341H12.386A4.886,4.886,0,0,1,7.5,306.493V291.734H159.218A5.218,5.218,0,0,1,159.462,293.324Z" transform="translate(-5.207 -133.711)"/><path class="c" d="M475.706,291.734H468.47a5.227,5.227,0,0,1,.244,1.59v12.714a5.34,5.34,0,0,1-5.338,5.341h7.235a5.34,5.34,0,0,0,5.338-5.341V293.324A5.227,5.227,0,0,0,475.706,291.734Z" transform="translate(-321.694 -133.711)"/><g transform="translate(80.119 108.645)"><path class="b" d="M264.325,201.556a2.293,2.293,0,0,1-2.293-2.293V132.534a2.293,2.293,0,0,1,4.586,0v66.729A2.293,2.293,0,0,1,264.325,201.556Z" transform="translate(-262.032 -130.241)"/></g><path class="d" d="M359.328,172.793H324.633a4.435,4.435,0,0,1-4.433-4.436V137.744h19.682a8.571,8.571,0,0,1,8.1,5.757l8.558,24.614A13.509,13.509,0,0,0,359.328,172.793Z" transform="translate(-222.296 -26.805)"/><path class="c" d="M384.8,168.115,376.238,143.5a8.571,8.571,0,0,0-8.1-5.757h-7.235A8.571,8.571,0,0,1,369,143.5l8.558,24.614a13.5,13.5,0,0,0,2.792,4.678h7.235A13.507,13.507,0,0,1,384.8,168.115Z" transform="translate(-250.556 -26.805)"/><path class="e" d="M333.681,202.257h-9.048a4.435,4.435,0,0,1-4.433-4.436V180.184h3.972a6.711,6.711,0,0,1,6.611,5.553Z" transform="translate(-222.296 -56.268)"/><path class="e" d="M395.22,222.007a2.293,2.293,0,1,0-3.243,3.243l5.575,5.576h6.487Z" transform="translate(-271.66 -84.837)"/><g transform="translate(117.624 134.477)"><path class="f" d="M386.988,223.354a2.293,2.293,0,0,1-1.621-3.915l4.042-4.042a2.293,2.293,0,1,1,3.243,3.243l-4.042,4.042A2.285,2.285,0,0,1,386.988,223.354Z" transform="translate(-384.694 -214.725)"/></g><g transform="translate(145.605 165.033)"><path class="g" d="M484.857,319.244H478.5a2.293,2.293,0,1,1,0-4.586h6.358a2.293,2.293,0,0,1,0,4.586Z" transform="translate(-476.206 -314.658)"/></g><g transform="translate(0 165.033)"><path class="h" d="M6.511,319.244H2.293a2.293,2.293,0,1,1,0-4.586H6.511a2.293,2.293,0,1,1,0,4.586Z" transform="translate(0 -314.658)"/></g><circle class="e" cx="14.479" cy="14.479" r="14.479" transform="translate(17.542 166.103)"/><path class="f" d="M98.924,318.157a14.556,14.556,0,0,0-2.556.229,14.476,14.476,0,0,1,0,28.5,14.478,14.478,0,1,0,2.556-28.728Z" transform="translate(-66.903 -152.055)"/><circle class="a" cx="5.111" cy="5.111" r="5.111" transform="translate(26.91 175.471)"/><path class="b" d="M99.853,348.8a5.086,5.086,0,0,0-2.146.477,5.1,5.1,0,0,1,0,9.268,5.109,5.109,0,1,0,2.146-9.745Z" transform="translate(-67.832 -173.325)"/><circle class="e" cx="14.479" cy="14.479" r="14.479" transform="translate(102.989 166.103)"/><path class="f" d="M378.382,318.157a14.556,14.556,0,0,0-2.555.229,14.476,14.476,0,0,1,0,28.5,14.478,14.478,0,1,0,2.555-28.728Z" transform="translate(-260.915 -152.055)"/><circle class="a" cx="5.111" cy="5.111" r="5.111" transform="translate(112.357 175.471)"/><path class="b" d="M379.312,348.8a5.088,5.088,0,0,0-2.146.477,5.1,5.1,0,0,1,0,9.268,5.109,5.109,0,1,0,2.146-9.745Z" transform="translate(-261.844 -173.325)"/><path class="c" d="M159.775,179.739h-5.034a.317.317,0,0,1-.317-.317v-5.034a2.2,2.2,0,0,0-2.2-2.2H146.89a2.2,2.2,0,0,0-2.2,2.2v5.034a.317.317,0,0,1-.317.317h-5.034a2.2,2.2,0,0,0-2.2,2.2v5.339a2.2,2.2,0,0,0,2.2,2.2h5.034a.317.317,0,0,1,.317.317v5.034a2.2,2.2,0,0,0,2.2,2.2h5.339a2.2,2.2,0,0,0,2.2-2.2v-5.034a.317.317,0,0,1,.317-.317h5.034a2.2,2.2,0,0,0,2.2-2.2v-5.339A2.2,2.2,0,0,0,159.775,179.739Z" transform="translate(-95.214 -50.72)"/><g transform="translate(53.217 121.472)"><path class="h" d="M176.246,174.387v5.034a.317.317,0,0,0,.317.317h3.8a.317.317,0,0,1-.317-.317v-5.034a2.2,2.2,0,0,0-2.2-2.2h-3.8A2.2,2.2,0,0,1,176.246,174.387Z" transform="translate(-174.051 -172.192)"/><path class="h" d="M202.529,196.873h-3.8a2.2,2.2,0,0,1,2.2,2.2v5.339a2.2,2.2,0,0,1-2.2,2.2h3.8a2.2,2.2,0,0,0,2.2-2.2v-5.339A2.2,2.2,0,0,0,202.529,196.873Z" transform="translate(-191.185 -189.327)"/><path class="h" d="M176.246,229.01v5.034a2.2,2.2,0,0,1-2.2,2.2h3.8a2.2,2.2,0,0,0,2.2-2.2V229.01a.317.317,0,0,1,.317-.317h-3.8A.317.317,0,0,0,176.246,229.01Z" transform="translate(-174.05 -211.417)"/></g><g transform="translate(9.716 138.498)"><path class="f" d="M51.718,232.461H34.069a2.293,2.293,0,0,1,0-4.587H51.718a2.293,2.293,0,0,1,0,4.587Z" transform="translate(-31.776 -227.874)"/></g><g transform="translate(9.716 145.891)"><path class="f" d="M60.89,256.641H34.069a2.293,2.293,0,0,1,0-4.587H60.89a2.293,2.293,0,0,1,0,4.587Z" transform="translate(-31.776 -252.054)"/></g><path class="i" d="M342.747,110.939H330.941v-5.9a5.9,5.9,0,0,1,11.806,0Z" transform="translate(-229.753 0)"/><path class="h" d="M344.728,99.134a5.876,5.876,0,0,0-2.43.527,5.9,5.9,0,0,1,3.473,5.375v5.9h4.859v-5.9A5.9,5.9,0,0,0,344.728,99.134Z" transform="translate(-237.637 0)"/></g></svg>