<svg xmlns="http://www.w3.org/2000/svg" width="164.201" height="164.201" viewBox="0 0 164.201 164.201"><defs><style>.a{fill:#1ebbc7;}.b{fill:#fff;}</style></defs><path class="a" d="M164.2,82.1A82.1,82.1,0,1,1,82.1,0,82.1,82.1,0,0,1,164.2,82.1Zm0,0"/><path class="b" d="M124.476,175.829,89.055,141.356l22.018-21.428,13.4,13.044,44.509-43.308L191,111.092Zm0,0" transform="translate(-60.494 -60.908)"/><g transform="translate(41.05 123.151)"><path class="b" d="M133.131,384h30.788a5.131,5.131,0,0,1,0,10.263H133.131a5.131,5.131,0,0,1,0-10.263Zm0,0" transform="translate(-128 -384)"/><path class="b" d="M288,384h10.263v10.263H288Zm0,0" transform="translate(-236.687 -384)"/><path class="b" d="M352,384h10.263v10.263H352Zm0,0" transform="translate(-280.162 -384)"/></g></svg>