<svg xmlns="http://www.w3.org/2000/svg" width="126.987" height="126.986" viewBox="0 0 126.987 126.986"><defs><style>.a{fill:#8fd0d9;}.b{fill:#fec9a3;}.c{fill:#92563a;}.d{fill:#fcac1f;}.e{fill:#ffb531;}.f{fill:#cfcfcd;}.g{fill:#34507b;}.h{fill:#e0e0de;}.i{fill:#bfbfbd;}.j{fill:#348fd9;}</style></defs><path class="a" d="M32.758,188.379V225.6H63.409a4.379,4.379,0,0,1,0,8.758H28.379A4.379,4.379,0,0,1,24,229.978v-41.6a4.379,4.379,0,0,1,8.758,0Z" transform="translate(-23.999 -140.212)"/><path class="a" d="M368.841,188.379V225.6H340.379a4.379,4.379,0,1,0,0,8.758H373.22a4.379,4.379,0,0,0,4.379-4.379v-41.6a4.379,4.379,0,0,0-8.758,0Z" transform="translate(-250.612 -140.212)"/><path class="b" d="M56,288H93.3a10.381,10.381,0,0,1,10.317,11.527l-3.828,34.451H91.031V301.136H64.758A8.758,8.758,0,0,1,56,292.379Z" transform="translate(-47.242 -215.749)"/><path class="c" d="M197.827,464.758H184V456h8.758l5.964,1.491a3.688,3.688,0,0,1-.894,7.267Z" transform="translate(-140.211 -337.772)"/><path class="c" d="M56,288H86.652v13.137H64.758A8.758,8.758,0,0,1,56,292.379Z" transform="translate(-47.242 -215.749)"/><ellipse class="d" cx="6.568" cy="6.568" rx="6.568" ry="6.568" transform="translate(15.704 2.189)"/><path class="e" d="M403.7,195.031H384V175.857A22.425,22.425,0,0,1,390.568,160H403.7Z" transform="translate(-285.476 -122.78)"/><path class="b" d="M372.379,56,368,69.136h4.379v8.758h6.568v6.568h13.136V56Z" transform="translate(-273.855 -47.242)"/><path class="c" d="M368,24h15.326a8.758,8.758,0,0,1,8.758,8.758v8.758l-6.568-8.758H372.379A4.379,4.379,0,0,1,368,28.379Z" transform="translate(-273.855 -24)"/><g transform="translate(0 94.145)"><path class="f" d="M0,0H8.758V21.894H0Z" transform="translate(21.895 21.894) rotate(180)"/><path class="f" d="M28.377,450.189,37.135,448h8.758l8.758,2.189a4.379,4.379,0,1,1-3.788,6.568h-18.7a4.377,4.377,0,1,1-3.788-6.568Z" transform="translate(-23.998 -426.106)"/><path class="f" d="M408,368h8.758v21.894H408Z" transform="translate(-302.908 -368)"/><path class="f" d="M390.64,450.189,381.882,448h-8.758l-8.758,2.189a4.379,4.379,0,1,0,3.788,6.568h18.7a4.377,4.377,0,1,0,3.788-6.568Z" transform="translate(-268.033 -426.106)"/></g><path class="c" d="M330.607,288H293a9.644,9.644,0,0,0-9.415,11.736l7.608,34.241h10.947l-6.568-32.841h26.273a8.758,8.758,0,0,0,8.758-8.758Z" transform="translate(-212.378 -215.749)"/><path class="g" d="M284.379,456H299.7v8.758H284.379a4.379,4.379,0,1,1,0-8.758Z" transform="translate(-209.938 -337.772)"/><path class="b" d="M323.03,208v13.136l-26.273,2.189L288,227.7v6.568h4.379l6.568-2.189h28.462a6.568,6.568,0,0,0,6.568-6.568V208Z" transform="translate(-215.749 -157.644)"/><path class="e" d="M426.947,173.136H416v-7.663a5.474,5.474,0,0,1,10.947,0Z" transform="translate(-308.718 -122.78)"/><path class="h" d="M77.894,217.682H56V189.22L73.515,152H86.652l4.61,9.22a8.758,8.758,0,0,1-7.833,12.674H82.273l-4.379,6.568Z" transform="translate(-47.242 -116.969)"/><path class="i" d="M80,296h8.758v4.379H80Z" transform="translate(-64.674 -221.56)"/><path class="b" d="M133.136,64.839l2.567-6.568h7.9v-7.6l2.668-2.668L143.6,42.672V41.337A9.336,9.336,0,0,0,134.386,32a9.524,9.524,0,0,0-9.458,9.549l-2.36,16.724L120,64.839Z" transform="translate(-93.726 -29.809)"/><path class="e" d="M123.326,49.067,121.3,47.044a3.277,3.277,0,0,1,3.814-5.232l.712.365,7.126-9.5a9.3,9.3,0,0,0-3.5-.678h-4.246q-.251,0-.5.01a11.98,11.98,0,0,0-11.238,13.529l.061.364a39.453,39.453,0,0,0,4.223,12.37Z" transform="translate(-88.919 -29.811)"/><path class="j" d="M328.758,173.136,320,170.947v-8.758L328.758,160Z" transform="translate(-238.991 -122.78)"/><path class="j" d="M187.765,190.652A19.787,19.787,0,0,1,168,170.887V160h4.379v10.887a15.386,15.386,0,0,0,30.122,4.421l2.811-9.37a2.189,2.189,0,0,1,2.1-1.56H209.6v4.379h-.56l-2.343,7.809A19.764,19.764,0,0,1,187.765,190.652Z" transform="translate(-128.59 -122.78)"/><path class="j" d="M152.758,104.084A8.768,8.768,0,0,1,144,95.326V80h4.379V95.326a4.379,4.379,0,1,0,8.758,0V93.136h4.379v2.189A8.767,8.767,0,0,1,152.758,104.084Z" transform="translate(-111.158 -64.674)"/><path class="b" d="M130.532,153.775l17.93,17.93,17.515-15.326h8.758v8.758h-6.568l-13.136,15.326a11.841,11.841,0,0,1-13.136,0l-19.888-17.9A6.06,6.06,0,0,1,126.059,152h.188a6.06,6.06,0,0,1,4.285,1.775Z" transform="translate(-93.726 -116.969)"/><path class="h" d="M130.532,153.775A6.06,6.06,0,0,0,126.248,152h-.189a6.059,6.059,0,0,0-4.054,10.562l6.752,6.077,8.758-7.882Z" transform="translate(-93.726 -116.969)"/></svg>