<svg xmlns="http://www.w3.org/2000/svg" width="139.009" height="35.387" viewBox="0 0 139.009 35.387"><defs><style>.a{fill:#fff;}.b{fill:#00bcc9;}</style></defs><g transform="translate(-62.47 -344.73)"><g transform="translate(62.47 344.73)"><path class="a" d="M161.327,422.545H155.8c-.02-.3-.051-.572-.051-.846,0-3.4.012-6.8-.012-10.2a16.94,16.94,0,0,0-.2-2.779,3.56,3.56,0,0,0-2.727-3.08,6.235,6.235,0,0,0-3.181,0,3.6,3.6,0,0,0-2.736,3.142,16.215,16.215,0,0,0-.181,2.538c-.023,2.227-.006,4.453-.01,6.68a9.068,9.068,0,0,0,.177,1.984,2.961,2.961,0,0,1-2.243,3.5,3.019,3.019,0,0,1-3.585-2.058,3.331,3.331,0,0,1-.057-1.562,5.867,5.867,0,0,0,.1-.958c.01-2.773-.025-5.547.027-8.319.021-1.086.228-2.167.359-3.251a1.226,1.226,0,0,1,.61-.911,8.851,8.851,0,0,0,3.76-5.19,1.267,1.267,0,0,1,.724-.885A10.229,10.229,0,0,1,158.138,402c.115.109.236.214.382.349.146-.127.285-.236.412-.357a9.639,9.639,0,0,1,6.275-2.694,9.865,9.865,0,0,1,7.419,2.557,9.082,9.082,0,0,1,2.335,3.5A15.743,15.743,0,0,1,176,411.238c.012,2.469,0,4.938.01,7.408a6.19,6.19,0,0,0,.135,1.2,3.021,3.021,0,0,1-5.806,1.646,3.121,3.121,0,0,1-.055-1.734,3.483,3.483,0,0,0,.1-.776c.006-2.692.018-5.385-.006-8.077a12.2,12.2,0,0,0-.2-2.231,3.716,3.716,0,0,0-3.838-3.208,7.908,7.908,0,0,0-1.87.125A3.5,3.5,0,0,0,161.727,408a8.194,8.194,0,0,0-.384,2.752c-.021,3.6-.014,7.207-.018,10.809C161.327,421.864,161.327,422.164,161.327,422.545Z" transform="translate(-125.622 -388.629)"/><path class="a" d="M607.222,366.994c-.862.172-1.693.312-2.512.5a17.96,17.96,0,0,0-5.914,2.436,10.191,10.191,0,0,0-3.413,3.558,7.824,7.824,0,0,0-.991,4.379,6.717,6.717,0,0,0,3.255,5.522,13.514,13.514,0,0,0,4.751,1.748,30.238,30.238,0,0,0,5.611.507c.158,0,.318-.019.464-.029.232-.363.01-.538-.228-.718a3.675,3.675,0,0,1-1.453-2.37,3.735,3.735,0,0,1,6.932-2.471,3.7,3.7,0,0,1-.568,4.429,1.084,1.084,0,0,0-.333.856,4.591,4.591,0,0,1-.706,2.536,2.182,2.182,0,0,1-1.516,1.112c-.932.172-1.866.374-2.809.456a32.337,32.337,0,0,1-3.637.133,15.3,15.3,0,0,1-5.943-1.307A12.694,12.694,0,0,1,593,383.945c-.127-.179-.253-.359-.437-.614a3.476,3.476,0,0,0-.121.433,6.3,6.3,0,0,1-3.452,4.909,1.447,1.447,0,0,1-1.494,0,6.194,6.194,0,0,1-3.491-5.7c-.033-6.436-.02-12.873,0-19.309a1.663,1.663,0,0,0-1.124-1.646c-.14.219-.261.425-.4.62a3.814,3.814,0,0,1-4.059,1.689,3.745,3.745,0,0,1-3.082-2.912,3.947,3.947,0,0,1,7.593-2.147,1.524,1.524,0,0,0,.964,1.155,3.249,3.249,0,0,1,1.482,1.307,3.061,3.061,0,0,1,.509,1.714q-.018,9.716-.008,19.432a4.472,4.472,0,0,0,1.457,3.411,3.171,3.171,0,0,0,.374.31.843.843,0,0,0,1.067-.006,4.306,4.306,0,0,0,1.771-2.994,6.865,6.865,0,0,0,.047-.848c.02-2.53.025-5.059.06-7.587a4.2,4.2,0,0,1,.207-1.242,14.52,14.52,0,0,1,6.626-8.077,22.744,22.744,0,0,1,7.252-2.656c.554-.111,1.118-.181,1.672-.293a4.317,4.317,0,0,1,5.083,3.9,1.5,1.5,0,0,0,.577,1.116,3.5,3.5,0,0,1,1.192,3.876,3.553,3.553,0,0,1-3.07,2.654,3.708,3.708,0,0,1-3.208-6.245A1.022,1.022,0,0,0,607.222,366.994Z" transform="translate(-475.205 -354.201)"/><path class="a" d="M472.313,372.652v-.692c0-1.558,0-3.117,0-4.673a4,4,0,0,0-.187-1.246,3.013,3.013,0,1,1,5.791-1.66,3.272,3.272,0,0,1-.01,1.56,5.188,5.188,0,0,0-.15,1.131c-.014,5.159,0,10.32-.023,15.479a13.378,13.378,0,0,1-.817,4.453,9.167,9.167,0,0,1-6.356,6,11.534,11.534,0,0,1-7.558-.285,9.252,9.252,0,0,1-5.849-6.5,17.41,17.41,0,0,1-.548-5.588,15.277,15.277,0,0,1,.868-4.568,9.206,9.206,0,0,1,7.665-6.259,7.217,7.217,0,0,1,5.389,1.338,17.938,17.938,0,0,1,1.478,1.252C472.079,372.446,472.15,372.51,472.313,372.652Zm-5.03,15.586a4.259,4.259,0,0,0,3.992-2.095,5.816,5.816,0,0,0,.813-2.142,12.9,12.9,0,0,0,.107-3.987,7.031,7.031,0,0,0-.708-2.432,4.472,4.472,0,0,0-4.55-2.5,4.278,4.278,0,0,0-3.226,1.449,5.247,5.247,0,0,0-1.147,2.249,11.828,11.828,0,0,0,0,5.767A4.468,4.468,0,0,0,467.283,388.238Z" transform="translate(-379.711 -358.726)"/><path class="a" d="M339.878,413.855a7.413,7.413,0,0,0,1.531,4.416,4.115,4.115,0,0,0,3.45,1.453,7.341,7.341,0,0,0,3.025-.806.87.87,0,0,0,.546-.772,3.015,3.015,0,0,1,5.914-.4,2.961,2.961,0,0,1-.689,2.768c-.4.451-.819.891-1.244,1.322a9.523,9.523,0,0,1-4.026,2.4,11.654,11.654,0,0,1-8.018-.308,9.264,9.264,0,0,1-5.689-6.581,17.736,17.736,0,0,1-.511-4.87,15.287,15.287,0,0,1,.607-4.187c1.223-4.084,4.024-6.351,8.151-7.121a10.861,10.861,0,0,1,6.4.8,9.642,9.642,0,0,1,5.7,6.959,18.435,18.435,0,0,1,.46,4.213c.01.7-.014.716-.712.716q-7.045,0-14.09,0C340.438,413.855,340.2,413.855,339.878,413.855Zm.4-3.971a90.361,90.361,0,0,0,9.052-.016,4.432,4.432,0,0,0-4.5-3.708A4.5,4.5,0,0,0,340.274,409.884Z" transform="translate(-281.173 -390.015)"/><path class="a" d="M81.305,354.049a9.419,9.419,0,0,1-18.835,0,9.418,9.418,0,0,1,18.835,0Zm-10.948,4.244h1.512v-5.738c.5-.107.93-.213,1.365-.287a3.3,3.3,0,0,1,.665-.021,1.878,1.878,0,0,1,1.792,1.377,4.043,4.043,0,0,1,.129,1.016c.018,1.01.006,2.023.008,3.033,0,.2.02.394.033.642a3.819,3.819,0,0,0,1.455-.062c0-1.64.111-3.265-.029-4.866a2.33,2.33,0,0,0-3.425-1.968c-.521.215-1.008.509-1.515.759a4.647,4.647,0,0,1-.454.166c-.027-.371-.051-.667-.074-.981a2.568,2.568,0,0,0-1.461.027Zm-2.66,0h1.455v-6.943a2.647,2.647,0,0,0-1.455.037Zm-.242-9.087H65.793a2.367,2.367,0,0,0,.051,1.691C66.365,350.353,66.874,349.821,67.455,349.21Z" transform="translate(-62.47 -344.73)"/><path class="a" d="M585.733,426.541h-5.424c-.144-.445-.2-21.671-.068-22.623a33.924,33.924,0,0,1,5.485-.049c.018.219.055.453.055.687q.006,10.623,0,21.244C585.78,426.034,585.751,426.271,585.733,426.541Z" transform="translate(-479.193 -392.264)"/><path class="b" d="M102.91,384.918v-6.9a2.567,2.567,0,0,1,1.461-.027c.023.314.047.609.074.981a4.633,4.633,0,0,0,.454-.166c.507-.25.995-.544,1.515-.759a2.329,2.329,0,0,1,3.425,1.968c.142,1.6.029,3.226.029,4.866a3.818,3.818,0,0,1-1.455.063c-.014-.248-.033-.445-.033-.642,0-1.01.008-2.023-.008-3.033a4.133,4.133,0,0,0-.129-1.016,1.876,1.876,0,0,0-1.792-1.377,3.435,3.435,0,0,0-.665.021c-.435.074-.864.179-1.365.287v5.738C103.893,384.918,103.442,384.918,102.91,384.918Z" transform="translate(-95.022 -371.354)"/><path class="b" d="M89.27,385.292v-6.9a2.612,2.612,0,0,1,1.455-.037v6.944C90.253,385.292,89.8,385.292,89.27,385.292Z" transform="translate(-84.043 -371.725)"/><path class="b" d="M80.628,367.7c-.581.61-1.09,1.143-1.613,1.691a2.367,2.367,0,0,1-.051-1.691Z" transform="translate(-75.642 -363.22)"/></g></g></svg>