<svg xmlns="http://www.w3.org/2000/svg" width="37.575" height="37.575" viewBox="0 0 37.575 37.575"><defs><style>.a,.b{fill:#fff;}.a{opacity:0.08;}</style></defs><g transform="translate(-609.688 -4144.713)"><path class="a" d="M18.787,0A18.787,18.787,0,1,1,0,18.787,18.787,18.787,0,0,1,18.787,0Z" transform="translate(609.688 4144.713)"/><path class="b" d="M21,69H17V62.25a2.247,2.247,0,0,0-2.25-1.94A1.8,1.8,0,0,0,13,62.25V69H9V57h4v2a4.586,4.586,0,0,1,3.5-1.76A4.509,4.509,0,0,1,21,61.75V69M7,69H3V57H7V69M5,51a2,2,0,1,1-2,2A2.006,2.006,0,0,1,5,51Z" transform="translate(617.738 4102)"/></g></svg>