<svg xmlns="http://www.w3.org/2000/svg" width="37.575" height="37.575" viewBox="0 0 37.575 37.575"><defs><style>.a,.b{fill:#fff;}.a{opacity:0.084;}</style></defs><g transform="translate(-518.031 -4144.713)"><path class="a" d="M18.787,0A18.787,18.787,0,1,1,0,18.787,18.787,18.787,0,0,1,18.787,0Z" transform="translate(518.031 4144.713)"/><path class="b" d="M1645.835,3646.829l.728.9s1.5-1.115,2-.558,2.409,7.282,3.047,8.524c.556,1.088,2.091,2.526,3.774,1.5s7.275-5.525,8.275-10.837-6.73-4.2-7.548.429c2.046-1.158,3.138.47,2.091,2.312s-2,3.043-2.5,3.043-.884-1.233-1.455-3.386c-.591-2.227-.588-6.237-3.046-5.782C1648.881,3643.4,1645.835,3646.829,1645.835,3646.829Z" transform="translate(-1118.013 514.924)"/></g></svg>