<svg xmlns="http://www.w3.org/2000/svg" width="40" height="40" viewBox="0 0 40 40"><defs><style>.a{fill:#808798;opacity:0.382;}.b{fill:#fff;}.c,.d{stroke:none;}.d{fill:#fff;}</style></defs><g transform="translate(-737 -66)"><g transform="translate(155 1)"><g class="a" transform="translate(582 65)"><path class="c" d="M 20 39.5 C 17.36730003356934 39.5 14.8136100769043 38.98448944091797 12.40987968444824 37.96780014038086 C 10.08788967132568 36.98567962646484 8.002429962158203 35.57958984375 6.211420059204102 33.78858184814453 C 4.42041015625 31.99757957458496 3.014319896697998 29.9121208190918 2.03220009803772 27.59012985229492 C 1.015509963035583 25.1863899230957 0.5 22.63269996643066 0.5 20 C 0.5 17.36730003356934 1.015509963035583 14.8136100769043 2.03220009803772 12.40987968444824 C 3.014319896697998 10.08788967132568 4.42041015625 8.002429962158203 6.211420059204102 6.211420059204102 C 8.002429962158203 4.42041015625 10.08788967132568 3.014319896697998 12.40987968444824 2.03220009803772 C 14.8136100769043 1.015509963035583 17.36730003356934 0.5 20 0.5 C 22.63269996643066 0.5 25.1863899230957 1.015509963035583 27.59012985229492 2.03220009803772 C 29.9121208190918 3.014319896697998 31.99757957458496 4.42041015625 33.78858184814453 6.211420059204102 C 35.57958984375 8.002429962158203 36.98567962646484 10.08788967132568 37.96780014038086 12.40987968444824 C 38.98448944091797 14.8136100769043 39.5 17.36730003356934 39.5 20 C 39.5 22.63269996643066 38.98448944091797 25.1863899230957 37.96780014038086 27.59012985229492 C 36.98567962646484 29.9121208190918 35.57958984375 31.99757957458496 33.78858184814453 33.78858184814453 C 31.99757957458496 35.57958984375 29.9121208190918 36.98567962646484 27.59012985229492 37.96780014038086 C 25.1863899230957 38.98448944091797 22.63269996643066 39.5 20 39.5 Z"/><path class="d" d="M 20 1 C 17.4345703125 1 14.94642066955566 1.502220153808594 12.60465049743652 2.492698669433594 C 10.34226036071777 3.449611663818359 8.310220718383789 4.819721221923828 6.564968109130859 6.564968109130859 C 4.819721221923828 8.310220718383789 3.449611663818359 10.34226036071777 2.492698669433594 12.60465049743652 C 1.502220153808594 14.94642066955566 1 17.4345703125 1 20 C 1 22.5654296875 1.502220153808594 25.05358123779297 2.492698669433594 27.39535140991211 C 3.449611663818359 29.65773963928223 4.819721221923828 31.68978118896484 6.564968109130859 33.43502807617188 C 8.310220718383789 35.18027877807617 10.34226036071777 36.55038833618164 12.60465049743652 37.50730133056641 C 14.94642066955566 38.49777984619141 17.4345703125 39 20 39 C 22.5654296875 39 25.05358123779297 38.49777984619141 27.39535140991211 37.50730133056641 C 29.65773963928223 36.55038833618164 31.68978118896484 35.18027877807617 33.43502807617188 33.43502807617188 C 35.18027877807617 31.68978118896484 36.55038833618164 29.65773963928223 37.50730133056641 27.39535140991211 C 38.49777984619141 25.05358123779297 39 22.5654296875 39 20 C 39 17.4345703125 38.49777984619141 14.94642066955566 37.50730133056641 12.60465049743652 C 36.55038833618164 10.34226036071777 35.18027877807617 8.310220718383789 33.43502807617188 6.564968109130859 C 31.68978118896484 4.819721221923828 29.65773963928223 3.449611663818359 27.39535140991211 2.492698669433594 C 25.05358123779297 1.502220153808594 22.5654296875 1 20 1 M 20 0 C 31.04570007324219 0 40 8.954299926757812 40 20 C 40 31.04570007324219 31.04570007324219 40 20 40 C 8.954299926757812 40 0 31.04570007324219 0 20 C 0 8.954299926757812 8.954299926757812 0 20 0 Z"/></g><g transform="translate(590.321 72.889)"><g transform="translate(3.266 2.496)"><path class="b" d="M7.06,19a7.605,7.605,0,0,0-.855-.05,19.015,19.015,0,0,1-2.482-.279c-1.774-.3-2.932-.846-3.428-1.69a2.118,2.118,0,0,1-.01-2.138c.488-.846,1.646-1.395,3.438-1.69a20.286,20.286,0,0,1,2.491-.28,31.971,31.971,0,0,1,4.6,0,20.793,20.793,0,0,1,2.481.28c1.774.321,2.932.845,3.428,1.69a2.119,2.119,0,0,1,0,2.1c-.5.846-1.608,1.4-3.446,1.69a19.8,19.8,0,0,1-2.482.287C10.02,19,9.247,19,8.466,19ZM2.923,5.13A5.369,5.369,0,0,1,8.5,0a5.369,5.369,0,0,1,5.58,5.13A5.37,5.37,0,0,1,8.5,10.261,5.369,5.369,0,0,1,2.923,5.13Z" transform="translate(0.413 -0.385)"/></g></g></g></g></svg>