<svg xmlns="http://www.w3.org/2000/svg" width="113.258" height="113.269" viewBox="0 0 113.258 113.269"><defs><style>.a{fill:#1de8f1;}.b{fill:#00bcc9;}</style></defs><g transform="translate(0)"><path class="a" d="M110.215,49.267l-.008-.008L64,3.056a10.425,10.425,0,0,0-14.747,0L3.075,49.235l-.047.048A10.424,10.424,0,0,0,9.967,67.048c.106.01.214.016.322.016H12.13v34a12.218,12.218,0,0,0,12.2,12.2H42.411a3.318,3.318,0,0,0,3.318-3.318V83.293A5.575,5.575,0,0,1,51.3,77.725H61.96a5.574,5.574,0,0,1,5.568,5.568v26.658a3.319,3.319,0,0,0,3.318,3.318H88.924a12.218,12.218,0,0,0,12.2-12.2v-34h1.708a10.428,10.428,0,0,0,7.379-17.8Zm0,0" transform="translate(0 0)"/><path class="b" d="M309.559,49.267l-.008-.008-46.2-46.2A10.357,10.357,0,0,0,255.973,0h0V77.725H261.3a5.574,5.574,0,0,1,5.568,5.568v26.658a3.319,3.319,0,0,0,3.318,3.318h18.077a12.217,12.217,0,0,0,12.2-12.2v-34h1.708a10.428,10.428,0,0,0,7.379-17.8Zm0,0" transform="translate(-199.344 0)"/></g></svg>