<svg xmlns="http://www.w3.org/2000/svg" width="34.109" height="22.739" viewBox="0 0 34.109 22.739"><defs><style>.a{fill:#00bcc9;}</style></defs><g transform="translate(0 -85.333)"><g transform="translate(0 85.333)"><path class="a" d="M32.359,85.333H1.749A1.754,1.754,0,0,0,0,87.082v19.241a1.754,1.754,0,0,0,1.749,1.749H32.36a1.754,1.754,0,0,0,1.749-1.749V87.082A1.754,1.754,0,0,0,32.359,85.333ZM31.7,86.645,18.061,96.878a1.829,1.829,0,0,1-2.012,0L2.406,86.645ZM24.416,97.553l7.434,9.183c.007.009.017.016.025.025H2.235c.008-.009.017-.015.025-.025l7.434-9.183a.656.656,0,0,0-1.02-.826l-7.361,9.093V87.465l13.95,10.462a3.131,3.131,0,0,0,3.586,0L32.8,87.465V105.82l-7.361-9.093a.656.656,0,0,0-1.02.826Z" transform="translate(0 -85.333)"/></g></g></svg>