<svg xmlns="http://www.w3.org/2000/svg" width="26.908" height="26.959" viewBox="0 0 26.908 26.959"><defs><style>.a{fill:none;stroke:#1ebcc8;stroke-linecap:round;stroke-linejoin:round;stroke-width:1.5px;}</style></defs><path class="a" d="M28.574,22.059v3.832a2.555,2.555,0,0,1-2.785,2.555,25.28,25.28,0,0,1-11.024-3.922A24.91,24.91,0,0,1,7.1,16.86,25.28,25.28,0,0,1,3.178,5.785,2.555,2.555,0,0,1,5.72,3H9.553a2.555,2.555,0,0,1,2.555,2.2A16.4,16.4,0,0,0,13,8.787a2.555,2.555,0,0,1-.575,2.7L10.8,13.1a20.439,20.439,0,0,0,7.665,7.665l1.622-1.622a2.555,2.555,0,0,1,2.7-.575,16.4,16.4,0,0,0,3.59.894,2.555,2.555,0,0,1,2.2,2.593Z" transform="translate(-2.417 -2.25)"/></svg>