<svg xmlns="http://www.w3.org/2000/svg" width="113.743" height="113.744" viewBox="0 0 113.743 113.744"><defs><style>.a{fill:#5c5c5c;}.b{fill:#bac5e2;}.c{fill:#818181;}.d{fill:#d3dcfb;}.e{fill:#6a6a6a;}.f{fill:#00bcc9;}.g{fill:#a7b4d1;}.h{fill:#1c8ae5;}</style></defs><g transform="translate(0.001 0)"><g transform="translate(92.002 0)"><path class="a" d="M415.822,21.741a1.684,1.684,0,0,1-1.191-2.876L433,.494a1.684,1.684,0,0,1,2.382,2.382L417.013,21.247A1.678,1.678,0,0,1,415.822,21.741Z" transform="translate(-414.137 0)"/></g><path class="b" d="M387.847,77.326,377.183,66.663l7.281-5.287a2.454,2.454,0,0,1,3.177.25l5.242,5.242a2.455,2.455,0,0,1,.25,3.178Z" transform="translate(-293.39 -47.376)"/><g transform="translate(15.075 76.877)"><path class="c" d="M77.379,370.43l-9.517-9.75L81.869,346.05l8.772,11.119Z" transform="translate(-67.862 -346.05)"/></g><path class="d" d="M89.4,318.488,77.293,306.381,56.207,327.467l2.838,2.838,12.249-12.249a1.431,1.431,0,1,1,2.024,2.024L60.94,332.458a1.685,1.685,0,0,0,2.382,2.382L74.35,323.812a3.341,3.341,0,0,1,4.725,0l2.5,2.5Z" transform="translate(-43.721 -238.316)"/><g transform="translate(56.716 16.676)"><path class="e" d="M281.46,76.275c-2.635-2.635-5.733-.533-8.369,2.1L255.3,98.591l.241,1.327,19.69,7.405,19.777-7.5,1.134-1.133a6.748,6.748,0,0,0,0-9.543L284.933,77.936Z" transform="translate(-255.303 -75.062)"/></g><g transform="translate(30.917 41.437)"><path class="f" d="M158.785,190.409l-19.614,15.625,23,23,7.07-7.07L169,219.167l2.62.412,4.428-4.428-.1-2.624,2.484.242,4.454-4.454.228-2.2,2.154-.186,19.412-19.412-39.466.095Z" transform="translate(-139.172 -186.521)"/></g><g transform="translate(48.094 14.209)"><path class="c" d="M251.38,65.937a6.748,6.748,0,0,0-9.543,0L216.491,91.283l2.459,2.127,6.4-2.127,20.914-20.914a6.748,6.748,0,0,1,9.543,0Z" transform="translate(-216.491 -63.96)"/></g><g transform="translate(29.796 41.532)"><path class="f" d="M138.559,209.676l22.729-22.729h-8.864l-18.3,18.3Z" transform="translate(-134.127 -186.947)"/></g><g transform="translate(2.942 84.754)"><path class="b" d="M41.295,401.792,23.337,383.835c-1.547-1.547-6.072-3.267-7.619-1.719l-1.942,1.942c-1.547,1.547.631,5.937,2.178,7.484l17.8,17.8a3.962,3.962,0,0,0,5.6,0l1.942-1.942A3.962,3.962,0,0,0,41.295,401.792Z" transform="translate(-13.245 -381.508)"/></g><g transform="translate(-0.001 81.591)"><path class="g" d="M6.668,374.4l.464-.464a5.007,5.007,0,0,1,7.081,0L8.7,368.429a3.962,3.962,0,0,0-5.6,0L1.16,370.371a3.962,3.962,0,0,0,0,5.6l5.508,5.508a5.007,5.007,0,0,1,0-7.081Z" transform="translate(0.001 -367.269)"/></g><g transform="translate(18.271 53.242)"><path class="b" d="M124.831,273.417,95.3,243.887l-4.753-3.143c-1.8-1.8-2.679-1.2-4.474.593l-1.59,1.4c-1.8,1.795-3.2,1.844-1.4,3.638l3.627,6.426,29.368,29.369a4.6,4.6,0,0,0,6.5,0l2.253-2.253A4.6,4.6,0,0,0,124.831,273.417Z" transform="translate(-82.248 -239.658)"/></g><g transform="translate(16.642 51.543)"><path class="g" d="M81.889,239.522l.538-.538a5.809,5.809,0,0,1,8.215,0l-5.626-5.626a4.6,4.6,0,0,0-6.5,0l-2.253,2.253a4.6,4.6,0,0,0,0,6.5l5.627,5.627A5.81,5.81,0,0,1,81.889,239.522Z" transform="translate(-74.916 -232.012)"/></g><g transform="translate(55.35 55.241)"><path class="h" d="M313.5,249.151a1.685,1.685,0,0,0-2.382,2.382l5.13,5.114,2.382-2.382Z" transform="translate(-296.97 -248.658)"/><path class="h" d="M282.765,279.888a1.684,1.684,0,0,0-2.382,2.382l5.122,5.122,2.382-2.382Z" transform="translate(-273.061 -272.566)"/><path class="h" d="M252.029,310.625a1.684,1.684,0,0,0-2.382,2.382l5.14,5.1,2.382-2.382Z" transform="translate(-249.153 -296.475)"/></g></g></svg>