<svg xmlns="http://www.w3.org/2000/svg" width="100.077" height="126.622" viewBox="0 0 100.077 126.622"><defs><style>.a{fill:#ffddce;}.b{fill:#ffcbbe;}.c{fill:#407093;}.d{fill:#365e7d;}.e{fill:#b3e59f;}.f{fill:#95d6a4;}.g{fill:#dddaec;}.h{fill:#f6f6f6;}</style></defs><g transform="translate(11.968 0)"><path class="a" d="M178.2,26.463l-.467-2.546a11.059,11.059,0,0,0-9.676-9l-7.8-.853a11.059,11.059,0,0,1-9.509-8.243l-1.107-4.312A2.008,2.008,0,0,0,147.7,0H132.568a2.008,2.008,0,0,0-1.945,1.509l-1.107,4.312a11.059,11.059,0,0,1-9.509,8.243l-7.8.853a11.059,11.059,0,0,0-9.676,9l-.467,2.546Z" transform="translate(-102.062 0)"/></g><path class="b" d="M102.529,92.689l-.467,2.547H178.2l-.467-2.547a11.112,11.112,0,0,0-.327-1.321H102.855A11.127,11.127,0,0,0,102.529,92.689Z" transform="translate(-90.094 -68.772)"/><path class="c" d="M153.745,204.149a3.016,3.016,0,0,1-3.016,3.016H56.684a3.016,3.016,0,0,1-3.016-3.016V110.023a3.016,3.016,0,0,1,3.016-3.016h94.045a3.016,3.016,0,0,1,3.016,3.016Z" transform="translate(-53.668 -80.543)"/><path class="d" d="M434.745,110.023a3.016,3.016,0,0,0-3.016-3.016H427a3.016,3.016,0,0,1,3.016,3.016v94.126A3.016,3.016,0,0,1,427,207.165h4.734a3.016,3.016,0,0,0,3.016-3.016Z" transform="translate(-334.668 -80.543)"/><path class="e" d="M85.1,222.788a.518.518,0,0,1-.518-.518V138.438a.518.518,0,0,1,.518-.518H168.85a.518.518,0,0,1,.518.518V222.27a.518.518,0,0,1-.518.518H85.1Z" transform="translate(-76.937 -103.811)"/><path class="f" d="M407.22,137.92v84.868H411.7a.518.518,0,0,0,.518-.518V138.438a.518.518,0,0,0-.518-.518Z" transform="translate(-319.784 -103.811)"/><g transform="translate(14.71 42.776)"><path class="g" d="M115.062,185.595a1.911,1.911,0,0,1-1.352-3.263l3.059-3.059a21.29,21.29,0,0,1,13.885-6.22,65.446,65.446,0,0,1,15.615,1.124,1.911,1.911,0,0,1-.7,3.758,61.651,61.651,0,0,0-14.7-1.065,17.471,17.471,0,0,0-11.394,5.106l-3.059,3.059a1.906,1.906,0,0,1-1.352.56Z" transform="translate(-113.151 -172.967)"/><g transform="translate(7.032 10.844)"><path class="g" d="M143.5,229.442a1.911,1.911,0,0,1-1.352-3.263l3.059-3.059a21.291,21.291,0,0,1,13.886-6.22,60.146,60.146,0,0,1,7.975.1,1.911,1.911,0,0,1-.3,3.811,56.383,56.383,0,0,0-7.467-.1,17.474,17.474,0,0,0-11.395,5.106l-3.058,3.059A1.907,1.907,0,0,1,143.5,229.442Z" transform="translate(-141.586 -216.814)"/></g><g transform="translate(14.35 20.652)"><path class="g" d="M173.086,269.02a1.911,1.911,0,0,1-1.351-3.263l3.059-3.058a21.284,21.284,0,0,1,13.885-6.22,1.911,1.911,0,1,1,.212,3.817A17.47,17.47,0,0,0,177.5,265.4l-3.059,3.059A1.9,1.9,0,0,1,173.086,269.02Z" transform="translate(-171.175 -256.476)"/></g><g transform="translate(35.977 0)"><path class="g" d="M291.394,185.6a1.906,1.906,0,0,1-1.352-.56l-3.059-3.059a17.471,17.471,0,0,0-11.394-5.106,61.649,61.649,0,0,0-14.7,1.065,1.912,1.912,0,1,1-.7-3.758,65.433,65.433,0,0,1,15.615-1.124,21.288,21.288,0,0,1,13.885,6.219l3.059,3.059a1.911,1.911,0,0,1-1.352,3.263Z" transform="translate(-258.626 -172.968)"/><g transform="translate(0.404 10.844)"><path class="g" d="M286.943,228.884a1.911,1.911,0,0,1-2.7,0l-3.059-3.059a17.47,17.47,0,0,0-11.394-5.106,56.372,56.372,0,0,0-7.467.1,1.911,1.911,0,0,1-.3-3.811,60.259,60.259,0,0,1,7.975-.1,21.288,21.288,0,0,1,13.885,6.22l3.059,3.059A1.912,1.912,0,0,1,286.943,228.884Z" transform="translate(-260.26 -216.815)"/></g><g transform="translate(0.807 20.653)"><path class="g" d="M280.851,268.461a1.911,1.911,0,0,1-2.7,0l-3.059-3.058a17.471,17.471,0,0,0-11.395-5.106,1.911,1.911,0,0,1,.212-3.817,21.285,21.285,0,0,1,13.886,6.22l3.059,3.058A1.911,1.911,0,0,1,280.851,268.461Z" transform="translate(-261.889 -256.477)"/></g></g></g><path class="g" d="M153.9,364.673q.218-1.07.367-2.11a13.293,13.293,0,0,0-6.465-13.235l-.108-.065a11.93,11.93,0,0,1-5.642-11.207q.05-.593.129-1.183a11.982,11.982,0,0,1,13.45-10.336l.139.02a11.766,11.766,0,0,1,4.575,1.72l9.856,6.231,9.856-6.231a11.755,11.755,0,0,1,4.575-1.72l.139-.02a11.982,11.982,0,0,1,13.45,10.336q.078.59.129,1.183a11.931,11.931,0,0,1-5.642,11.207l-.108.065a13.292,13.292,0,0,0-6.465,13.235q.147,1.038.367,2.11Z" transform="translate(-120.161 -245.697)"/><path class="h" d="M245.284,242.494H234.8l1.893-75.126a3.352,3.352,0,0,1,6.7,0Z" transform="translate(-190.002 -123.517)"/><g transform="translate(43.144 48.396)"><g transform="translate(1.47)"><path class="g" d="M239.491,200.659a8.3,8.3,0,0,1-4.555-1.453,1.911,1.911,0,0,1,2.083-3.2,4.082,4.082,0,0,0,4.943,0,1.911,1.911,0,1,1,2.084,3.2A8.306,8.306,0,0,1,239.491,200.659Z" transform="translate(-234.066 -195.692)"/></g><g transform="translate(1.213 9.626)"><path class="g" d="M238.708,239.576a9.129,9.129,0,0,1-4.761-1.415,1.911,1.911,0,0,1,1.981-3.27,4.916,4.916,0,0,0,5.56,0,1.911,1.911,0,0,1,1.981,3.27A9.132,9.132,0,0,1,238.708,239.576Z" transform="translate(-233.026 -234.615)"/></g><g transform="translate(0.97 19.252)"><path class="g" d="M237.969,278.5a9.963,9.963,0,0,1-4.958-1.384,1.911,1.911,0,0,1,1.89-3.322,5.713,5.713,0,0,0,6.135,0,1.911,1.911,0,0,1,1.891,3.322A9.963,9.963,0,0,1,237.969,278.5Z" transform="translate(-232.044 -273.539)"/></g><g transform="translate(0.728 28.878)"><path class="g" d="M237.231,317.435a10.832,10.832,0,0,1-5.159-1.378,1.911,1.911,0,1,1,1.807-3.368,6.563,6.563,0,0,0,6.7,0,1.911,1.911,0,1,1,1.808,3.368A10.828,10.828,0,0,1,237.231,317.435Z" transform="translate(-231.064 -312.461)"/></g><g transform="translate(0.485 38.504)"><path class="g" d="M236.493,356.356A11.762,11.762,0,0,1,231.129,355a1.911,1.911,0,1,1,1.731-3.408,7.552,7.552,0,0,0,7.265,0A1.911,1.911,0,0,1,241.856,355,11.763,11.763,0,0,1,236.493,356.356Z" transform="translate(-230.083 -351.384)"/></g><g transform="translate(0.242 48.13)"><path class="g" d="M235.754,395.276a12.744,12.744,0,0,1-5.57-1.335,1.911,1.911,0,0,1,1.659-3.444,8.519,8.519,0,0,0,7.822,0,1.912,1.912,0,0,1,1.659,3.444A12.744,12.744,0,0,1,235.754,395.276Z" transform="translate(-229.102 -390.306)"/></g><g transform="translate(0 57.756)"><path class="g" d="M235.016,434.2a13.775,13.775,0,0,1-5.779-1.318,1.911,1.911,0,1,1,1.593-3.475,9.535,9.535,0,0,0,8.373,0,1.911,1.911,0,1,1,1.592,3.475A13.78,13.78,0,0,1,235.016,434.2Z" transform="translate(-228.122 -429.232)"/></g></g><g transform="translate(30.922 85.653)"><g transform="translate(0 0)"><path class="h" d="M184.781,354.72a1.912,1.912,0,0,1-1.841-1.4,5.894,5.894,0,0,0-3.081-3.306,1.911,1.911,0,0,1,1.486-3.522c.17.071,4.166,1.783,5.279,5.808a1.913,1.913,0,0,1-1.843,2.421Z" transform="translate(-178.702 -346.342)"/></g><g transform="translate(30.242)"><path class="h" d="M302.9,354.719a1.913,1.913,0,0,1-1.843-2.421c1.113-4.025,5.109-5.737,5.279-5.808a1.911,1.911,0,0,1,1.485,3.522,5.888,5.888,0,0,0-3.08,3.3A1.912,1.912,0,0,1,302.9,354.719Z" transform="translate(-300.985 -346.341)"/></g></g><path class="d" d="M374.544,439.965h-6.414a1.321,1.321,0,0,1-1.321-1.321V434.98a1.321,1.321,0,0,1,1.321-1.321h6.414a1.321,1.321,0,0,1,1.321,1.321v3.663A1.321,1.321,0,0,1,374.544,439.965Z" transform="translate(-289.366 -326.412)"/><g transform="translate(12.608 104.228)"><path class="c" d="M112.633,425.272h-6.074a1.911,1.911,0,1,1,0-3.822h6.074a1.911,1.911,0,1,1,0,3.822Z" transform="translate(-104.648 -421.449)"/></g><g transform="translate(12.608 110.599)"><path class="c" d="M110.849,451.035h-4.29a1.911,1.911,0,0,1,0-3.822h4.29a1.911,1.911,0,1,1,0,3.822Z" transform="translate(-104.648 -447.213)"/></g></svg>