<svg xmlns="http://www.w3.org/2000/svg" viewBox="0 0 41.8 27">
  <path d="M41.5 7.7c-.1-.3-.4-.5-.8-.5h-3.8c-.3 0-.6.2-.7.5-.1.3-.2.7-.3 1-1.7-3.2-3.5-6.8-3.5-6.8-.2-.5-.6-.9-1.2-1C24.4-.3 17.4-.3 10.5.9c-.5.1-1 .5-1.2 1 0 0-1.9 3.6-3.5 6.8 0-.4-.1-.7-.3-1 0-.3-.3-.5-.7-.5H1c-.3 0-.6.2-.8.5-.4.9-.4 2 0 2.9.1.3.4.5.8.5h3.8v.1c-.8.2-1.4 1-1.4 1.9V26c0 .5.4.9.9.9H9c.5 0 .9-.4.9-.9v-2.3h21.6V26c0 .5.4.9.9.9h4.7c.5 0 .9-.4.9-.9V13.1c0-.9-.6-1.6-1.4-1.9v-.1h3.8c.3 0 .6-.2.7-.5.8-.9.8-2 .4-2.9zM11.5 3s2.3-.6 9.4-.6 9.4.6 9.4.6l3.3 8.1H8.2L11.5 3zM7.3 17v-2.7h5.8l1.7 2.7H7.3zm27.1 0H27l1.7-2.7h5.8V17z" fill="#0473c0"/>
</svg>
