<svg xmlns="http://www.w3.org/2000/svg" viewBox="0 0 33.5 31.5">
  <path d="M14.4 22.6v-4.5H2.2V2.7c0-.3.2-.5.5-.5h28c.3 0 .5.2.5.5v4.2c.8.1 1.6.4 2.2.8v-5c0-1.5-1.2-2.7-2.7-2.7h-28C1.2 0 0 1.2 0 2.7v19c0 1.5 1.2 2.7 2.7 2.7h9.4v3.7h-1.5c-.9 0-1.7.8-1.7 1.7 0 .9.8 1.7 1.7 1.7h4.7c-.6-.9-.9-1.9-.9-2.9v-6zm9.5 4.8H19V11.9c0-.3.3-.6.6-.6h11.2c.3 0 .6.3.6.6v4.8h.8c.5 0 1 .1 1.4.4v-5.2c0-1.6-1.3-2.8-2.8-2.8H19.5c-1.6 0-2.8 1.3-2.8 2.8v16.7c0 1.6 1.3 2.8 2.8 2.8h4.8c-.3-.5-.5-1-.5-1.6v-2.4zm8.2-9.1h-5.4c-.8 0-1.4.6-1.4 1.4V30c0 .8.6 1.4 1.4 1.4h5.4c.8 0 1.4-.6 1.4-1.4V19.7c0-.7-.6-1.4-1.4-1.4zm-2.3 12.3c-.2.2-.6.2-.8-.1-.2-.2-.2-.6.1-.8.2-.2.6-.2.8.1.1.1.1.3.1.4 0 .1-.1.3-.2.4z" fill="#0473c0"/>
</svg>
