<svg xmlns="http://www.w3.org/2000/svg" viewBox="0 0 37.3 33.8">
  <path d="M5.9 17.5v-4.6c0-.8-.7-1.5-1.5-1.5H1.5c-.8 0-1.5.6-1.5 1.4.1.8 1 9.1 1.2 12 0 .8.7 1.5 1.5 1.5h.9c-.2-.5-.4-1-.4-1.5v-4.3c0-1.4 1.1-2.8 2.7-3zm26.6 7.4v-4.3c0-.8-.7-1.5-1.5-1.5H6.3c-.8 0-1.5.7-1.5 1.5v4.3c0 .8.7 1.5 1.5 1.5H31c.8 0 1.5-.7 1.5-1.5zm.4-13.5c-.8 0-1.5.7-1.5 1.5v4.6c1.6.2 2.8 1.6 2.8 3.1v4.3c0 .5-.1 1-.4 1.5h.9c.8 0 1.5-.7 1.5-1.5.1-2.9 1.1-11.2 1.2-12 0-.8-.7-1.5-1.5-1.5h-3zM5.4 27.9c-.3.1-.6.2-1 .1h-.7l-1.2 4.6c-.1.4.1.9.6 1s.9-.1 1-.6l1.3-5.1zm28.3.2h-.8c-.3 0-.6-.1-1-.1l1.4 5.2c.1.4.4.6.8.6.5 0 .8-.4.8-.8v-.2l-1.2-4.7zM32.6.6c-.4-.4-.9-.6-1.4-.6H6.1c-.5 0-1 .2-1.3.6-.4.3-.5.7-.5 1.2.1 1.3.3 4.6.5 8 1.6.2 2.8 1.6 2.8 3.1v4.6h22.1v-4.6c0-1.6 1.2-2.9 2.7-3.1.3-3.4.6-6.7.6-8 0-.5-.1-.9-.4-1.2zM15 12.6h-.5c-.5 0-.8-.4-.8-.8 0-.5.4-.8.8-.8h.5c.5 0 .8.4.8.8.1.4-.3.8-.8.8zm0-6.2h-.5c-.5 0-.8-.4-.8-.8 0-.5.4-.8.8-.8h.5c.5 0 .8.4.8.8.1.5-.3.8-.8.8zm7.8 6.2h-.5c-.5 0-.8-.4-.8-.8 0-.5.4-.8.8-.8h.5c.5 0 .8.4.8.8s-.3.8-.8.8zm0-6.2h-.5c-.5 0-.8-.4-.8-.8 0-.5.4-.8.8-.8h.5c.5 0 .8.4.8.8 0 .5-.3.8-.8.8z" fill="#0473c0"/>
</svg>
