<svg xmlns="http://www.w3.org/2000/svg" viewBox="0 0 41.4 32.8">
  <path d="M10.6 13.3c.9-.2 1.7-.7 2.2-1.5.7-1.1 1.2-2.3 1.5-3.5.3-1.2.6-2.5.8-3.8l.1-.5.6-.3c1-.6 2-1.3 2.8-2.2l.4-.4c.2-.3.2-.6-.1-.8-.1-.1-.2-.1-.3-.1-.7-.2-1.2-.2-1.8-.1-.7 0-1.3.3-1.9.7l-.6.6-.7-.4c-1.1-.6-2.3-1-3.5-.9-.3-.1-.5-.1-.8-.1-1.5.1-3 .6-4.2 1.6l-.6.5-.6-.4c-.6-.2-1.2-.3-1.8-.2s-1.2.2-1.7.4c-.3.1-.5.5-.4.8 0 .1.1.2.2.3.1 0 .3.1.4.2.9.7 2 1.3 3 1.7l.7.2.2.5c.4 1.1.9 2.3 1.4 3.4.6 1.2 1.3 2.3 2.2 3.3.6.7 1.4 1.1 2.3 1.2 0-.1.1-.2.2-.2zm30.6-2.7c-.5-1-2.1-1.6-3.4-1.9-.7-1.6-2.3-2.6-4-2.6-.2 0-.5 0-.7.1l-.5.1-.4-.3c-1.3-1.1-3.1-1.3-4.7-.6l-.4.2-.4-.2c-.6-.3-1.2-.4-1.8-.4-1 0-1.9.3-2.7.9l-.5.4-.5-.2c-1.3-.5-2.7-.4-3.9.3l-.2.1c-.2.1-.3.2-.3.4-.1.7-.3 1.5-.5 2.1-.4 1.5-1 2.9-1.8 4.1-.8 1.3-2.2 2.2-3.7 2.4-.3 0-.6.3-.5.7 0 .1 0 .2.1.2.4.6.9 1.2 1.5 1.5l.5.3v.8c0 1.3.7 2.6 1.8 3.4v6.3c0 .7.5 1.2 1.2 1.2s1.2-.5 1.2-1.2v-5c.5.8 1.3 1.4 2.2 1.7v6.2c0 .7.5 1.2 1.2 1.2s1.2-.5 1.2-1.2v-6c.3-.1.6-.2.8-.3l.5-.2.5.3c1.4 1 3.2 1.1 4.7.2l.5-.3.5.3c.6.3 1.3.5 2 .6v2.6c0 .7.5 1.2 1.2 1.2s1.2-.5 1.2-1.2v-3.2c.3-.2.6-.4.9-.7l.3-.3h.7v7.1c0 .7.5 1.2 1.2 1.2s1.2-.5 1.2-1.2v-8c1-.8 1.6-2 1.6-3.2 0-.7-.2-1.4-.6-2.1l-.3-.5.3-.5c.9-1.5.7-3.4-.4-4.7l-.4-.4v-.2c1 .7 2.1 1.5 2.8 1.1.3-.2.5-.4.6-.7.5-.8.5-1.4.2-1.9z" fill="#0473c0"/>
</svg>
