<?xml version="1.0" encoding="utf-8"?>
<!-- Generator: Adobe Illustrator 25.4.1, SVG Export Plug-In . SVG Version: 6.00 Build 0)  -->
<svg version="1.1" id="Layer_1" xmlns="http://www.w3.org/2000/svg" xmlns:xlink="http://www.w3.org/1999/xlink" x="0px" y="0px"
	 viewBox="0 0 41.4 32.8" style="enable-background:new 0 0 41.4 32.8;" xml:space="preserve">
<style type="text/css">
	.st0{fill:#00A884;}
</style>
<path class="st0" d="M10.6,13.3c0.9-0.2,1.7-0.7,2.2-1.5c0.7-1.1,1.2-2.3,1.5-3.5s0.6-2.5,0.8-3.8L15.2,4l0.6-0.3
	c1-0.6,2-1.3,2.8-2.2L19,1.1c0.2-0.3,0.2-0.6-0.1-0.8c-0.1-0.1-0.2-0.1-0.3-0.1C17.9,0,17.4,0,16.8,0.1c-0.7,0-1.3,0.3-1.9,0.7
	l-0.6,0.6L13.6,1c-1.1-0.6-2.3-1-3.5-0.9C9.8,0,9.6,0,9.3,0c-1.5,0.1-3,0.6-4.2,1.6L4.5,2.1L3.9,1.7C3.3,1.5,2.7,1.4,2.1,1.5
	S0.9,1.7,0.4,1.9C0.1,2-0.1,2.4,0,2.7C0,2.8,0.1,2.9,0.2,3c0.1,0,0.3,0.1,0.4,0.2c0.9,0.7,2,1.3,3,1.7l0.7,0.2l0.2,0.5
	C4.9,6.7,5.4,7.9,5.9,9c0.6,1.2,1.3,2.3,2.2,3.3c0.6,0.7,1.4,1.1,2.3,1.2C10.4,13.4,10.5,13.3,10.6,13.3z M41.2,10.6
	c-0.5-1-2.1-1.6-3.4-1.9c-0.7-1.6-2.3-2.6-4-2.6c-0.2,0-0.5,0-0.7,0.1l-0.5,0.1L32.2,6c-1.3-1.1-3.1-1.3-4.7-0.6l-0.4,0.2l-0.4-0.2
	C26.1,5.1,25.5,5,24.9,5c-1,0-1.9,0.3-2.7,0.9l-0.5,0.4l-0.5-0.2c-1.3-0.5-2.7-0.4-3.9,0.3l-0.2,0.1c-0.2,0.1-0.3,0.2-0.3,0.4
	c-0.1,0.7-0.3,1.5-0.5,2.1c-0.4,1.5-1,2.9-1.8,4.1c-0.8,1.3-2.2,2.2-3.7,2.4c-0.3,0-0.6,0.3-0.5,0.7c0,0.1,0,0.2,0.1,0.2
	c0.4,0.6,0.9,1.2,1.5,1.5l0.5,0.3V19c0,1.3,0.7,2.6,1.8,3.4v6.3c0,0.7,0.5,1.2,1.2,1.2c0.7,0,1.2-0.5,1.2-1.2v-5
	c0.5,0.8,1.3,1.4,2.2,1.7v6.2c0,0.7,0.5,1.2,1.2,1.2s1.2-0.5,1.2-1.2v-6c0.3-0.1,0.6-0.2,0.8-0.3l0.5-0.2l0.5,0.3
	c1.4,1,3.2,1.1,4.7,0.2l0.5-0.3l0.5,0.3c0.6,0.3,1.3,0.5,2,0.6v2.6c0,0.7,0.5,1.2,1.2,1.2s1.2-0.5,1.2-1.2v-3.2
	c0.3-0.2,0.6-0.4,0.9-0.7l0.3-0.3H35v7.1c0,0.7,0.5,1.2,1.2,1.2s1.2-0.5,1.2-1.2v-8c1-0.8,1.6-2,1.6-3.2c0-0.7-0.2-1.4-0.6-2.1
	l-0.3-0.5l0.3-0.5c0.9-1.5,0.7-3.4-0.4-4.7l-0.4-0.4v-0.2c1,0.7,2.1,1.5,2.8,1.1c0.3-0.2,0.5-0.4,0.6-0.7
	C41.5,11.7,41.5,11.1,41.2,10.6z"/>
</svg>
