<svg xmlns="http://www.w3.org/2000/svg" viewBox="0 0 27.1 30.7">
  <path d="M18.1 12.4c.6 0 1.2-.4 1.4-1L22 4.5c.1-.4 0-.8-.2-1.2L20 .6c-.2-.3-.7-.6-1.2-.6H8.3c-.5 0-.9.3-1.2.7L5.4 3.4c-.3.3-.3.7-.3 1.1l2.5 6.8c.3.8 1.2 1.2 1.9.9.2-.1.3-.2.5-.3l3.5-3 3.5 3c.4.3.7.5 1.1.5zm-4.5-6.6l-3.1-4h6.1l-3 4zm-4.5 8.1c-1.3 0-2.4-.8-2.8-2L3.7 5l-2 .7C.7 6 0 7 0 8v19.1c0 2 1.6 3.6 3.6 3.6h9.1v-19l-1.6 1.4c-.6.5-1.3.8-2 .8zm16.3-8.2l-2-.7-2.6 6.9c-.6 1.6-2.3 2.3-3.9 1.8-.3-.1-.6-.3-.9-.5l-1.6-1.4v19h9c2 0 3.6-1.6 3.6-3.6V8c.1-1-.6-2-1.6-2.3zm-7.3 21.7c0 .5-.4.9-.9.9s-.9-.4-.9-.9v-1.2c0-.5.4-.9.9-.9s.9.4.9.9v1.2zm0-4.8c0 .5-.4.9-.9.9s-.9-.4-.9-.9v-1.2c0-.5.4-.9.9-.9s.9.4.9.9v1.2zm0-4.7c0 .5-.4.9-.9.9s-.9-.4-.9-.9v-1.2c0-.5.4-.9.9-.9s.9.4.9.9v1.2z" fill="#0473c0"/>
</svg>
