<?xml version="1.0" encoding="utf-8"?>
<!-- Generator: Adobe Illustrator 25.4.1, SVG Export Plug-In . SVG Version: 6.00 Build 0)  -->
<svg version="1.1" id="Layer_1" xmlns="http://www.w3.org/2000/svg" xmlns:xlink="http://www.w3.org/1999/xlink" x="0px" y="0px"
	 viewBox="0 0 41.8 27" style="enable-background:new 0 0 41.8 27;" xml:space="preserve">
<style type="text/css">
	.st0{fill:#009688;}
</style>
<path class="st0" d="M41.5,7.7c-0.1-0.3-0.4-0.5-0.8-0.5h-3.8c-0.3,0-0.6,0.2-0.7,0.5c-0.1,0.3-0.2,0.7-0.3,1
	c-1.7-3.2-3.5-6.8-3.5-6.8c-0.2-0.5-0.6-0.9-1.2-1c-6.8-1.2-13.8-1.2-20.7,0c-0.5,0.1-1,0.5-1.2,1c0,0-1.9,3.6-3.5,6.8
	c0-0.4-0.1-0.7-0.3-1c0-0.3-0.3-0.5-0.7-0.5H1c-0.3,0-0.6,0.2-0.8,0.5c-0.4,0.9-0.4,2,0,2.9c0.1,0.3,0.4,0.5,0.8,0.5h3.8v0.1
	c-0.8,0.2-1.4,1-1.4,1.9V26c0,0.5,0.4,0.9,0.9,0.9H9c0.5,0,0.9-0.4,0.9-0.9v-2.3h21.6V26c0,0.5,0.4,0.9,0.9,0.9h4.7
	c0.5,0,0.9-0.4,0.9-0.9V13.1c0-0.9-0.6-1.6-1.4-1.9v-0.1h3.8c0.3,0,0.6-0.2,0.7-0.5C41.9,9.7,41.9,8.6,41.5,7.7z M11.5,3
	c0,0,2.3-0.6,9.4-0.6S30.3,3,30.3,3l3.3,8.1H8.2L11.5,3z M7.3,17v-2.7h5.8l1.7,2.7H7.3z M34.4,17H27l1.7-2.7h5.8L34.4,17L34.4,17z"
	/>
</svg>
