<?xml version="1.0" encoding="utf-8"?>
<!-- Generator: Adobe Illustrator 25.4.1, SVG Export Plug-In . SVG Version: 6.00 Build 0)  -->
<svg version="1.1" id="Layer_1" xmlns="http://www.w3.org/2000/svg" xmlns:xlink="http://www.w3.org/1999/xlink" x="0px" y="0px"
	 viewBox="0 0 33.5 31.5" style="enable-background:new 0 0 33.5 31.5;" xml:space="preserve">
<style type="text/css">
	.st0{fill:#009688;}
</style>
<path class="st0" d="M14.4,22.6v-4.5H2.2V2.7c0-0.3,0.2-0.5,0.5-0.5h28c0.3,0,0.5,0.2,0.5,0.5v4.2C32,7,32.8,7.3,33.4,7.7v-5
	c0-1.5-1.2-2.7-2.7-2.7h-28C1.2,0,0,1.2,0,2.7v19c0,1.5,1.2,2.7,2.7,2.7h9.4v3.7h-1.5c-0.9,0-1.7,0.8-1.7,1.7c0,0.9,0.8,1.7,1.7,1.7
	h4.7c-0.6-0.9-0.9-1.9-0.9-2.9C14.4,28.6,14.4,22.6,14.4,22.6z M23.9,27.4H19V11.9c0-0.3,0.3-0.6,0.6-0.6h11.2
	c0.3,0,0.6,0.3,0.6,0.6v4.8h0.8c0.5,0,1,0.1,1.4,0.4v-5.2c0-1.6-1.3-2.8-2.8-2.8H19.5c-1.6,0-2.8,1.3-2.8,2.8v16.7
	c0,1.6,1.3,2.8,2.8,2.8h4.8c-0.3-0.5-0.5-1-0.5-1.6v-2.4H23.9z M32.1,18.3h-5.4c-0.8,0-1.4,0.6-1.4,1.4V30c0,0.8,0.6,1.4,1.4,1.4
	h5.4c0.8,0,1.4-0.6,1.4-1.4V19.7C33.5,19,32.9,18.3,32.1,18.3z M29.8,30.6c-0.2,0.2-0.6,0.2-0.8-0.1c-0.2-0.2-0.2-0.6,0.1-0.8
	c0.2-0.2,0.6-0.2,0.8,0.1c0.1,0.1,0.1,0.3,0.1,0.4S29.9,30.5,29.8,30.6z"/>
</svg>
