<?xml version="1.0" encoding="utf-8"?>
<!-- Generator: Adobe Illustrator 25.4.1, SVG Export Plug-In . SVG Version: 6.00 Build 0)  -->
<svg version="1.1" id="Layer_1" xmlns="http://www.w3.org/2000/svg" xmlns:xlink="http://www.w3.org/1999/xlink" x="0px" y="0px"
	 viewBox="0 0 41.4 32.8" style="enable-background:new 0 0 41.4 32.8;" xml:space="preserve">
<style type="text/css">
	.st0{fill:#00A884;}
</style>
<path class="st0" d="M20.7,0.6c-8.6,0-15.8,7-15.8,15.8s7,15.8,15.8,15.8s15.8-7,15.8-15.8S29.4,0.6,20.7,0.6z M14,18.2
	c-1,0-1.8-0.8-1.8-1.8c0-1,0.9-1.8,1.8-1.8s1.8,0.8,1.8,1.8C15.8,17.4,14.9,18.2,14,18.2z M20.7,18.2c-1,0-1.8-0.8-1.8-1.8
	c0-1,0.8-1.8,1.8-1.8c1,0,1.8,0.8,1.8,1.8C22.5,17.4,21.7,18.2,20.7,18.2z M27.4,18.2c-1,0-1.8-0.8-1.8-1.8c0-1,0.8-1.8,1.8-1.8
	c1,0,1.8,0.8,1.8,1.8C29.2,17.4,28.5,18.2,27.4,18.2z"/>
</svg>
